solid negyzet baszki
   facet normal 0.000000e+000 0.000000e+000 1.000000e+000
      outer loop
         vertex 5.020000e+002 5.574897e+002 3.598177e+002
         vertex 8.000001e+000 5.574897e+002 3.598177e+002
         vertex 5.020000e+002 6.348977e+001 3.598177e+002
      endloop
   endfacet
   facet normal 0.000000e+000 0.000000e+000 1.000000e+000
      outer loop
         vertex 5.020000e+002 6.348977e+001 3.598177e+002
         vertex 8.000001e+000 5.574897e+002 3.598177e+002
         vertex 8.000001e+000 6.348977e+001 3.598177e+002
      endloop
   endfacet
   facet normal 1.950932e-001 0.000000e+000 9.807847e-001
      outer loop
         vertex 5.050615e+002 6.348977e+001 3.592087e+002
         vertex 5.020000e+002 5.574897e+002 3.598177e+002
         vertex 5.020000e+002 6.348977e+001 3.598177e+002
      endloop
   endfacet
   facet normal 0.000000e+000 -1.950949e-001 9.807844e-001
      outer loop
         vertex 8.000001e+000 6.042831e+001 3.592087e+002
         vertex 5.020000e+002 6.348977e+001 3.598177e+002
         vertex 8.000001e+000 6.348977e+001 3.598177e+002
      endloop
   endfacet
   facet normal 0.000000e+000 1.950951e-001 9.807844e-001
      outer loop
         vertex 5.020000e+002 5.605512e+002 3.592087e+002
         vertex 8.000001e+000 5.574897e+002 3.598177e+002
         vertex 5.020000e+002 5.574897e+002 3.598177e+002
      endloop
   endfacet
   facet normal -1.950949e-001 0.000000e+000 9.807844e-001
      outer loop
         vertex 4.938535e+000 5.574897e+002 3.592087e+002
         vertex 8.000001e+000 6.348977e+001 3.598177e+002
         vertex 8.000001e+000 5.574897e+002 3.598177e+002
      endloop
   endfacet
   facet normal 1.652668e-001 -1.104262e-001 9.800475e-001
      outer loop
         vertex 5.041648e+002 6.132499e+001 3.592087e+002
         vertex 5.048285e+002 6.231820e+001 3.592087e+002
         vertex 5.020000e+002 6.348977e+001 3.598177e+002
      endloop
   endfacet
   facet normal 1.949466e-001 -3.877096e-002 9.800473e-001
      outer loop
         vertex 5.020000e+002 6.348977e+001 3.598177e+002
         vertex 5.048285e+002 6.231820e+001 3.592087e+002
         vertex 5.050615e+002 6.348977e+001 3.592087e+002
      endloop
   endfacet
   facet normal 1.950932e-001 2.168448e-019 9.807847e-001
      outer loop
         vertex 5.050615e+002 6.348977e+001 3.592087e+002
         vertex 5.050615e+002 5.574897e+002 3.592087e+002
         vertex 5.020000e+002 5.574897e+002 3.598177e+002
      endloop
   endfacet
   facet normal 1.949466e-001 3.877096e-002 9.800473e-001
      outer loop
         vertex 5.020000e+002 5.574897e+002 3.598177e+002
         vertex 5.050615e+002 5.574897e+002 3.592087e+002
         vertex 5.048285e+002 5.586613e+002 3.592087e+002
      endloop
   endfacet
   facet normal 1.652672e-001 1.104252e-001 9.800475e-001
      outer loop
         vertex 5.048285e+002 5.586613e+002 3.592087e+002
         vertex 5.041648e+002 5.596545e+002 3.592087e+002
         vertex 5.020000e+002 5.574897e+002 3.598177e+002
      endloop
   endfacet
   facet normal 1.104238e-001 1.652701e-001 9.800472e-001
      outer loop
         vertex 5.041648e+002 5.596545e+002 3.592087e+002
         vertex 5.031716e+002 5.603182e+002 3.592087e+002
         vertex 5.020000e+002 5.574897e+002 3.598177e+002
      endloop
   endfacet
   facet normal 3.877539e-002 1.949484e-001 9.800467e-001
      outer loop
         vertex 5.020000e+002 5.574897e+002 3.598177e+002
         vertex 5.031716e+002 5.603182e+002 3.592087e+002
         vertex 5.020000e+002 5.605512e+002 3.592087e+002
      endloop
   endfacet
   facet normal -1.104293e-001 -1.652690e-001 9.800467e-001
      outer loop
         vertex 5.835217e+000 6.132499e+001 3.592087e+002
         vertex 6.828427e+000 6.066135e+001 3.592087e+002
         vertex 8.000001e+000 6.348977e+001 3.598177e+002
      endloop
   endfacet
   facet normal 1.104249e-001 -1.652698e-001 9.800471e-001
      outer loop
         vertex 5.031716e+002 6.066135e+001 3.592087e+002
         vertex 5.041648e+002 6.132499e+001 3.592087e+002
         vertex 5.020000e+002 6.348977e+001 3.598177e+002
      endloop
   endfacet
   facet normal 3.877661e-002 -1.949482e-001 9.800467e-001
      outer loop
         vertex 5.020000e+002 6.348977e+001 3.598177e+002
         vertex 5.020000e+002 6.042831e+001 3.592087e+002
         vertex 5.031716e+002 6.066135e+001 3.592087e+002
      endloop
   endfacet
   facet normal -2.168448e-019 -1.950949e-001 9.807844e-001
      outer loop
         vertex 8.000001e+000 6.042831e+001 3.592087e+002
         vertex 5.020000e+002 6.042831e+001 3.592087e+002
         vertex 5.020000e+002 6.348977e+001 3.598177e+002
      endloop
   endfacet
   facet normal -3.877749e-002 -1.949481e-001 9.800467e-001
      outer loop
         vertex 8.000001e+000 6.348977e+001 3.598177e+002
         vertex 6.828427e+000 6.066135e+001 3.592087e+002
         vertex 8.000001e+000 6.042831e+001 3.592087e+002
      endloop
   endfacet
   facet normal 0.000000e+000 1.950951e-001 9.807844e-001
      outer loop
         vertex 5.020000e+002 5.605512e+002 3.592087e+002
         vertex 8.000001e+000 5.605512e+002 3.592087e+002
         vertex 8.000001e+000 5.574897e+002 3.598177e+002
      endloop
   endfacet
   facet normal -3.877627e-002 1.949484e-001 9.800467e-001
      outer loop
         vertex 8.000001e+000 5.574897e+002 3.598177e+002
         vertex 8.000001e+000 5.605512e+002 3.592087e+002
         vertex 6.828427e+000 5.603182e+002 3.592087e+002
      endloop
   endfacet
   facet normal -1.104282e-001 1.652692e-001 9.800468e-001
      outer loop
         vertex 6.828427e+000 5.603182e+002 3.592087e+002
         vertex 5.835217e+000 5.596545e+002 3.592087e+002
         vertex 8.000001e+000 5.574897e+002 3.598177e+002
      endloop
   endfacet
   facet normal -1.652697e-001 1.104280e-001 9.800467e-001
      outer loop
         vertex 5.835217e+000 5.596545e+002 3.592087e+002
         vertex 5.171575e+000 5.586613e+002 3.592087e+002
         vertex 8.000001e+000 5.574897e+002 3.598177e+002
      endloop
   endfacet
   facet normal -1.652692e-001 -1.104290e-001 9.800467e-001
      outer loop
         vertex 5.171575e+000 6.231820e+001 3.592087e+002
         vertex 5.835217e+000 6.132499e+001 3.592087e+002
         vertex 8.000001e+000 6.348977e+001 3.598177e+002
      endloop
   endfacet
   facet normal -1.949482e-001 -3.877755e-002 9.800467e-001
      outer loop
         vertex 8.000001e+000 6.348977e+001 3.598177e+002
         vertex 4.938535e+000 6.348977e+001 3.592087e+002
         vertex 5.171575e+000 6.231820e+001 3.592087e+002
      endloop
   endfacet
   facet normal -1.950949e-001 0.000000e+000 9.807844e-001
      outer loop
         vertex 4.938535e+000 5.574897e+002 3.592087e+002
         vertex 4.938535e+000 6.348977e+001 3.592087e+002
         vertex 8.000001e+000 6.348977e+001 3.598177e+002
      endloop
   endfacet
   facet normal -1.949482e-001 3.877755e-002 9.800467e-001
      outer loop
         vertex 8.000001e+000 5.574897e+002 3.598177e+002
         vertex 5.171575e+000 5.586613e+002 3.592087e+002
         vertex 4.938535e+000 5.574897e+002 3.592087e+002
      endloop
   endfacet
   facet normal 4.681458e-001 -3.128008e-001 8.264353e-001
      outer loop
         vertex 5.041648e+002 6.132499e+001 3.592087e+002
         vertex 5.060000e+002 5.948977e+001 3.574746e+002
         vertex 5.048285e+002 6.231820e+001 3.592087e+002
      endloop
   endfacet
   facet normal 5.522183e-001 -1.098251e-001 8.264341e-001
      outer loop
         vertex 5.048285e+002 6.231820e+001 3.592087e+002
         vertex 5.072262e+002 6.132499e+001 3.574746e+002
         vertex 5.050615e+002 6.348977e+001 3.592087e+002
      endloop
   endfacet
   facet normal 5.555640e-001 0.000000e+000 8.314738e-001
      outer loop
         vertex 5.076569e+002 6.348977e+001 3.574746e+002
         vertex 5.050615e+002 5.574897e+002 3.592087e+002
         vertex 5.050615e+002 6.348977e+001 3.592087e+002
      endloop
   endfacet
   facet normal 5.522035e-001 1.098222e-001 8.264444e-001
      outer loop
         vertex 5.050615e+002 5.574897e+002 3.592087e+002
         vertex 5.076569e+002 5.574897e+002 3.574746e+002
         vertex 5.048285e+002 5.586613e+002 3.592087e+002
      endloop
   endfacet
   facet normal 4.681441e-001 3.127961e-001 8.264380e-001
      outer loop
         vertex 5.048285e+002 5.586613e+002 3.592087e+002
         vertex 5.072262e+002 5.596545e+002 3.574746e+002
         vertex 5.041648e+002 5.596545e+002 3.592087e+002
      endloop
   endfacet
   facet normal 3.127916e-001 4.681518e-001 8.264353e-001
      outer loop
         vertex 5.041648e+002 5.596545e+002 3.592087e+002
         vertex 5.060000e+002 5.614897e+002 3.574746e+002
         vertex 5.031716e+002 5.603182e+002 3.592087e+002
      endloop
   endfacet
   facet normal 1.098339e-001 5.522045e-001 8.264422e-001
      outer loop
         vertex 5.031716e+002 5.603182e+002 3.592087e+002
         vertex 5.041648e+002 5.627160e+002 3.574746e+002
         vertex 5.020000e+002 5.605512e+002 3.592087e+002
      endloop
   endfacet
   facet normal -3.127986e-001 -4.681357e-001 8.264418e-001
      outer loop
         vertex 5.835217e+000 6.132499e+001 3.592087e+002
         vertex 4.000000e+000 5.948977e+001 3.574746e+002
         vertex 6.828427e+000 6.066135e+001 3.592087e+002
      endloop
   endfacet
   facet normal 3.127861e-001 -4.681381e-001 8.264451e-001
      outer loop
         vertex 5.031716e+002 6.066135e+001 3.592087e+002
         vertex 5.041648e+002 5.826352e+001 3.574746e+002
         vertex 5.041648e+002 6.132499e+001 3.592087e+002
      endloop
   endfacet
   facet normal 1.098375e-001 -5.522043e-001 8.264418e-001
      outer loop
         vertex 5.020000e+002 6.042831e+001 3.592087e+002
         vertex 5.020000e+002 5.783292e+001 3.574746e+002
         vertex 5.031716e+002 6.066135e+001 3.592087e+002
      endloop
   endfacet
   facet normal 0.000000e+000 -5.555657e-001 8.314726e-001
      outer loop
         vertex 8.000001e+000 5.783292e+001 3.574746e+002
         vertex 5.020000e+002 6.042831e+001 3.592087e+002
         vertex 8.000001e+000 6.042831e+001 3.592087e+002
      endloop
   endfacet
   facet normal -1.098400e-001 -5.522044e-001 8.264415e-001
      outer loop
         vertex 6.828427e+000 6.066135e+001 3.592087e+002
         vertex 5.835217e+000 5.826352e+001 3.574746e+002
         vertex 8.000001e+000 6.042831e+001 3.592087e+002
      endloop
   endfacet
   facet normal 0.000000e+000 5.555550e-001 8.314798e-001
      outer loop
         vertex 5.020000e+002 5.631467e+002 3.574746e+002
         vertex 8.000001e+000 5.605512e+002 3.592087e+002
         vertex 5.020000e+002 5.605512e+002 3.592087e+002
      endloop
   endfacet
   facet normal -1.098343e-001 5.521939e-001 8.264493e-001
      outer loop
         vertex 8.000001e+000 5.605512e+002 3.592087e+002
         vertex 8.000001e+000 5.631467e+002 3.574746e+002
         vertex 6.828427e+000 5.603182e+002 3.592087e+002
      endloop
   endfacet
   facet normal -3.127959e-001 4.681370e-001 8.264421e-001
      outer loop
         vertex 6.828427e+000 5.603182e+002 3.592087e+002
         vertex 5.835217e+000 5.627160e+002 3.574746e+002
         vertex 5.835217e+000 5.596545e+002 3.592087e+002
      endloop
   endfacet
   facet normal -4.681393e-001 3.127961e-001 8.264407e-001
      outer loop
         vertex 5.835217e+000 5.596545e+002 3.592087e+002
         vertex 4.000000e+000 5.614897e+002 3.574746e+002
         vertex 5.171575e+000 5.586613e+002 3.592087e+002
      endloop
   endfacet
   facet normal -4.681363e-001 -3.127977e-001 8.264418e-001
      outer loop
         vertex 5.171575e+000 6.231820e+001 3.592087e+002
         vertex 2.773751e+000 6.132499e+001 3.574746e+002
         vertex 5.835217e+000 6.132499e+001 3.592087e+002
      endloop
   endfacet
   facet normal -5.522040e-001 -1.098400e-001 8.264417e-001
      outer loop
         vertex 4.938535e+000 6.348977e+001 3.592087e+002
         vertex 2.343148e+000 6.348977e+001 3.574746e+002
         vertex 5.171575e+000 6.231820e+001 3.592087e+002
      endloop
   endfacet
   facet normal -5.555657e-001 0.000000e+000 8.314728e-001
      outer loop
         vertex 2.343148e+000 5.574897e+002 3.574746e+002
         vertex 4.938535e+000 6.348977e+001 3.592087e+002
         vertex 4.938535e+000 5.574897e+002 3.592087e+002
      endloop
   endfacet
   facet normal -5.522038e-001 1.098400e-001 8.264418e-001
      outer loop
         vertex 5.171575e+000 5.586613e+002 3.592087e+002
         vertex 2.773751e+000 5.596545e+002 3.574746e+002
         vertex 4.938535e+000 5.574897e+002 3.592087e+002
      endloop
   endfacet
   facet normal 3.128091e-001 -4.681344e-001 8.264386e-001
      outer loop
         vertex 5.041648e+002 6.132499e+001 3.592087e+002
         vertex 5.041648e+002 5.826352e+001 3.574746e+002
         vertex 5.060000e+002 5.948977e+001 3.574746e+002
      endloop
   endfacet
   facet normal 4.681415e-001 -3.128034e-001 8.264367e-001
      outer loop
         vertex 5.048285e+002 6.231820e+001 3.592087e+002
         vertex 5.060000e+002 5.948977e+001 3.574746e+002
         vertex 5.072262e+002 6.132499e+001 3.574746e+002
      endloop
   endfacet
   facet normal 5.522020e-001 -1.098478e-001 8.264421e-001
      outer loop
         vertex 5.050615e+002 6.348977e+001 3.592087e+002
         vertex 5.072262e+002 6.132499e+001 3.574746e+002
         vertex 5.076569e+002 6.348977e+001 3.574746e+002
      endloop
   endfacet
   facet normal 5.555640e-001 0.000000e+000 8.314738e-001
      outer loop
         vertex 5.076569e+002 6.348977e+001 3.574746e+002
         vertex 5.076569e+002 5.574897e+002 3.574746e+002
         vertex 5.050615e+002 5.574897e+002 3.592087e+002
      endloop
   endfacet
   facet normal 5.522098e-001 1.098488e-001 8.264367e-001
      outer loop
         vertex 5.048285e+002 5.586613e+002 3.592087e+002
         vertex 5.076569e+002 5.574897e+002 3.574746e+002
         vertex 5.072262e+002 5.596545e+002 3.574746e+002
      endloop
   endfacet
   facet normal 4.681424e-001 3.128060e-001 8.264351e-001
      outer loop
         vertex 5.041648e+002 5.596545e+002 3.592087e+002
         vertex 5.072262e+002 5.596545e+002 3.574746e+002
         vertex 5.060000e+002 5.614897e+002 3.574746e+002
      endloop
   endfacet
   facet normal 3.128065e-001 4.681276e-001 8.264434e-001
      outer loop
         vertex 5.031716e+002 5.603182e+002 3.592087e+002
         vertex 5.060000e+002 5.614897e+002 3.574746e+002
         vertex 5.041648e+002 5.627160e+002 3.574746e+002
      endloop
   endfacet
   facet normal 1.098501e-001 5.521929e-001 8.264478e-001
      outer loop
         vertex 5.020000e+002 5.605512e+002 3.592087e+002
         vertex 5.041648e+002 5.627160e+002 3.574746e+002
         vertex 5.020000e+002 5.631467e+002 3.574746e+002
      endloop
   endfacet
   facet normal -4.681362e-001 -3.127980e-001 8.264417e-001
      outer loop
         vertex 5.835217e+000 6.132499e+001 3.592087e+002
         vertex 2.773751e+000 6.132499e+001 3.574746e+002
         vertex 4.000000e+000 5.948977e+001 3.574746e+002
      endloop
   endfacet
   facet normal -3.127981e-001 -4.681364e-001 8.264415e-001
      outer loop
         vertex 6.828427e+000 6.066135e+001 3.592087e+002
         vertex 4.000000e+000 5.948977e+001 3.574746e+002
         vertex 5.835217e+000 5.826352e+001 3.574746e+002
      endloop
   endfacet
   facet normal 1.098368e-001 -5.522041e-001 8.264421e-001
      outer loop
         vertex 5.031716e+002 6.066135e+001 3.592087e+002
         vertex 5.020000e+002 5.783292e+001 3.574746e+002
         vertex 5.041648e+002 5.826352e+001 3.574746e+002
      endloop
   endfacet
   facet normal 0.000000e+000 -5.555657e-001 8.314726e-001
      outer loop
         vertex 8.000001e+000 5.783292e+001 3.574746e+002
         vertex 5.020000e+002 5.783292e+001 3.574746e+002
         vertex 5.020000e+002 6.042831e+001 3.592087e+002
      endloop
   endfacet
   facet normal -1.098404e-001 -5.522041e-001 8.264416e-001
      outer loop
         vertex 8.000001e+000 6.042831e+001 3.592087e+002
         vertex 5.835217e+000 5.826352e+001 3.574746e+002
         vertex 8.000001e+000 5.783292e+001 3.574746e+002
      endloop
   endfacet
   facet normal 4.336895e-019 5.555550e-001 8.314798e-001
      outer loop
         vertex 5.020000e+002 5.631467e+002 3.574746e+002
         vertex 8.000001e+000 5.631467e+002 3.574746e+002
         vertex 8.000001e+000 5.605512e+002 3.592087e+002
      endloop
   endfacet
   facet normal -1.098549e-001 5.521986e-001 8.264433e-001
      outer loop
         vertex 6.828427e+000 5.603182e+002 3.592087e+002
         vertex 8.000001e+000 5.631467e+002 3.574746e+002
         vertex 5.835217e+000 5.627160e+002 3.574746e+002
      endloop
   endfacet
   facet normal -3.128000e-001 4.681363e-001 8.264409e-001
      outer loop
         vertex 5.835217e+000 5.596545e+002 3.592087e+002
         vertex 5.835217e+000 5.627160e+002 3.574746e+002
         vertex 4.000000e+000 5.614897e+002 3.574746e+002
      endloop
   endfacet
   facet normal -4.681347e-001 3.127989e-001 8.264422e-001
      outer loop
         vertex 5.171575e+000 5.586613e+002 3.592087e+002
         vertex 4.000000e+000 5.614897e+002 3.574746e+002
         vertex 2.773751e+000 5.596545e+002 3.574746e+002
      endloop
   endfacet
   facet normal -5.522041e-001 -1.098403e-001 8.264416e-001
      outer loop
         vertex 5.171575e+000 6.231820e+001 3.592087e+002
         vertex 2.343148e+000 6.348977e+001 3.574746e+002
         vertex 2.773751e+000 6.132499e+001 3.574746e+002
      endloop
   endfacet
   facet normal -5.555657e-001 0.000000e+000 8.314728e-001
      outer loop
         vertex 2.343148e+000 5.574897e+002 3.574746e+002
         vertex 2.343148e+000 6.348977e+001 3.574746e+002
         vertex 4.938535e+000 6.348977e+001 3.592087e+002
      endloop
   endfacet
   facet normal -5.522041e-001 1.098397e-001 8.264417e-001
      outer loop
         vertex 4.938535e+000 5.574897e+002 3.592087e+002
         vertex 2.773751e+000 5.596545e+002 3.574746e+002
         vertex 2.343148e+000 5.574897e+002 3.574746e+002
      endloop
   endfacet
   facet normal 4.646905e-001 -6.954327e-001 5.481206e-001
      outer loop
         vertex 5.041648e+002 5.826352e+001 3.574746e+002
         vertex 5.048285e+002 5.666135e+001 3.548792e+002
         vertex 5.060000e+002 5.948977e+001 3.574746e+002
      endloop
   endfacet
   facet normal 6.954383e-001 -4.646788e-001 5.481235e-001
      outer loop
         vertex 5.060000e+002 5.948977e+001 3.574746e+002
         vertex 5.072262e+002 5.826352e+001 3.548792e+002
         vertex 5.072262e+002 6.132499e+001 3.574746e+002
      endloop
   endfacet
   facet normal 8.203243e-001 -1.631845e-001 5.481231e-001
      outer loop
         vertex 5.072262e+002 6.132499e+001 3.574746e+002
         vertex 5.088284e+002 6.066135e+001 3.548792e+002
         vertex 5.076569e+002 6.348977e+001 3.574746e+002
      endloop
   endfacet
   facet normal 8.314738e-001 0.000000e+000 5.555640e-001
      outer loop
         vertex 5.093910e+002 6.348977e+001 3.548792e+002
         vertex 5.076569e+002 5.574897e+002 3.574746e+002
         vertex 5.076569e+002 6.348977e+001 3.574746e+002
      endloop
   endfacet
   facet normal 8.203284e-001 1.631845e-001 5.481170e-001
      outer loop
         vertex 5.076569e+002 5.574897e+002 3.574746e+002
         vertex 5.093910e+002 5.574897e+002 3.548792e+002
         vertex 5.072262e+002 5.596545e+002 3.574746e+002
      endloop
   endfacet
   facet normal 6.954383e-001 4.646818e-001 5.481208e-001
      outer loop
         vertex 5.072262e+002 5.596545e+002 3.574746e+002
         vertex 5.088284e+002 5.603182e+002 3.548792e+002
         vertex 5.060000e+002 5.614897e+002 3.574746e+002
      endloop
   endfacet
   facet normal 4.646906e-001 6.954285e-001 5.481259e-001
      outer loop
         vertex 5.060000e+002 5.614897e+002 3.574746e+002
         vertex 5.072262e+002 5.627160e+002 3.548792e+002
         vertex 5.041648e+002 5.627160e+002 3.574746e+002
      endloop
   endfacet
   facet normal 1.631904e-001 8.203230e-001 5.481233e-001
      outer loop
         vertex 5.041648e+002 5.627160e+002 3.574746e+002
         vertex 5.048285e+002 5.643182e+002 3.548792e+002
         vertex 5.020000e+002 5.631467e+002 3.574746e+002
      endloop
   endfacet
   facet normal -6.954398e-001 -4.646771e-001 5.481229e-001
      outer loop
         vertex 2.773751e+000 6.132499e+001 3.574746e+002
         vertex 1.171574e+000 6.066135e+001 3.548792e+002
         vertex 4.000000e+000 5.948977e+001 3.574746e+002
      endloop
   endfacet
   facet normal -4.646775e-001 -6.954404e-001 5.481219e-001
      outer loop
         vertex 4.000000e+000 5.948977e+001 3.574746e+002
         vertex 2.773751e+000 5.826352e+001 3.548792e+002
         vertex 5.835217e+000 5.826352e+001 3.574746e+002
      endloop
   endfacet
   facet normal 1.631681e-001 -8.203273e-001 5.481235e-001
      outer loop
         vertex 5.020000e+002 5.783292e+001 3.574746e+002
         vertex 5.020000e+002 5.609874e+001 3.548792e+002
         vertex 5.041648e+002 5.826352e+001 3.574746e+002
      endloop
   endfacet
   facet normal 0.000000e+000 -8.314704e-001 5.555691e-001
      outer loop
         vertex 8.000001e+000 5.609874e+001 3.548792e+002
         vertex 5.020000e+002 5.783292e+001 3.574746e+002
         vertex 8.000001e+000 5.783292e+001 3.574746e+002
      endloop
   endfacet
   facet normal -1.631734e-001 -8.203267e-001 5.481229e-001
      outer loop
         vertex 5.835217e+000 5.826352e+001 3.574746e+002
         vertex 5.171575e+000 5.666135e+001 3.548792e+002
         vertex 8.000001e+000 5.783292e+001 3.574746e+002
      endloop
   endfacet
   facet normal 0.000000e+000 8.314783e-001 5.555573e-001
      outer loop
         vertex 5.020000e+002 5.648808e+002 3.548792e+002
         vertex 8.000001e+000 5.631467e+002 3.574746e+002
         vertex 5.020000e+002 5.631467e+002 3.574746e+002
      endloop
   endfacet
   facet normal -1.631974e-001 8.203310e-001 5.481091e-001
      outer loop
         vertex 8.000001e+000 5.631467e+002 3.574746e+002
         vertex 8.000001e+000 5.648808e+002 3.548792e+002
         vertex 5.835217e+000 5.627160e+002 3.574746e+002
      endloop
   endfacet
   facet normal -4.646794e-001 6.954390e-001 5.481219e-001
      outer loop
         vertex 5.835217e+000 5.627160e+002 3.574746e+002
         vertex 5.171575e+000 5.643182e+002 3.548792e+002
         vertex 4.000000e+000 5.614897e+002 3.574746e+002
      endloop
   endfacet
   facet normal -6.954384e-001 4.646790e-001 5.481230e-001
      outer loop
         vertex 4.000000e+000 5.614897e+002 3.574746e+002
         vertex 2.773751e+000 5.627160e+002 3.548792e+002
         vertex 2.773751e+000 5.596545e+002 3.574746e+002
      endloop
   endfacet
   facet normal -8.203268e-001 -1.631733e-001 5.481226e-001
      outer loop
         vertex 2.343148e+000 6.348977e+001 3.574746e+002
         vertex 6.089658e-001 6.348977e+001 3.548792e+002
         vertex 2.773751e+000 6.132499e+001 3.574746e+002
      endloop
   endfacet
   facet normal -8.314707e-001 0.000000e+000 5.555686e-001
      outer loop
         vertex 6.089658e-001 5.574897e+002 3.548792e+002
         vertex 2.343148e+000 6.348977e+001 3.574746e+002
         vertex 2.343148e+000 5.574897e+002 3.574746e+002
      endloop
   endfacet
   facet normal -8.203271e-001 1.631725e-001 5.481224e-001
      outer loop
         vertex 2.773751e+000 5.596545e+002 3.574746e+002
         vertex 1.171574e+000 5.603182e+002 3.548792e+002
         vertex 2.343148e+000 5.574897e+002 3.574746e+002
      endloop
   endfacet
   facet normal 1.631701e-001 -8.203278e-001 5.481223e-001
      outer loop
         vertex 5.041648e+002 5.826352e+001 3.574746e+002
         vertex 5.020000e+002 5.609874e+001 3.548792e+002
         vertex 5.048285e+002 5.666135e+001 3.548792e+002
      endloop
   endfacet
   facet normal 4.646856e-001 -6.954335e-001 5.481238e-001
      outer loop
         vertex 5.060000e+002 5.948977e+001 3.574746e+002
         vertex 5.048285e+002 5.666135e+001 3.548792e+002
         vertex 5.072262e+002 5.826352e+001 3.548792e+002
      endloop
   endfacet
   facet normal 6.954400e-001 -4.646777e-001 5.481222e-001
      outer loop
         vertex 5.072262e+002 6.132499e+001 3.574746e+002
         vertex 5.072262e+002 5.826352e+001 3.548792e+002
         vertex 5.088284e+002 6.066135e+001 3.548792e+002
      endloop
   endfacet
   facet normal 8.203294e-001 -1.631774e-001 5.481176e-001
      outer loop
         vertex 5.076569e+002 6.348977e+001 3.574746e+002
         vertex 5.088284e+002 6.066135e+001 3.548792e+002
         vertex 5.093910e+002 6.348977e+001 3.548792e+002
      endloop
   endfacet
   facet normal 8.314738e-001 -4.336896e-019 5.555640e-001
      outer loop
         vertex 5.093910e+002 6.348977e+001 3.548792e+002
         vertex 5.093910e+002 5.574897e+002 3.548792e+002
         vertex 5.076569e+002 5.574897e+002 3.574746e+002
      endloop
   endfacet
   facet normal 8.203266e-001 1.631767e-001 5.481220e-001
      outer loop
         vertex 5.072262e+002 5.596545e+002 3.574746e+002
         vertex 5.093910e+002 5.574897e+002 3.548792e+002
         vertex 5.088284e+002 5.603182e+002 3.548792e+002
      endloop
   endfacet
   facet normal 6.954392e-001 4.646765e-001 5.481242e-001
      outer loop
         vertex 5.060000e+002 5.614897e+002 3.574746e+002
         vertex 5.088284e+002 5.603182e+002 3.548792e+002
         vertex 5.072262e+002 5.627160e+002 3.548792e+002
      endloop
   endfacet
   facet normal 4.646860e-001 6.954358e-001 5.481203e-001
      outer loop
         vertex 5.041648e+002 5.627160e+002 3.574746e+002
         vertex 5.072262e+002 5.627160e+002 3.548792e+002
         vertex 5.048285e+002 5.643182e+002 3.548792e+002
      endloop
   endfacet
   facet normal 1.631747e-001 8.203341e-001 5.481112e-001
      outer loop
         vertex 5.020000e+002 5.631467e+002 3.574746e+002
         vertex 5.048285e+002 5.643182e+002 3.548792e+002
         vertex 5.020000e+002 5.648808e+002 3.548792e+002
      endloop
   endfacet
   facet normal -8.203267e-001 -1.631729e-001 5.481228e-001
      outer loop
         vertex 2.773751e+000 6.132499e+001 3.574746e+002
         vertex 6.089658e-001 6.348977e+001 3.548792e+002
         vertex 1.171574e+000 6.066135e+001 3.548792e+002
      endloop
   endfacet
   facet normal -6.954396e-001 -4.646785e-001 5.481220e-001
      outer loop
         vertex 4.000000e+000 5.948977e+001 3.574746e+002
         vertex 1.171574e+000 6.066135e+001 3.548792e+002
         vertex 2.773751e+000 5.826352e+001 3.548792e+002
      endloop
   endfacet
   facet normal -4.646782e-001 -6.954392e-001 5.481227e-001
      outer loop
         vertex 5.835217e+000 5.826352e+001 3.574746e+002
         vertex 2.773751e+000 5.826352e+001 3.548792e+002
         vertex 5.171575e+000 5.666135e+001 3.548792e+002
      endloop
   endfacet
   facet normal 0.000000e+000 -8.314704e-001 5.555691e-001
      outer loop
         vertex 8.000001e+000 5.609874e+001 3.548792e+002
         vertex 5.020000e+002 5.609874e+001 3.548792e+002
         vertex 5.020000e+002 5.783292e+001 3.574746e+002
      endloop
   endfacet
   facet normal -1.631736e-001 -8.203265e-001 5.481230e-001
      outer loop
         vertex 8.000001e+000 5.783292e+001 3.574746e+002
         vertex 5.171575e+000 5.666135e+001 3.548792e+002
         vertex 8.000001e+000 5.609874e+001 3.548792e+002
      endloop
   endfacet
   facet normal 0.000000e+000 8.314783e-001 5.555573e-001
      outer loop
         vertex 5.020000e+002 5.648808e+002 3.548792e+002
         vertex 8.000001e+000 5.648808e+002 3.548792e+002
         vertex 8.000001e+000 5.631467e+002 3.574746e+002
      endloop
   endfacet
   facet normal -1.631768e-001 8.203263e-001 5.481223e-001
      outer loop
         vertex 5.835217e+000 5.627160e+002 3.574746e+002
         vertex 8.000001e+000 5.648808e+002 3.548792e+002
         vertex 5.171575e+000 5.643182e+002 3.548792e+002
      endloop
   endfacet
   facet normal -4.646772e-001 6.954394e-001 5.481233e-001
      outer loop
         vertex 4.000000e+000 5.614897e+002 3.574746e+002
         vertex 5.171575e+000 5.643182e+002 3.548792e+002
         vertex 2.773751e+000 5.627160e+002 3.548792e+002
      endloop
   endfacet
   facet normal -6.954400e-001 4.646780e-001 5.481219e-001
      outer loop
         vertex 2.773751e+000 5.596545e+002 3.574746e+002
         vertex 2.773751e+000 5.627160e+002 3.548792e+002
         vertex 1.171574e+000 5.603182e+002 3.548792e+002
      endloop
   endfacet
   facet normal -8.314707e-001 0.000000e+000 5.555686e-001
      outer loop
         vertex 6.089658e-001 5.574897e+002 3.548792e+002
         vertex 6.089658e-001 6.348977e+001 3.548792e+002
         vertex 2.343148e+000 6.348977e+001 3.574746e+002
      endloop
   endfacet
   facet normal -8.203270e-001 1.631727e-001 5.481226e-001
      outer loop
         vertex 2.343148e+000 5.574897e+002 3.574746e+002
         vertex 1.171574e+000 5.603182e+002 3.548792e+002
         vertex 6.089658e-001 5.574897e+002 3.548792e+002
      endloop
   endfacet
   facet normal 1.914769e-001 -9.626386e-001 1.914777e-001
      outer loop
         vertex 5.020000e+002 5.609874e+001 3.548792e+002
         vertex 5.020000e+002 5.548978e+001 3.518177e+002
         vertex 5.048285e+002 5.666135e+001 3.548792e+002
      endloop
   endfacet
   facet normal 5.453007e-001 -8.160794e-001 1.914722e-001
      outer loop
         vertex 5.048285e+002 5.666135e+001 3.548792e+002
         vertex 5.050615e+002 5.609874e+001 3.518177e+002
         vertex 5.072262e+002 5.826352e+001 3.548792e+002
      endloop
   endfacet
   facet normal 8.160836e-001 -5.452892e-001 1.914870e-001
      outer loop
         vertex 5.072262e+002 5.826352e+001 3.548792e+002
         vertex 5.076569e+002 5.783292e+001 3.518177e+002
         vertex 5.088284e+002 6.066135e+001 3.548792e+002
      endloop
   endfacet
   facet normal 9.626359e-001 -1.914846e-001 1.914830e-001
      outer loop
         vertex 5.088284e+002 6.066135e+001 3.548792e+002
         vertex 5.093910e+002 6.042831e+001 3.518177e+002
         vertex 5.093910e+002 6.348977e+001 3.548792e+002
      endloop
   endfacet
   facet normal 9.807847e-001 0.000000e+000 1.950932e-001
      outer loop
         vertex 5.100000e+002 6.348977e+001 3.518177e+002
         vertex 5.093910e+002 5.574897e+002 3.548792e+002
         vertex 5.093910e+002 6.348977e+001 3.548792e+002
      endloop
   endfacet
   facet normal 9.626359e-001 1.914844e-001 1.914832e-001
      outer loop
         vertex 5.093910e+002 5.574897e+002 3.548792e+002
         vertex 5.100000e+002 5.574897e+002 3.518177e+002
         vertex 5.088284e+002 5.603182e+002 3.548792e+002
      endloop
   endfacet
   facet normal 8.160850e-001 5.452892e-001 1.914809e-001
      outer loop
         vertex 5.088284e+002 5.603182e+002 3.548792e+002
         vertex 5.093910e+002 5.605512e+002 3.518177e+002
         vertex 5.072262e+002 5.627160e+002 3.548792e+002
      endloop
   endfacet
   facet normal 5.452967e-001 8.160755e-001 1.915005e-001
      outer loop
         vertex 5.072262e+002 5.627160e+002 3.548792e+002
         vertex 5.076569e+002 5.631467e+002 3.518177e+002
         vertex 5.048285e+002 5.643182e+002 3.548792e+002
      endloop
   endfacet
   facet normal 1.914805e-001 9.626372e-001 1.914805e-001
      outer loop
         vertex 5.048285e+002 5.643182e+002 3.548792e+002
         vertex 5.050615e+002 5.648808e+002 3.518177e+002
         vertex 5.020000e+002 5.648808e+002 3.548792e+002
      endloop
   endfacet
   facet normal -9.626375e-001 -1.914802e-001 1.914795e-001
      outer loop
         vertex 6.089658e-001 6.348977e+001 3.548792e+002
         vertex 1.409463e-014 6.348977e+001 3.518177e+002
         vertex 1.171574e+000 6.066135e+001 3.548792e+002
      endloop
   endfacet
   facet normal -8.160844e-001 -5.452909e-001 1.914786e-001
      outer loop
         vertex 1.171574e+000 6.066135e+001 3.548792e+002
         vertex 6.089658e-001 6.042831e+001 3.518177e+002
         vertex 2.773751e+000 5.826352e+001 3.548792e+002
      endloop
   endfacet
   facet normal -5.452908e-001 -8.160844e-001 1.914791e-001
      outer loop
         vertex 2.773751e+000 5.826352e+001 3.548792e+002
         vertex 2.343148e+000 5.783292e+001 3.518177e+002
         vertex 5.171575e+000 5.666135e+001 3.548792e+002
      endloop
   endfacet
   facet normal 0.000000e+000 -9.807859e-001 1.950874e-001
      outer loop
         vertex 8.000001e+000 5.548978e+001 3.518177e+002
         vertex 5.020000e+002 5.609874e+001 3.548792e+002
         vertex 8.000001e+000 5.609874e+001 3.548792e+002
      endloop
   endfacet
   facet normal -1.914810e-001 -9.626374e-001 1.914793e-001
      outer loop
         vertex 5.171575e+000 5.666135e+001 3.548792e+002
         vertex 4.938535e+000 5.609874e+001 3.518177e+002
         vertex 8.000001e+000 5.609874e+001 3.548792e+002
      endloop
   endfacet
   facet normal 0.000000e+000 9.807866e-001 1.950839e-001
      outer loop
         vertex 5.020000e+002 5.654897e+002 3.518177e+002
         vertex 8.000001e+000 5.648808e+002 3.548792e+002
         vertex 5.020000e+002 5.648808e+002 3.548792e+002
      endloop
   endfacet
   facet normal -1.914850e-001 9.626377e-001 1.914739e-001
      outer loop
         vertex 8.000001e+000 5.648808e+002 3.548792e+002
         vertex 8.000001e+000 5.654897e+002 3.518177e+002
         vertex 5.171575e+000 5.643182e+002 3.548792e+002
      endloop
   endfacet
   facet normal -5.452896e-001 8.160846e-001 1.914821e-001
      outer loop
         vertex 5.171575e+000 5.643182e+002 3.548792e+002
         vertex 4.938535e+000 5.648808e+002 3.518177e+002
         vertex 2.773751e+000 5.627160e+002 3.548792e+002
      endloop
   endfacet
   facet normal -8.160830e-001 5.452892e-001 1.914895e-001
      outer loop
         vertex 2.773751e+000 5.627160e+002 3.548792e+002
         vertex 2.343148e+000 5.631467e+002 3.518177e+002
         vertex 1.171574e+000 5.603182e+002 3.548792e+002
      endloop
   endfacet
   facet normal -9.807855e-001 0.000000e+000 1.950894e-001
      outer loop
         vertex 2.168404e-016 5.574897e+002 3.518177e+002
         vertex 6.089658e-001 6.348977e+001 3.548792e+002
         vertex 6.089658e-001 5.574897e+002 3.548792e+002
      endloop
   endfacet
   facet normal -9.626378e-001 1.914801e-001 1.914782e-001
      outer loop
         vertex 1.171574e+000 5.603182e+002 3.548792e+002
         vertex 6.089658e-001 5.605512e+002 3.518177e+002
         vertex 6.089658e-001 5.574897e+002 3.548792e+002
      endloop
   endfacet
   facet normal 2.168448e-019 -9.807859e-001 1.950874e-001
      outer loop
         vertex 8.000001e+000 5.548978e+001 3.518177e+002
         vertex 5.020000e+002 5.548978e+001 3.518177e+002
         vertex 5.020000e+002 5.609874e+001 3.548792e+002
      endloop
   endfacet
   facet normal 1.914777e-001 -9.626386e-001 1.914769e-001
      outer loop
         vertex 5.048285e+002 5.666135e+001 3.548792e+002
         vertex 5.020000e+002 5.548978e+001 3.518177e+002
         vertex 5.050615e+002 5.609874e+001 3.518177e+002
      endloop
   endfacet
   facet normal 5.452887e-001 -8.160846e-001 1.914844e-001
      outer loop
         vertex 5.072262e+002 5.826352e+001 3.548792e+002
         vertex 5.050615e+002 5.609874e+001 3.518177e+002
         vertex 5.076569e+002 5.783292e+001 3.518177e+002
      endloop
   endfacet
   facet normal 8.160871e-001 -5.452856e-001 1.914824e-001
      outer loop
         vertex 5.088284e+002 6.066135e+001 3.548792e+002
         vertex 5.076569e+002 5.783292e+001 3.518177e+002
         vertex 5.093910e+002 6.042831e+001 3.518177e+002
      endloop
   endfacet
   facet normal 9.626359e-001 -1.914848e-001 1.914832e-001
      outer loop
         vertex 5.093910e+002 6.348977e+001 3.548792e+002
         vertex 5.093910e+002 6.042831e+001 3.518177e+002
         vertex 5.100000e+002 6.348977e+001 3.518177e+002
      endloop
   endfacet
   facet normal 9.807847e-001 -2.168448e-019 1.950932e-001
      outer loop
         vertex 5.100000e+002 6.348977e+001 3.518177e+002
         vertex 5.100000e+002 5.574897e+002 3.518177e+002
         vertex 5.093910e+002 5.574897e+002 3.548792e+002
      endloop
   endfacet
   facet normal 9.626359e-001 1.914851e-001 1.914825e-001
      outer loop
         vertex 5.088284e+002 5.603182e+002 3.548792e+002
         vertex 5.100000e+002 5.574897e+002 3.518177e+002
         vertex 5.093910e+002 5.605512e+002 3.518177e+002
      endloop
   endfacet
   facet normal 8.160918e-001 5.452735e-001 1.914968e-001
      outer loop
         vertex 5.072262e+002 5.627160e+002 3.548792e+002
         vertex 5.093910e+002 5.605512e+002 3.518177e+002
         vertex 5.076569e+002 5.631467e+002 3.518177e+002
      endloop
   endfacet
   facet normal 5.452779e-001 8.160937e-001 1.914762e-001
      outer loop
         vertex 5.048285e+002 5.643182e+002 3.548792e+002
         vertex 5.076569e+002 5.631467e+002 3.518177e+002
         vertex 5.050615e+002 5.648808e+002 3.518177e+002
      endloop
   endfacet
   facet normal 1.914743e-001 9.626397e-001 1.914743e-001
      outer loop
         vertex 5.020000e+002 5.648808e+002 3.548792e+002
         vertex 5.050615e+002 5.648808e+002 3.518177e+002
         vertex 5.020000e+002 5.654897e+002 3.518177e+002
      endloop
   endfacet
   facet normal -9.807855e-001 2.168448e-019 1.950894e-001
      outer loop
         vertex 1.421319e-014 5.574897e+002 3.518177e+002
         vertex 1.410813e-014 6.348977e+001 3.518177e+002
         vertex 6.089658e-001 6.348977e+001 3.548792e+002
      endloop
   endfacet
   facet normal -9.626375e-001 -1.914812e-001 1.914787e-001
      outer loop
         vertex 1.171574e+000 6.066135e+001 3.548792e+002
         vertex 1.409463e-014 6.348977e+001 3.518177e+002
         vertex 6.089658e-001 6.042831e+001 3.518177e+002
      endloop
   endfacet
   facet normal -8.160846e-001 -5.452904e-001 1.914791e-001
      outer loop
         vertex 2.773751e+000 5.826352e+001 3.548792e+002
         vertex 6.089658e-001 6.042831e+001 3.518177e+002
         vertex 2.343148e+000 5.783292e+001 3.518177e+002
      endloop
   endfacet
   facet normal -5.452908e-001 -8.160844e-001 1.914791e-001
      outer loop
         vertex 5.171575e+000 5.666135e+001 3.548792e+002
         vertex 2.343148e+000 5.783292e+001 3.518177e+002
         vertex 4.938535e+000 5.609874e+001 3.518177e+002
      endloop
   endfacet
   facet normal -1.914793e-001 -9.626381e-001 1.914776e-001
      outer loop
         vertex 8.000001e+000 5.609874e+001 3.548792e+002
         vertex 4.938535e+000 5.609874e+001 3.518177e+002
         vertex 8.000001e+000 5.548978e+001 3.518177e+002
      endloop
   endfacet
   facet normal 2.168448e-019 9.807866e-001 1.950839e-001
      outer loop
         vertex 5.020000e+002 5.654897e+002 3.518177e+002
         vertex 8.000001e+000 5.654897e+002 3.518177e+002
         vertex 8.000001e+000 5.648808e+002 3.548792e+002
      endloop
   endfacet
   facet normal -1.914757e-001 9.626378e-001 1.914826e-001
      outer loop
         vertex 5.171575e+000 5.643182e+002 3.548792e+002
         vertex 8.000001e+000 5.654897e+002 3.518177e+002
         vertex 4.938535e+000 5.648808e+002 3.518177e+002
      endloop
   endfacet
   facet normal -5.452775e-001 8.160897e-001 1.914943e-001
      outer loop
         vertex 2.773751e+000 5.627160e+002 3.548792e+002
         vertex 4.938535e+000 5.648808e+002 3.518177e+002
         vertex 2.343148e+000 5.631467e+002 3.518177e+002
      endloop
   endfacet
   facet normal -8.160919e-001 5.452801e-001 1.914778e-001
      outer loop
         vertex 1.171574e+000 5.603182e+002 3.548792e+002
         vertex 2.343148e+000 5.631467e+002 3.518177e+002
         vertex 6.089658e-001 5.605512e+002 3.518177e+002
      endloop
   endfacet
   facet normal -9.626372e-001 1.914814e-001 1.914795e-001
      outer loop
         vertex 6.089658e-001 5.574897e+002 3.548792e+002
         vertex 6.089658e-001 5.605512e+002 3.518177e+002
         vertex 2.168404e-016 5.574897e+002 3.518177e+002
      endloop
   endfacet
   facet normal 0.000000e+000 -9.807855e-001 -1.950892e-001
      outer loop
         vertex 8.000001e+000 5.609874e+001 3.487562e+002
         vertex 5.020000e+002 5.548978e+001 3.518177e+002
         vertex 8.000001e+000 5.548978e+001 3.518177e+002
      endloop
   endfacet
   facet normal 1.914776e-001 -9.626381e-001 -1.914795e-001
      outer loop
         vertex 5.020000e+002 5.609874e+001 3.487562e+002
         vertex 5.050615e+002 5.609874e+001 3.518177e+002
         vertex 5.020000e+002 5.548978e+001 3.518177e+002
      endloop
   endfacet
   facet normal 5.452898e-001 -8.160862e-001 -1.914746e-001
      outer loop
         vertex 5.048285e+002 5.666135e+001 3.487562e+002
         vertex 5.076569e+002 5.783292e+001 3.518177e+002
         vertex 5.050615e+002 5.609874e+001 3.518177e+002
      endloop
   endfacet
   facet normal 8.160861e-001 -5.452849e-001 -1.914887e-001
      outer loop
         vertex 5.072262e+002 5.826352e+001 3.487562e+002
         vertex 5.093910e+002 6.042831e+001 3.518177e+002
         vertex 5.076569e+002 5.783292e+001 3.518177e+002
      endloop
   endfacet
   facet normal 9.626355e-001 -1.914848e-001 -1.914848e-001
      outer loop
         vertex 5.100000e+002 6.348977e+001 3.518177e+002
         vertex 5.093910e+002 6.042831e+001 3.518177e+002
         vertex 5.088284e+002 6.066135e+001 3.487562e+002
      endloop
   endfacet
   facet normal 9.626355e-001 -1.914846e-001 -1.914850e-001
      outer loop
         vertex 5.100000e+002 6.348977e+001 3.518177e+002
         vertex 5.088284e+002 6.066135e+001 3.487562e+002
         vertex 5.093910e+002 6.348977e+001 3.487562e+002
      endloop
   endfacet
   facet normal 9.807844e-001 0.000000e+000 -1.950951e-001
      outer loop
         vertex 5.093910e+002 6.348977e+001 3.487562e+002
         vertex 5.100000e+002 5.574897e+002 3.518177e+002
         vertex 5.100000e+002 6.348977e+001 3.518177e+002
      endloop
   endfacet
   facet normal 9.626355e-001 1.914850e-001 -1.914850e-001
      outer loop
         vertex 5.093910e+002 5.574897e+002 3.487562e+002
         vertex 5.093910e+002 5.605512e+002 3.518177e+002
         vertex 5.100000e+002 5.574897e+002 3.518177e+002
      endloop
   endfacet
   facet normal 8.160940e-001 5.452750e-001 -1.914834e-001
      outer loop
         vertex 5.088284e+002 5.603182e+002 3.487562e+002
         vertex 5.076569e+002 5.631467e+002 3.518177e+002
         vertex 5.093910e+002 5.605512e+002 3.518177e+002
      endloop
   endfacet
   facet normal 5.452752e-001 8.160896e-001 -1.915014e-001
      outer loop
         vertex 5.072262e+002 5.627160e+002 3.487562e+002
         vertex 5.050615e+002 5.648808e+002 3.518177e+002
         vertex 5.076569e+002 5.631467e+002 3.518177e+002
      endloop
   endfacet
   facet normal 1.914740e-001 9.626383e-001 -1.914821e-001
      outer loop
         vertex 5.020000e+002 5.654897e+002 3.518177e+002
         vertex 5.050615e+002 5.648808e+002 3.518177e+002
         vertex 5.048285e+002 5.643182e+002 3.487562e+002
      endloop
   endfacet
   facet normal -9.807851e-001 0.000000e+000 -1.950913e-001
      outer loop
         vertex 6.089658e-001 5.574897e+002 3.487562e+002
         vertex 2.168404e-016 6.348977e+001 3.518177e+002
         vertex 2.168404e-016 5.574897e+002 3.518177e+002
      endloop
   endfacet
   facet normal -1.914810e-001 -9.626374e-001 -1.914794e-001
      outer loop
         vertex 8.000001e+000 5.548978e+001 3.518177e+002
         vertex 5.171575e+000 5.666135e+001 3.487562e+002
         vertex 8.000001e+000 5.609874e+001 3.487562e+002
      endloop
   endfacet
   facet normal -9.626369e-001 -1.914811e-001 -1.914813e-001
      outer loop
         vertex 6.089658e-001 6.348977e+001 3.487562e+002
         vertex 6.089658e-001 6.042831e+001 3.518177e+002
         vertex 2.623769e-014 6.348977e+001 3.518177e+002
      endloop
   endfacet
   facet normal -8.160844e-001 -5.452903e-001 -1.914804e-001
      outer loop
         vertex 1.171574e+000 6.066135e+001 3.487562e+002
         vertex 2.343148e+000 5.783292e+001 3.518177e+002
         vertex 6.089658e-001 6.042831e+001 3.518177e+002
      endloop
   endfacet
   facet normal -5.452906e-001 -8.160841e-001 -1.914809e-001
      outer loop
         vertex 2.773751e+000 5.826352e+001 3.487562e+002
         vertex 4.938535e+000 5.609874e+001 3.518177e+002
         vertex 2.343148e+000 5.783292e+001 3.518177e+002
      endloop
   endfacet
   facet normal -1.914792e-001 -9.626374e-001 -1.914811e-001
      outer loop
         vertex 8.000001e+000 5.548978e+001 3.518177e+002
         vertex 4.938535e+000 5.609874e+001 3.518177e+002
         vertex 5.171575e+000 5.666135e+001 3.487562e+002
      endloop
   endfacet
   facet normal 1.914807e-001 9.626381e-001 -1.914759e-001
      outer loop
         vertex 5.020000e+002 5.654897e+002 3.518177e+002
         vertex 5.048285e+002 5.643182e+002 3.487562e+002
         vertex 5.020000e+002 5.648808e+002 3.487562e+002
      endloop
   endfacet
   facet normal 0.000000e+000 9.807862e-001 -1.950857e-001
      outer loop
         vertex 5.020000e+002 5.648808e+002 3.487562e+002
         vertex 8.000001e+000 5.654897e+002 3.518177e+002
         vertex 5.020000e+002 5.654897e+002 3.518177e+002
      endloop
   endfacet
   facet normal -9.626372e-001 1.914799e-001 -1.914814e-001
      outer loop
         vertex 1.409463e-014 5.574897e+002 3.518177e+002
         vertex 1.171574e+000 5.603182e+002 3.487562e+002
         vertex 6.089658e-001 5.574897e+002 3.487562e+002
      endloop
   endfacet
   facet normal -1.914759e-001 9.626390e-001 -1.914761e-001
      outer loop
         vertex 8.000001e+000 5.648808e+002 3.487562e+002
         vertex 4.938535e+000 5.648808e+002 3.518177e+002
         vertex 8.000001e+000 5.654897e+002 3.518177e+002
      endloop
   endfacet
   facet normal -5.452786e-001 8.160913e-001 -1.914844e-001
      outer loop
         vertex 5.171575e+000 5.643182e+002 3.487562e+002
         vertex 2.343148e+000 5.631467e+002 3.518177e+002
         vertex 4.938535e+000 5.648808e+002 3.518177e+002
      endloop
   endfacet
   facet normal -8.160898e-001 5.452786e-001 -1.914909e-001
      outer loop
         vertex 2.773751e+000 5.627160e+002 3.487562e+002
         vertex 6.089658e-001 5.605512e+002 3.518177e+002
         vertex 2.343148e+000 5.631467e+002 3.518177e+002
      endloop
   endfacet
   facet normal -9.626371e-001 1.914814e-001 -1.914800e-001
      outer loop
         vertex -1.366095e-014 5.574897e+002 3.518177e+002
         vertex 6.089658e-001 5.605512e+002 3.518177e+002
         vertex 1.171574e+000 5.603182e+002 3.487562e+002
      endloop
   endfacet
   facet normal 2.168448e-019 -9.807855e-001 -1.950892e-001
      outer loop
         vertex 8.000001e+000 5.609874e+001 3.487562e+002
         vertex 5.020000e+002 5.609874e+001 3.487562e+002
         vertex 5.020000e+002 5.548978e+001 3.518177e+002
      endloop
   endfacet
   facet normal 1.914768e-001 -9.626383e-001 -1.914787e-001
      outer loop
         vertex 5.020000e+002 5.609874e+001 3.487562e+002
         vertex 5.048285e+002 5.666135e+001 3.487562e+002
         vertex 5.050615e+002 5.609874e+001 3.518177e+002
      endloop
   endfacet
   facet normal 5.452991e-001 -8.160771e-001 -1.914867e-001
      outer loop
         vertex 5.048285e+002 5.666135e+001 3.487562e+002
         vertex 5.072262e+002 5.826352e+001 3.487562e+002
         vertex 5.076569e+002 5.783292e+001 3.518177e+002
      endloop
   endfacet
   facet normal 8.160841e-001 -5.452895e-001 -1.914840e-001
      outer loop
         vertex 5.072262e+002 5.826352e+001 3.487562e+002
         vertex 5.088284e+002 6.066135e+001 3.487562e+002
         vertex 5.093910e+002 6.042831e+001 3.518177e+002
      endloop
   endfacet
   facet normal 8.203234e-001 -1.631763e-001 -5.481269e-001
      outer loop
         vertex 5.093910e+002 6.348977e+001 3.487562e+002
         vertex 5.088284e+002 6.066135e+001 3.487562e+002
         vertex 5.072262e+002 6.132499e+001 3.461609e+002
      endloop
   endfacet
   facet normal 9.807844e-001 2.168448e-019 -1.950951e-001
      outer loop
         vertex 5.093910e+002 6.348977e+001 3.487562e+002
         vertex 5.093910e+002 5.574897e+002 3.487562e+002
         vertex 5.100000e+002 5.574897e+002 3.518177e+002
      endloop
   endfacet
   facet normal 9.626357e-001 1.914843e-001 -1.914843e-001
      outer loop
         vertex 5.093910e+002 5.574897e+002 3.487562e+002
         vertex 5.088284e+002 5.603182e+002 3.487562e+002
         vertex 5.093910e+002 5.605512e+002 3.518177e+002
      endloop
   endfacet
   facet normal 8.160821e-001 5.452873e-001 -1.914993e-001
      outer loop
         vertex 5.088284e+002 5.603182e+002 3.487562e+002
         vertex 5.072262e+002 5.627160e+002 3.487562e+002
         vertex 5.076569e+002 5.631467e+002 3.518177e+002
      endloop
   endfacet
   facet normal 5.452992e-001 8.160792e-001 -1.914771e-001
      outer loop
         vertex 5.072262e+002 5.627160e+002 3.487562e+002
         vertex 5.048285e+002 5.643182e+002 3.487562e+002
         vertex 5.050615e+002 5.648808e+002 3.518177e+002
      endloop
   endfacet
   facet normal -9.807851e-001 -2.168448e-019 -1.950913e-001
      outer loop
         vertex 6.089658e-001 5.574897e+002 3.487562e+002
         vertex 6.089658e-001 6.348977e+001 3.487562e+002
         vertex -5.530781e-014 6.348977e+001 3.518177e+002
      endloop
   endfacet
   facet normal -1.631730e-001 -8.203237e-001 -5.481274e-001
      outer loop
         vertex 8.000001e+000 5.609874e+001 3.487562e+002
         vertex 5.171575e+000 5.666135e+001 3.487562e+002
         vertex 5.835217e+000 5.826352e+001 3.461609e+002
      endloop
   endfacet
   facet normal -9.626373e-001 -1.914802e-001 -1.914805e-001
      outer loop
         vertex 6.089658e-001 6.348977e+001 3.487562e+002
         vertex 1.171574e+000 6.066135e+001 3.487562e+002
         vertex 6.089658e-001 6.042831e+001 3.518177e+002
      endloop
   endfacet
   facet normal -8.160841e-001 -5.452906e-001 -1.914809e-001
      outer loop
         vertex 1.171574e+000 6.066135e+001 3.487562e+002
         vertex 2.773751e+000 5.826352e+001 3.487562e+002
         vertex 2.343148e+000 5.783292e+001 3.518177e+002
      endloop
   endfacet
   facet normal -5.452906e-001 -8.160841e-001 -1.914809e-001
      outer loop
         vertex 2.773751e+000 5.826352e+001 3.487562e+002
         vertex 5.171575e+000 5.666135e+001 3.487562e+002
         vertex 4.938535e+000 5.609874e+001 3.518177e+002
      endloop
   endfacet
   facet normal 1.631728e-001 8.203246e-001 -5.481262e-001
      outer loop
         vertex 5.020000e+002 5.648808e+002 3.487562e+002
         vertex 5.048285e+002 5.643182e+002 3.487562e+002
         vertex 5.041648e+002 5.627160e+002 3.461609e+002
      endloop
   endfacet
   facet normal -2.168448e-019 9.807862e-001 -1.950857e-001
      outer loop
         vertex 5.020000e+002 5.648808e+002 3.487562e+002
         vertex 8.000001e+000 5.648808e+002 3.487562e+002
         vertex 8.000001e+000 5.654897e+002 3.518177e+002
      endloop
   endfacet
   facet normal -8.203241e-001 1.631722e-001 -5.481270e-001
      outer loop
         vertex 6.089658e-001 5.574897e+002 3.487562e+002
         vertex 1.171574e+000 5.603182e+002 3.487562e+002
         vertex 2.773751e+000 5.596545e+002 3.461609e+002
      endloop
   endfacet
   facet normal -1.914846e-001 9.626356e-001 -1.914848e-001
      outer loop
         vertex 8.000001e+000 5.648808e+002 3.487562e+002
         vertex 5.171575e+000 5.643182e+002 3.487562e+002
         vertex 4.938535e+000 5.648808e+002 3.518177e+002
      endloop
   endfacet
   facet normal -5.452880e-001 8.160822e-001 -1.914966e-001
      outer loop
         vertex 5.171575e+000 5.643182e+002 3.487562e+002
         vertex 2.773751e+000 5.627160e+002 3.487562e+002
         vertex 2.343148e+000 5.631467e+002 3.518177e+002
      endloop
   endfacet
   facet normal -8.160847e-001 5.452903e-001 -1.914791e-001
      outer loop
         vertex 2.773751e+000 5.627160e+002 3.487562e+002
         vertex 1.171574e+000 5.603182e+002 3.487562e+002
         vertex 6.089658e-001 5.605512e+002 3.518177e+002
      endloop
   endfacet
   facet normal -1.631728e-001 -8.203236e-001 -5.481275e-001
      outer loop
         vertex 8.000001e+000 5.609874e+001 3.487562e+002
         vertex 5.835217e+000 5.826352e+001 3.461609e+002
         vertex 8.000001e+000 5.783292e+001 3.461609e+002
      endloop
   endfacet
   facet normal 0.000000e+000 -8.314674e-001 -5.555736e-001
      outer loop
         vertex 8.000001e+000 5.783292e+001 3.461609e+002
         vertex 5.020000e+002 5.609874e+001 3.487562e+002
         vertex 8.000001e+000 5.609874e+001 3.487562e+002
      endloop
   endfacet
   facet normal 6.954366e-001 -4.646777e-001 -5.481265e-001
      outer loop
         vertex 5.060000e+002 5.948977e+001 3.461609e+002
         vertex 5.072262e+002 6.132499e+001 3.461609e+002
         vertex 5.088284e+002 6.066135e+001 3.487562e+002
      endloop
   endfacet
   facet normal 1.631693e-001 -8.203241e-001 -5.481278e-001
      outer loop
         vertex 5.020000e+002 5.783292e+001 3.461609e+002
         vertex 5.048285e+002 5.666135e+001 3.487562e+002
         vertex 5.020000e+002 5.609874e+001 3.487562e+002
      endloop
   endfacet
   facet normal 4.646849e-001 -6.954325e-001 -5.481256e-001
      outer loop
         vertex 5.041648e+002 5.826352e+001 3.461609e+002
         vertex 5.072262e+002 5.826352e+001 3.487562e+002
         vertex 5.048285e+002 5.666135e+001 3.487562e+002
      endloop
   endfacet
   facet normal 6.954369e-001 -4.646757e-001 -5.481278e-001
      outer loop
         vertex 5.060000e+002 5.948977e+001 3.461609e+002
         vertex 5.088284e+002 6.066135e+001 3.487562e+002
         vertex 5.072262e+002 5.826352e+001 3.487562e+002
      endloop
   endfacet
   facet normal 8.203253e-001 -1.631847e-001 -5.481215e-001
      outer loop
         vertex 5.093910e+002 6.348977e+001 3.487562e+002
         vertex 5.072262e+002 6.132499e+001 3.461609e+002
         vertex 5.076569e+002 6.348977e+001 3.461609e+002
      endloop
   endfacet
   facet normal 8.314708e-001 0.000000e+000 -5.555686e-001
      outer loop
         vertex 5.076569e+002 6.348977e+001 3.461609e+002
         vertex 5.093910e+002 5.574897e+002 3.487562e+002
         vertex 5.093910e+002 6.348977e+001 3.487562e+002
      endloop
   endfacet
   facet normal 4.646913e-001 6.954294e-001 -5.481241e-001
      outer loop
         vertex 5.060000e+002 5.614897e+002 3.461609e+002
         vertex 5.041648e+002 5.627160e+002 3.461609e+002
         vertex 5.048285e+002 5.643182e+002 3.487562e+002
      endloop
   endfacet
   facet normal 8.203265e-001 1.631767e-001 -5.481222e-001
      outer loop
         vertex 5.076569e+002 5.574897e+002 3.461609e+002
         vertex 5.088284e+002 5.603182e+002 3.487562e+002
         vertex 5.093910e+002 5.574897e+002 3.487562e+002
      endloop
   endfacet
   facet normal 6.954383e-001 4.646759e-001 -5.481257e-001
      outer loop
         vertex 5.072262e+002 5.596545e+002 3.461609e+002
         vertex 5.072262e+002 5.627160e+002 3.487562e+002
         vertex 5.088284e+002 5.603182e+002 3.487562e+002
      endloop
   endfacet
   facet normal 4.646827e-001 6.954308e-001 -5.481296e-001
      outer loop
         vertex 5.060000e+002 5.614897e+002 3.461609e+002
         vertex 5.048285e+002 5.643182e+002 3.487562e+002
         vertex 5.072262e+002 5.627160e+002 3.487562e+002
      endloop
   endfacet
   facet normal -8.203241e-001 1.631719e-001 -5.481272e-001
      outer loop
         vertex 6.089658e-001 5.574897e+002 3.487562e+002
         vertex 2.773751e+000 5.596545e+002 3.461609e+002
         vertex 2.343148e+000 5.574897e+002 3.461609e+002
      endloop
   endfacet
   facet normal -8.314677e-001 0.000000e+000 -5.555732e-001
      outer loop
         vertex 2.343148e+000 5.574897e+002 3.461609e+002
         vertex 6.089658e-001 6.348977e+001 3.487562e+002
         vertex 6.089658e-001 5.574897e+002 3.487562e+002
      endloop
   endfacet
   facet normal -4.646755e-001 -6.954374e-001 -5.481273e-001
      outer loop
         vertex 4.000000e+000 5.948977e+001 3.461609e+002
         vertex 5.835217e+000 5.826352e+001 3.461609e+002
         vertex 5.171575e+000 5.666135e+001 3.487562e+002
      endloop
   endfacet
   facet normal -8.203240e-001 -1.631724e-001 -5.481271e-001
      outer loop
         vertex 2.343148e+000 6.348977e+001 3.461609e+002
         vertex 1.171574e+000 6.066135e+001 3.487562e+002
         vertex 6.089658e-001 6.348977e+001 3.487562e+002
      endloop
   endfacet
   facet normal -6.954367e-001 -4.646766e-001 -5.481273e-001
      outer loop
         vertex 2.773751e+000 6.132499e+001 3.461609e+002
         vertex 2.773751e+000 5.826352e+001 3.487562e+002
         vertex 1.171574e+000 6.066135e+001 3.487562e+002
      endloop
   endfacet
   facet normal -4.646768e-001 -6.954372e-001 -5.481265e-001
      outer loop
         vertex 4.000000e+000 5.948977e+001 3.461609e+002
         vertex 5.171575e+000 5.666135e+001 3.487562e+002
         vertex 2.773751e+000 5.826352e+001 3.487562e+002
      endloop
   endfacet
   facet normal 1.631915e-001 8.203289e-001 -5.481141e-001
      outer loop
         vertex 5.020000e+002 5.648808e+002 3.487562e+002
         vertex 5.041648e+002 5.627160e+002 3.461609e+002
         vertex 5.020000e+002 5.631467e+002 3.461609e+002
      endloop
   endfacet
   facet normal 0.000000e+000 8.314753e-001 -5.555618e-001
      outer loop
         vertex 5.020000e+002 5.631467e+002 3.461609e+002
         vertex 8.000001e+000 5.648808e+002 3.487562e+002
         vertex 5.020000e+002 5.648808e+002 3.487562e+002
      endloop
   endfacet
   facet normal -6.954367e-001 4.646778e-001 -5.481262e-001
      outer loop
         vertex 4.000000e+000 5.614897e+002 3.461609e+002
         vertex 2.773751e+000 5.596545e+002 3.461609e+002
         vertex 1.171574e+000 5.603182e+002 3.487562e+002
      endloop
   endfacet
   facet normal -1.631777e-001 8.203308e-001 -5.481154e-001
      outer loop
         vertex 8.000001e+000 5.631467e+002 3.461609e+002
         vertex 5.171575e+000 5.643182e+002 3.487562e+002
         vertex 8.000001e+000 5.648808e+002 3.487562e+002
      endloop
   endfacet
   facet normal -4.646760e-001 6.954377e-001 -5.481266e-001
      outer loop
         vertex 5.835217e+000 5.627160e+002 3.461609e+002
         vertex 2.773751e+000 5.627160e+002 3.487562e+002
         vertex 5.171575e+000 5.643182e+002 3.487562e+002
      endloop
   endfacet
   facet normal -6.954370e-001 4.646761e-001 -5.481274e-001
      outer loop
         vertex 4.000000e+000 5.614897e+002 3.461609e+002
         vertex 1.171574e+000 5.603182e+002 3.487562e+002
         vertex 2.773751e+000 5.627160e+002 3.487562e+002
      endloop
   endfacet
   facet normal -1.098417e-001 -5.522109e-001 -8.264369e-001
      outer loop
         vertex 8.000001e+000 5.783292e+001 3.461609e+002
         vertex 5.835217e+000 5.826352e+001 3.461609e+002
         vertex 6.828427e+000 6.066135e+001 3.444267e+002
      endloop
   endfacet
   facet normal 4.336895e-019 -8.314674e-001 -5.555736e-001
      outer loop
         vertex 8.000001e+000 5.783292e+001 3.461609e+002
         vertex 5.020000e+002 5.783292e+001 3.461609e+002
         vertex 5.020000e+002 5.609874e+001 3.487562e+002
      endloop
   endfacet
   facet normal 4.681484e-001 -3.128080e-001 -8.264310e-001
      outer loop
         vertex 5.041648e+002 6.132499e+001 3.444267e+002
         vertex 5.072262e+002 6.132499e+001 3.461609e+002
         vertex 5.060000e+002 5.948977e+001 3.461609e+002
      endloop
   endfacet
   facet normal 1.631677e-001 -8.203253e-001 -5.481266e-001
      outer loop
         vertex 5.020000e+002 5.783292e+001 3.461609e+002
         vertex 5.041648e+002 5.826352e+001 3.461609e+002
         vertex 5.048285e+002 5.666135e+001 3.487562e+002
      endloop
   endfacet
   facet normal 4.646876e-001 -6.954283e-001 -5.481287e-001
      outer loop
         vertex 5.041648e+002 5.826352e+001 3.461609e+002
         vertex 5.060000e+002 5.948977e+001 3.461609e+002
         vertex 5.072262e+002 5.826352e+001 3.487562e+002
      endloop
   endfacet
   facet normal 4.681492e-001 -3.128031e-001 -8.264325e-001
      outer loop
         vertex 5.048285e+002 6.231820e+001 3.444267e+002
         vertex 5.072262e+002 6.132499e+001 3.461609e+002
         vertex 5.041648e+002 6.132499e+001 3.444267e+002
      endloop
   endfacet
   facet normal 5.522166e-001 -1.098507e-001 -8.264319e-001
      outer loop
         vertex 5.076569e+002 6.348977e+001 3.461609e+002
         vertex 5.072262e+002 6.132499e+001 3.461609e+002
         vertex 5.048285e+002 6.231820e+001 3.444267e+002
      endloop
   endfacet
   facet normal 8.314708e-001 0.000000e+000 -5.555686e-001
      outer loop
         vertex 5.076569e+002 6.348977e+001 3.461609e+002
         vertex 5.076569e+002 5.574897e+002 3.461609e+002
         vertex 5.093910e+002 5.574897e+002 3.487562e+002
      endloop
   endfacet
   facet normal 3.128149e-001 4.681402e-001 -8.264331e-001
      outer loop
         vertex 5.041648e+002 5.596545e+002 3.444267e+002
         vertex 5.041648e+002 5.627160e+002 3.461609e+002
         vertex 5.060000e+002 5.614897e+002 3.461609e+002
      endloop
   endfacet
   facet normal 8.203218e-001 1.631832e-001 -5.481272e-001
      outer loop
         vertex 5.076569e+002 5.574897e+002 3.461609e+002
         vertex 5.072262e+002 5.596545e+002 3.461609e+002
         vertex 5.088284e+002 5.603182e+002 3.487562e+002
      endloop
   endfacet
   facet normal 6.954338e-001 4.646787e-001 -5.481291e-001
      outer loop
         vertex 5.072262e+002 5.596545e+002 3.461609e+002
         vertex 5.060000e+002 5.614897e+002 3.461609e+002
         vertex 5.072262e+002 5.627160e+002 3.487562e+002
      endloop
   endfacet
   facet normal -5.522106e-001 1.098410e-001 -8.264372e-001
      outer loop
         vertex 2.343148e+000 5.574897e+002 3.461609e+002
         vertex 2.773751e+000 5.596545e+002 3.461609e+002
         vertex 5.171575e+000 5.586613e+002 3.444267e+002
      endloop
   endfacet
   facet normal -8.314677e-001 0.000000e+000 -5.555732e-001
      outer loop
         vertex 2.343148e+000 5.574897e+002 3.461609e+002
         vertex 2.343148e+000 6.348977e+001 3.461609e+002
         vertex 6.089658e-001 6.348977e+001 3.487562e+002
      endloop
   endfacet
   facet normal -3.128026e-001 -4.681417e-001 -8.264369e-001
      outer loop
         vertex 6.828427e+000 6.066135e+001 3.444267e+002
         vertex 5.835217e+000 5.826352e+001 3.461609e+002
         vertex 5.835217e+000 6.132499e+001 3.444267e+002
      endloop
   endfacet
   facet normal -3.128018e-001 -4.681419e-001 -8.264371e-001
      outer loop
         vertex 5.835217e+000 6.132499e+001 3.444267e+002
         vertex 5.835217e+000 5.826352e+001 3.461609e+002
         vertex 4.000000e+000 5.948977e+001 3.461609e+002
      endloop
   endfacet
   facet normal -8.203238e-001 -1.631727e-001 -5.481274e-001
      outer loop
         vertex 2.343148e+000 6.348977e+001 3.461609e+002
         vertex 2.773751e+000 6.132499e+001 3.461609e+002
         vertex 1.171574e+000 6.066135e+001 3.487562e+002
      endloop
   endfacet
   facet normal -6.954379e-001 -4.646758e-001 -5.481263e-001
      outer loop
         vertex 2.773751e+000 6.132499e+001 3.461609e+002
         vertex 4.000000e+000 5.948977e+001 3.461609e+002
         vertex 2.773751e+000 5.826352e+001 3.487562e+002
      endloop
   endfacet
   facet normal 3.127869e-001 4.681447e-001 -8.264411e-001
      outer loop
         vertex 5.031716e+002 5.603182e+002 3.444267e+002
         vertex 5.041648e+002 5.627160e+002 3.461609e+002
         vertex 5.041648e+002 5.596545e+002 3.444267e+002
      endloop
   endfacet
   facet normal 1.098526e-001 5.522053e-001 -8.264393e-001
      outer loop
         vertex 5.020000e+002 5.631467e+002 3.461609e+002
         vertex 5.041648e+002 5.627160e+002 3.461609e+002
         vertex 5.031716e+002 5.603182e+002 3.444267e+002
      endloop
   endfacet
   facet normal 4.336895e-019 8.314753e-001 -5.555618e-001
      outer loop
         vertex 5.020000e+002 5.631467e+002 3.461609e+002
         vertex 8.000001e+000 5.631467e+002 3.461609e+002
         vertex 8.000001e+000 5.648808e+002 3.487562e+002
      endloop
   endfacet
   facet normal -4.681425e-001 3.127981e-001 -8.264381e-001
      outer loop
         vertex 5.171575e+000 5.586613e+002 3.444267e+002
         vertex 2.773751e+000 5.596545e+002 3.461609e+002
         vertex 5.835217e+000 5.596545e+002 3.444267e+002
      endloop
   endfacet
   facet normal -4.681416e-001 3.128035e-001 -8.264366e-001
      outer loop
         vertex 5.835217e+000 5.596545e+002 3.444267e+002
         vertex 2.773751e+000 5.596545e+002 3.461609e+002
         vertex 4.000000e+000 5.614897e+002 3.461609e+002
      endloop
   endfacet
   facet normal -1.631949e-001 8.203186e-001 -5.481286e-001
      outer loop
         vertex 8.000001e+000 5.631467e+002 3.461609e+002
         vertex 5.835217e+000 5.627160e+002 3.461609e+002
         vertex 5.171575e+000 5.643182e+002 3.487562e+002
      endloop
   endfacet
   facet normal -4.646772e-001 6.954357e-001 -5.481280e-001
      outer loop
         vertex 5.835217e+000 5.627160e+002 3.461609e+002
         vertex 4.000000e+000 5.614897e+002 3.461609e+002
         vertex 2.773751e+000 5.627160e+002 3.487562e+002
      endloop
   endfacet
   facet normal -1.098413e-001 -5.522107e-001 -8.264371e-001
      outer loop
         vertex 6.828427e+000 6.066135e+001 3.444267e+002
         vertex 8.000001e+000 6.042831e+001 3.444267e+002
         vertex 8.000001e+000 5.783292e+001 3.461609e+002
      endloop
   endfacet
   facet normal 0.000000e+000 -5.555725e-001 -8.314682e-001
      outer loop
         vertex 8.000001e+000 6.042831e+001 3.444267e+002
         vertex 5.020000e+002 5.783292e+001 3.461609e+002
         vertex 8.000001e+000 5.783292e+001 3.461609e+002
      endloop
   endfacet
   facet normal 3.127969e-001 -4.681543e-001 -8.264320e-001
      outer loop
         vertex 5.031716e+002 6.066135e+001 3.444267e+002
         vertex 5.041648e+002 6.132499e+001 3.444267e+002
         vertex 5.060000e+002 5.948977e+001 3.461609e+002
      endloop
   endfacet
   facet normal 1.098381e-001 -5.522110e-001 -8.264373e-001
      outer loop
         vertex 5.020000e+002 6.042831e+001 3.444267e+002
         vertex 5.041648e+002 5.826352e+001 3.461609e+002
         vertex 5.020000e+002 5.783292e+001 3.461609e+002
      endloop
   endfacet
   facet normal 3.128091e-001 -4.681344e-001 -8.264386e-001
      outer loop
         vertex 5.031716e+002 6.066135e+001 3.444267e+002
         vertex 5.060000e+002 5.948977e+001 3.461609e+002
         vertex 5.041648e+002 5.826352e+001 3.461609e+002
      endloop
   endfacet
   facet normal 1.652588e-001 -1.104209e-001 -9.800494e-001
      outer loop
         vertex 5.048285e+002 6.231820e+001 3.444267e+002
         vertex 5.041648e+002 6.132499e+001 3.444267e+002
         vertex 5.020000e+002 6.348977e+001 3.438177e+002
      endloop
   endfacet
   facet normal 5.522102e-001 -1.098235e-001 -8.264398e-001
      outer loop
         vertex 5.048285e+002 6.231820e+001 3.444267e+002
         vertex 5.050615e+002 6.348977e+001 3.444267e+002
         vertex 5.076569e+002 6.348977e+001 3.461609e+002
      endloop
   endfacet
   facet normal 5.555708e-001 0.000000e+000 -8.314692e-001
      outer loop
         vertex 5.050615e+002 6.348977e+001 3.444267e+002
         vertex 5.076569e+002 5.574897e+002 3.461609e+002
         vertex 5.076569e+002 6.348977e+001 3.461609e+002
      endloop
   endfacet
   facet normal 4.681542e-001 3.128028e-001 -8.264297e-001
      outer loop
         vertex 5.048285e+002 5.586613e+002 3.444267e+002
         vertex 5.041648e+002 5.596545e+002 3.444267e+002
         vertex 5.060000e+002 5.614897e+002 3.461609e+002
      endloop
   endfacet
   facet normal 5.522087e-001 1.098485e-001 -8.264375e-001
      outer loop
         vertex 5.050615e+002 5.574897e+002 3.444267e+002
         vertex 5.072262e+002 5.596545e+002 3.461609e+002
         vertex 5.076569e+002 5.574897e+002 3.461609e+002
      endloop
   endfacet
   facet normal 4.681456e-001 3.128081e-001 -8.264325e-001
      outer loop
         vertex 5.048285e+002 5.586613e+002 3.444267e+002
         vertex 5.060000e+002 5.614897e+002 3.461609e+002
         vertex 5.072262e+002 5.596545e+002 3.461609e+002
      endloop
   endfacet
   facet normal -5.522106e-001 1.098414e-001 -8.264371e-001
      outer loop
         vertex 5.171575e+000 5.586613e+002 3.444267e+002
         vertex 4.938535e+000 5.574897e+002 3.444267e+002
         vertex 2.343148e+000 5.574897e+002 3.461609e+002
      endloop
   endfacet
   facet normal -5.555724e-001 0.000000e+000 -8.314682e-001
      outer loop
         vertex 4.938535e+000 5.574897e+002 3.444267e+002
         vertex 2.343148e+000 6.348977e+001 3.461609e+002
         vertex 2.343148e+000 5.574897e+002 3.461609e+002
      endloop
   endfacet
   facet normal -1.104240e-001 -1.652610e-001 -9.800487e-001
      outer loop
         vertex 6.828427e+000 6.066135e+001 3.444267e+002
         vertex 5.835217e+000 6.132499e+001 3.444267e+002
         vertex 8.000001e+000 6.348977e+001 3.438177e+002
      endloop
   endfacet
   facet normal -4.681421e-001 -3.128015e-001 -8.264371e-001
      outer loop
         vertex 5.171575e+000 6.231820e+001 3.444267e+002
         vertex 5.835217e+000 6.132499e+001 3.444267e+002
         vertex 4.000000e+000 5.948977e+001 3.461609e+002
      endloop
   endfacet
   facet normal -5.522107e-001 -1.098416e-001 -8.264371e-001
      outer loop
         vertex 4.938535e+000 6.348977e+001 3.444267e+002
         vertex 2.773751e+000 6.132499e+001 3.461609e+002
         vertex 2.343148e+000 6.348977e+001 3.461609e+002
      endloop
   endfacet
   facet normal -4.681418e-001 -3.128017e-001 -8.264372e-001
      outer loop
         vertex 5.171575e+000 6.231820e+001 3.444267e+002
         vertex 4.000000e+000 5.948977e+001 3.461609e+002
         vertex 2.773751e+000 6.132499e+001 3.461609e+002
      endloop
   endfacet
   facet normal 1.104185e-001 1.652621e-001 -9.800491e-001
      outer loop
         vertex 5.031716e+002 5.603182e+002 3.444267e+002
         vertex 5.041648e+002 5.596545e+002 3.444267e+002
         vertex 5.020000e+002 5.574897e+002 3.438177e+002
      endloop
   endfacet
   facet normal 1.098331e-001 5.522006e-001 -8.264449e-001
      outer loop
         vertex 5.031716e+002 5.603182e+002 3.444267e+002
         vertex 5.020000e+002 5.605512e+002 3.444267e+002
         vertex 5.020000e+002 5.631467e+002 3.461609e+002
      endloop
   endfacet
   facet normal 0.000000e+000 5.555617e-001 -8.314753e-001
      outer loop
         vertex 5.020000e+002 5.605512e+002 3.444267e+002
         vertex 8.000001e+000 5.631467e+002 3.461609e+002
         vertex 5.020000e+002 5.631467e+002 3.461609e+002
      endloop
   endfacet
   facet normal -1.652617e-001 1.104227e-001 -9.800487e-001
      outer loop
         vertex 5.171575e+000 5.586613e+002 3.444267e+002
         vertex 5.835217e+000 5.596545e+002 3.444267e+002
         vertex 8.000001e+000 5.574897e+002 3.438177e+002
      endloop
   endfacet
   facet normal -3.128009e-001 4.681446e-001 -8.264359e-001
      outer loop
         vertex 6.828427e+000 5.603182e+002 3.444267e+002
         vertex 5.835217e+000 5.596545e+002 3.444267e+002
         vertex 4.000000e+000 5.614897e+002 3.461609e+002
      endloop
   endfacet
   facet normal -1.098550e-001 5.521992e-001 -8.264429e-001
      outer loop
         vertex 8.000001e+000 5.605512e+002 3.444267e+002
         vertex 5.835217e+000 5.627160e+002 3.461609e+002
         vertex 8.000001e+000 5.631467e+002 3.461609e+002
      endloop
   endfacet
   facet normal -3.128031e-001 4.681410e-001 -8.264372e-001
      outer loop
         vertex 6.828427e+000 5.603182e+002 3.444267e+002
         vertex 4.000000e+000 5.614897e+002 3.461609e+002
         vertex 5.835217e+000 5.627160e+002 3.461609e+002
      endloop
   endfacet
   facet normal -3.877562e-002 -1.949387e-001 -9.800487e-001
      outer loop
         vertex 8.000001e+000 6.348977e+001 3.438177e+002
         vertex 8.000001e+000 6.042831e+001 3.444267e+002
         vertex 6.828427e+000 6.066135e+001 3.444267e+002
      endloop
   endfacet
   facet normal 4.336896e-019 -5.555725e-001 -8.314682e-001
      outer loop
         vertex 8.000001e+000 6.042831e+001 3.444267e+002
         vertex 5.020000e+002 6.042831e+001 3.444267e+002
         vertex 5.020000e+002 5.783292e+001 3.461609e+002
      endloop
   endfacet
   facet normal 1.104196e-001 -1.652619e-001 -9.800490e-001
      outer loop
         vertex 5.020000e+002 6.348977e+001 3.438177e+002
         vertex 5.041648e+002 6.132499e+001 3.444267e+002
         vertex 5.031716e+002 6.066135e+001 3.444267e+002
      endloop
   endfacet
   facet normal 1.098387e-001 -5.522106e-001 -8.264375e-001
      outer loop
         vertex 5.020000e+002 6.042831e+001 3.444267e+002
         vertex 5.031716e+002 6.066135e+001 3.444267e+002
         vertex 5.041648e+002 5.826352e+001 3.461609e+002
      endloop
   endfacet
   facet normal 1.949372e-001 -3.876909e-002 -9.800492e-001
      outer loop
         vertex 5.020000e+002 6.348977e+001 3.438177e+002
         vertex 5.050615e+002 6.348977e+001 3.444267e+002
         vertex 5.048285e+002 6.231820e+001 3.444267e+002
      endloop
   endfacet
   facet normal 5.555708e-001 -4.336895e-019 -8.314692e-001
      outer loop
         vertex 5.050615e+002 6.348977e+001 3.444267e+002
         vertex 5.050615e+002 5.574897e+002 3.444267e+002
         vertex 5.076569e+002 5.574897e+002 3.461609e+002
      endloop
   endfacet
   facet normal 1.652592e-001 1.104199e-001 -9.800494e-001
      outer loop
         vertex 5.020000e+002 5.574897e+002 3.438177e+002
         vertex 5.041648e+002 5.596545e+002 3.444267e+002
         vertex 5.048285e+002 5.586613e+002 3.444267e+002
      endloop
   endfacet
   facet normal 5.522246e-001 1.098264e-001 -8.264298e-001
      outer loop
         vertex 5.050615e+002 5.574897e+002 3.444267e+002
         vertex 5.048285e+002 5.586613e+002 3.444267e+002
         vertex 5.072262e+002 5.596545e+002 3.461609e+002
      endloop
   endfacet
   facet normal -1.949388e-001 3.877568e-002 -9.800487e-001
      outer loop
         vertex 8.000001e+000 5.574897e+002 3.438177e+002
         vertex 4.938535e+000 5.574897e+002 3.444267e+002
         vertex 5.171575e+000 5.586613e+002 3.444267e+002
      endloop
   endfacet
   facet normal -5.555724e-001 0.000000e+000 -8.314682e-001
      outer loop
         vertex 4.938535e+000 5.574897e+002 3.444267e+002
         vertex 4.938535e+000 6.348977e+001 3.444267e+002
         vertex 2.343148e+000 6.348977e+001 3.461609e+002
      endloop
   endfacet
   facet normal -1.652613e-001 -1.104237e-001 -9.800487e-001
      outer loop
         vertex 8.000001e+000 6.348977e+001 3.438177e+002
         vertex 5.835217e+000 6.132499e+001 3.444267e+002
         vertex 5.171575e+000 6.231820e+001 3.444267e+002
      endloop
   endfacet
   facet normal -5.522108e-001 -1.098414e-001 -8.264370e-001
      outer loop
         vertex 4.938535e+000 6.348977e+001 3.444267e+002
         vertex 5.171575e+000 6.231820e+001 3.444267e+002
         vertex 2.773751e+000 6.132499e+001 3.461609e+002
      endloop
   endfacet
   facet normal 3.877353e-002 1.949390e-001 -9.800487e-001
      outer loop
         vertex 5.020000e+002 5.574897e+002 3.438177e+002
         vertex 5.020000e+002 5.605512e+002 3.444267e+002
         vertex 5.031716e+002 5.603182e+002 3.444267e+002
      endloop
   endfacet
   facet normal 0.000000e+000 5.555617e-001 -8.314753e-001
      outer loop
         vertex 5.020000e+002 5.605512e+002 3.444267e+002
         vertex 8.000001e+000 5.605512e+002 3.444267e+002
         vertex 8.000001e+000 5.631467e+002 3.461609e+002
      endloop
   endfacet
   facet normal -1.104229e-001 1.652613e-001 -9.800488e-001
      outer loop
         vertex 8.000001e+000 5.574897e+002 3.438177e+002
         vertex 5.835217e+000 5.596545e+002 3.444267e+002
         vertex 6.828427e+000 5.603182e+002 3.444267e+002
      endloop
   endfacet
   facet normal -1.098378e-001 5.522117e-001 -8.264369e-001
      outer loop
         vertex 8.000001e+000 5.605512e+002 3.444267e+002
         vertex 6.828427e+000 5.603182e+002 3.444267e+002
         vertex 5.835217e+000 5.627160e+002 3.461609e+002
      endloop
   endfacet
   facet normal 0.000000e+000 -1.950855e-001 -9.807863e-001
      outer loop
         vertex 8.000001e+000 6.348977e+001 3.438177e+002
         vertex 5.020000e+002 6.042831e+001 3.444267e+002
         vertex 8.000001e+000 6.042831e+001 3.444267e+002
      endloop
   endfacet
   facet normal 3.877475e-002 -1.949388e-001 -9.800487e-001
      outer loop
         vertex 5.020000e+002 6.348977e+001 3.438177e+002
         vertex 5.031716e+002 6.066135e+001 3.444267e+002
         vertex 5.020000e+002 6.042831e+001 3.444267e+002
      endloop
   endfacet
   facet normal 1.950839e-001 0.000000e+000 -9.807866e-001
      outer loop
         vertex 5.020000e+002 6.348977e+001 3.438177e+002
         vertex 5.050615e+002 5.574897e+002 3.444267e+002
         vertex 5.050615e+002 6.348977e+001 3.444267e+002
      endloop
   endfacet
   facet normal 1.949372e-001 3.876909e-002 -9.800492e-001
      outer loop
         vertex 5.020000e+002 5.574897e+002 3.438177e+002
         vertex 5.048285e+002 5.586613e+002 3.444267e+002
         vertex 5.050615e+002 5.574897e+002 3.444267e+002
      endloop
   endfacet
   facet normal -1.950855e-001 0.000000e+000 -9.807863e-001
      outer loop
         vertex 8.000001e+000 5.574897e+002 3.438177e+002
         vertex 4.938535e+000 6.348977e+001 3.444267e+002
         vertex 4.938535e+000 5.574897e+002 3.444267e+002
      endloop
   endfacet
   facet normal -1.949388e-001 -3.877568e-002 -9.800487e-001
      outer loop
         vertex 8.000001e+000 6.348977e+001 3.438177e+002
         vertex 5.171575e+000 6.231820e+001 3.444267e+002
         vertex 4.938535e+000 6.348977e+001 3.444267e+002
      endloop
   endfacet
   facet normal 0.000000e+000 1.950857e-001 -9.807862e-001
      outer loop
         vertex 5.020000e+002 5.574897e+002 3.438177e+002
         vertex 8.000001e+000 5.605512e+002 3.444267e+002
         vertex 5.020000e+002 5.605512e+002 3.444267e+002
      endloop
   endfacet
   facet normal -3.877440e-002 1.949390e-001 -9.800487e-001
      outer loop
         vertex 8.000001e+000 5.574897e+002 3.438177e+002
         vertex 6.828427e+000 5.603182e+002 3.444267e+002
         vertex 8.000001e+000 5.605512e+002 3.444267e+002
      endloop
   endfacet
   facet normal 0.000000e+000 -1.950855e-001 -9.807863e-001
      outer loop
         vertex 8.000001e+000 6.348977e+001 3.438177e+002
         vertex 5.020000e+002 6.348977e+001 3.438177e+002
         vertex 5.020000e+002 6.042831e+001 3.444267e+002
      endloop
   endfacet
   facet normal 1.950839e-001 -2.168448e-019 -9.807866e-001
      outer loop
         vertex 5.020000e+002 6.348977e+001 3.438177e+002
         vertex 5.020000e+002 5.574897e+002 3.438177e+002
         vertex 5.050615e+002 5.574897e+002 3.444267e+002
      endloop
   endfacet
   facet normal -1.950855e-001 -2.168448e-019 -9.807863e-001
      outer loop
         vertex 8.000001e+000 5.574897e+002 3.438177e+002
         vertex 8.000001e+000 6.348977e+001 3.438177e+002
         vertex 4.938535e+000 6.348977e+001 3.444267e+002
      endloop
   endfacet
   facet normal 0.000000e+000 1.950857e-001 -9.807862e-001
      outer loop
         vertex 5.020000e+002 5.574897e+002 3.438177e+002
         vertex 8.000001e+000 5.574897e+002 3.438177e+002
         vertex 8.000001e+000 5.605512e+002 3.444267e+002
      endloop
   endfacet
   facet normal 0.000000e+000 0.000000e+000 -1.000000e+000
      outer loop
         vertex 8.000001e+000 6.348977e+001 3.438177e+002
         vertex 5.020000e+002 5.574897e+002 3.438177e+002
         vertex 5.020000e+002 6.348977e+001 3.438177e+002
      endloop
   endfacet
   facet normal 0.000000e+000 0.000000e+000 -1.000000e+000
      outer loop
         vertex 8.000001e+000 5.574897e+002 3.438177e+002
         vertex 5.020000e+002 5.574897e+002 3.438177e+002
         vertex 8.000001e+000 6.348977e+001 3.438177e+002
      endloop
   endfacet
endsolid