solid triangle 22 - modellezo triangle-1
   facet normal 0.000000e+000 0.000000e+000 1.000000e+000
      outer loop
         vertex 8.000000e+000 4.814939e+002 8.000000e+000
         vertex 8.000000e+000 8.000000e+000 8.000000e+000
         vertex 4.814939e+002 8.000000e+000 8.000000e+000
      endloop
   endfacet
   facet normal 0.000000e+000 0.000000e+000 -1.000000e+000
      outer loop
         vertex 8.000000e+000 4.814939e+002 -8.000000e+000
         vertex 4.814939e+002 8.000000e+000 -8.000000e+000
         vertex 8.000000e+000 8.000000e+000 -8.000000e+000
      endloop
   endfacet
   facet normal 0.000000e+000 -9.962141e-001 8.693379e-002
      outer loop
         vertex 2.725936e-001 2.725936e-001 2.070552e+000
         vertex 1.341105e-007 1.341105e-007 3.799796e-007
         vertex 5.008076e+002 1.341105e-007 3.799796e-007
      endloop
   endfacet
   facet normal 0.000000e+000 -9.914449e-001 1.305262e-001
      outer loop
         vertex 5.008076e+002 1.341105e-007 3.799796e-007
         vertex 5.006424e+002 6.844117e-002 1.044209e+000
         vertex 2.725936e-001 2.725936e-001 2.070552e+000
      endloop
   endfacet
   facet normal 0.000000e+000 -9.762900e-001 2.164667e-001
      outer loop
         vertex 2.725936e-001 2.725936e-001 2.070552e+000
         vertex 5.006424e+002 6.844117e-002 1.044209e+000
         vertex 5.001495e+002 2.725936e-001 2.070552e+000
      endloop
   endfacet
   facet normal 0.000000e+000 -9.397688e-001 3.418108e-001
      outer loop
         vertex 2.725936e-001 2.725936e-001 2.070552e+000
         vertex 5.001495e+002 2.725936e-001 2.070552e+000
         vertex 1.071797e+000 1.071797e+000 4.000000e+000
      endloop
   endfacet
   facet normal 0.000000e+000 -9.062136e-001 4.228202e-001
      outer loop
         vertex 5.001495e+002 2.725936e-001 2.070552e+000
         vertex 4.982201e+002 1.071797e+000 4.000000e+000
         vertex 1.071797e+000 1.071797e+000 4.000000e+000
      endloop
   endfacet
   facet normal 0.000000e+000 -7.672089e-001 6.413973e-001
      outer loop
         vertex 1.071797e+000 1.071797e+000 4.000000e+000
         vertex 4.982201e+002 1.071797e+000 4.000000e+000
         vertex 4.911508e+002 4.000000e+000 6.928203e+000
      endloop
   endfacet
   facet normal 0.000000e+000 -6.413973e-001 7.672089e-001
      outer loop
         vertex 1.071797e+000 1.071797e+000 4.000000e+000
         vertex 4.911508e+002 4.000000e+000 6.928203e+000
         vertex 4.000000e+000 4.000000e+000 6.928203e+000
      endloop
   endfacet
   facet normal 0.000000e+000 -3.437238e-001 9.390708e-001
      outer loop
         vertex 4.000000e+000 4.000000e+000 6.928203e+000
         vertex 4.911508e+002 4.000000e+000 6.928203e+000
         vertex 4.814939e+002 8.000000e+000 8.000000e+000
      endloop
   endfacet
   facet normal 0.000000e+000 -1.718619e-001 9.851211e-001
      outer loop
         vertex 4.000000e+000 4.000000e+000 6.928203e+000
         vertex 4.814939e+002 8.000000e+000 8.000000e+000
         vertex 8.000000e+000 8.000000e+000 8.000000e+000
      endloop
   endfacet
   facet normal -9.962141e-001 -1.163461e-018 8.693379e-002
      outer loop
         vertex 1.341105e-007 5.008076e+002 3.799796e-007
         vertex 1.341105e-007 1.341105e-007 3.799796e-007
         vertex 2.725936e-001 2.725936e-001 2.070552e+000
      endloop
   endfacet
   facet normal -9.397688e-001 0.000000e+000 3.418108e-001
      outer loop
         vertex 1.071797e+000 4.982201e+002 4.000000e+000
         vertex 2.725936e-001 5.001495e+002 2.070552e+000
         vertex 2.725936e-001 2.725936e-001 2.070552e+000
      endloop
   endfacet
   facet normal -9.762900e-001 0.000000e+000 2.164667e-001
      outer loop
         vertex 2.725936e-001 2.725936e-001 2.070552e+000
         vertex 2.725936e-001 5.001495e+002 2.070552e+000
         vertex 6.844117e-002 5.006424e+002 1.044209e+000
      endloop
   endfacet
   facet normal -9.914449e-001 -5.806202e-019 1.305262e-001
      outer loop
         vertex 2.725936e-001 2.725936e-001 2.070552e+000
         vertex 6.844117e-002 5.006424e+002 1.044209e+000
         vertex 1.341105e-007 5.008076e+002 3.799796e-007
      endloop
   endfacet
   facet normal -9.062136e-001 0.000000e+000 4.228202e-001
      outer loop
         vertex 2.725936e-001 2.725936e-001 2.070552e+000
         vertex 1.071797e+000 1.071797e+000 4.000000e+000
         vertex 1.071797e+000 4.982201e+002 4.000000e+000
      endloop
   endfacet
   facet normal -7.672089e-001 0.000000e+000 6.413973e-001
      outer loop
         vertex 1.071797e+000 4.982201e+002 4.000000e+000
         vertex 1.071797e+000 1.071797e+000 4.000000e+000
         vertex 4.000000e+000 4.000000e+000 6.928203e+000
      endloop
   endfacet
   facet normal -6.413973e-001 0.000000e+000 7.672089e-001
      outer loop
         vertex 1.071797e+000 4.982201e+002 4.000000e+000
         vertex 4.000000e+000 4.000000e+000 6.928203e+000
         vertex 4.000000e+000 4.911508e+002 6.928203e+000
      endloop
   endfacet
   facet normal -3.437238e-001 3.645186e-035 9.390708e-001
      outer loop
         vertex 4.000000e+000 4.911508e+002 6.928203e+000
         vertex 4.000000e+000 4.000000e+000 6.928203e+000
         vertex 8.000000e+000 8.000000e+000 8.000000e+000
      endloop
   endfacet
   facet normal -1.718619e-001 3.645187e-035 9.851211e-001
      outer loop
         vertex 4.000000e+000 4.911508e+002 6.928203e+000
         vertex 8.000000e+000 8.000000e+000 8.000000e+000
         vertex 8.000000e+000 4.814939e+002 8.000000e+000
      endloop
   endfacet
   facet normal 0.000000e+000 -1.718619e-001 -9.851211e-001
      outer loop
         vertex 8.000000e+000 8.000000e+000 -8.000000e+000
         vertex 4.814939e+002 8.000000e+000 -8.000000e+000
         vertex 4.911508e+002 4.000000e+000 -6.928203e+000
      endloop
   endfacet
   facet normal 0.000000e+000 -3.437238e-001 -9.390708e-001
      outer loop
         vertex 8.000000e+000 8.000000e+000 -8.000000e+000
         vertex 4.911508e+002 4.000000e+000 -6.928203e+000
         vertex 4.000000e+000 4.000000e+000 -6.928203e+000
      endloop
   endfacet
   facet normal 0.000000e+000 -6.413973e-001 -7.672089e-001
      outer loop
         vertex 4.000000e+000 4.000000e+000 -6.928203e+000
         vertex 4.911508e+002 4.000000e+000 -6.928203e+000
         vertex 4.982201e+002 1.071797e+000 -4.000000e+000
      endloop
   endfacet
   facet normal 0.000000e+000 -7.672089e-001 -6.413973e-001
      outer loop
         vertex 4.000000e+000 4.000000e+000 -6.928203e+000
         vertex 4.982201e+002 1.071797e+000 -4.000000e+000
         vertex 1.071797e+000 1.071797e+000 -4.000000e+000
      endloop
   endfacet
   facet normal 0.000000e+000 -9.914449e-001 -1.305262e-001
      outer loop
         vertex 5.006424e+002 6.844117e-002 -1.044210e+000
         vertex 5.008076e+002 1.341105e-007 3.799796e-007
         vertex 2.725936e-001 2.725936e-001 -2.070552e+000
      endloop
   endfacet
   facet normal 0.000000e+000 -9.962141e-001 -8.693379e-002
      outer loop
         vertex 2.725936e-001 2.725936e-001 -2.070552e+000
         vertex 5.008076e+002 1.341105e-007 3.799796e-007
         vertex 1.341105e-007 1.341105e-007 3.799796e-007
      endloop
   endfacet
   facet normal 0.000000e+000 -9.062136e-001 -4.228202e-001
      outer loop
         vertex 1.071797e+000 1.071797e+000 -4.000000e+000
         vertex 4.982201e+002 1.071797e+000 -4.000000e+000
         vertex 2.725936e-001 2.725936e-001 -2.070552e+000
      endloop
   endfacet
   facet normal 0.000000e+000 -9.397688e-001 -3.418108e-001
      outer loop
         vertex 2.725936e-001 2.725936e-001 -2.070552e+000
         vertex 4.982201e+002 1.071797e+000 -4.000000e+000
         vertex 5.001495e+002 2.725936e-001 -2.070552e+000
      endloop
   endfacet
   facet normal 0.000000e+000 -9.762900e-001 -2.164667e-001
      outer loop
         vertex 2.725936e-001 2.725936e-001 -2.070552e+000
         vertex 5.001495e+002 2.725936e-001 -2.070552e+000
         vertex 5.006424e+002 6.844117e-002 -1.044210e+000
      endloop
   endfacet
   facet normal 1.215247e-001 1.215247e-001 9.851211e-001
      outer loop
         vertex 8.000000e+000 4.814939e+002 8.000000e+000
         vertex 4.814939e+002 8.000000e+000 8.000000e+000
         vertex 4.911508e+002 4.000000e+000 6.928203e+000
      endloop
   endfacet
   facet normal 2.430494e-001 2.430494e-001 9.390708e-001
      outer loop
         vertex 8.000000e+000 4.814939e+002 8.000000e+000
         vertex 4.911508e+002 4.000000e+000 6.928203e+000
         vertex 4.000000e+000 4.911508e+002 6.928203e+000
      endloop
   endfacet
   facet normal 4.535364e-001 4.535364e-001 7.672089e-001
      outer loop
         vertex 4.000000e+000 4.911508e+002 6.928203e+000
         vertex 4.911508e+002 4.000000e+000 6.928203e+000
         vertex 4.982201e+002 1.071797e+000 4.000000e+000
      endloop
   endfacet
   facet normal 5.424986e-001 5.424986e-001 6.413973e-001
      outer loop
         vertex 4.000000e+000 4.911508e+002 6.928203e+000
         vertex 4.982201e+002 1.071797e+000 4.000000e+000
         vertex 1.071797e+000 4.982201e+002 4.000000e+000
      endloop
   endfacet
   facet normal 7.064346e-001 7.064346e-001 4.359168e-002
      outer loop
         vertex 5.008076e+002 1.341105e-007 3.799796e-007
         vertex 1.341105e-007 5.008076e+002 3.799796e-007
         vertex 6.844117e-002 5.006424e+002 1.044209e+000
      endloop
   endfacet
   facet normal 6.407898e-001 6.407898e-001 4.228202e-001
      outer loop
         vertex 1.071797e+000 4.982201e+002 4.000000e+000
         vertex 4.982201e+002 1.071797e+000 4.000000e+000
         vertex 2.725936e-001 5.001495e+002 2.070552e+000
      endloop
   endfacet
   facet normal 6.645169e-001 6.645169e-001 3.418108e-001
      outer loop
         vertex 2.725936e-001 5.001495e+002 2.070552e+000
         vertex 4.982201e+002 1.071797e+000 4.000000e+000
         vertex 5.001495e+002 2.725936e-001 2.070552e+000
      endloop
   endfacet
   facet normal 6.903413e-001 6.903413e-001 2.164667e-001
      outer loop
         vertex 2.725936e-001 5.001495e+002 2.070552e+000
         vertex 5.001495e+002 2.725936e-001 2.070552e+000
         vertex 6.844117e-002 5.006424e+002 1.044209e+000
      endloop
   endfacet
   facet normal 6.963676e-001 6.963676e-001 1.736208e-001
      outer loop
         vertex 6.844117e-002 5.006424e+002 1.044209e+000
         vertex 5.001495e+002 2.725936e-001 2.070552e+000
         vertex 5.006424e+002 6.844117e-002 1.044209e+000
      endloop
   endfacet
   facet normal 7.044143e-001 7.044143e-001 8.718336e-002
      outer loop
         vertex 6.844117e-002 5.006424e+002 1.044209e+000
         vertex 5.006424e+002 6.844117e-002 1.044209e+000
         vertex 5.008076e+002 1.341105e-007 3.799796e-007
      endloop
   endfacet
   facet normal -9.962141e-001 -5.817304e-019 -8.693379e-002
      outer loop
         vertex 2.725936e-001 2.725936e-001 -2.070552e+000
         vertex 1.341105e-007 1.341105e-007 3.799796e-007
         vertex 1.341105e-007 5.008076e+002 3.799796e-007
      endloop
   endfacet
   facet normal -6.413973e-001 0.000000e+000 -7.672089e-001
      outer loop
         vertex 1.071797e+000 1.071797e+000 -4.000000e+000
         vertex 4.000000e+000 4.911508e+002 -6.928203e+000
         vertex 4.000000e+000 4.000000e+000 -6.928203e+000
      endloop
   endfacet
   facet normal -3.437238e-001 1.093556e-034 -9.390708e-001
      outer loop
         vertex 4.000000e+000 4.000000e+000 -6.928203e+000
         vertex 4.000000e+000 4.911508e+002 -6.928203e+000
         vertex 8.000000e+000 4.814939e+002 -8.000000e+000
      endloop
   endfacet
   facet normal -1.718619e-001 2.187112e-034 -9.851211e-001
      outer loop
         vertex 4.000000e+000 4.000000e+000 -6.928203e+000
         vertex 8.000000e+000 4.814939e+002 -8.000000e+000
         vertex 8.000000e+000 8.000000e+000 -8.000000e+000
      endloop
   endfacet
   facet normal -9.914449e-001 0.000000e+000 -1.305262e-001
      outer loop
         vertex 1.341105e-007 5.008076e+002 3.799796e-007
         vertex 6.844117e-002 5.006424e+002 -1.044210e+000
         vertex 2.725936e-001 2.725936e-001 -2.070552e+000
      endloop
   endfacet
   facet normal -9.762900e-001 0.000000e+000 -2.164667e-001
      outer loop
         vertex 2.725936e-001 2.725936e-001 -2.070552e+000
         vertex 6.844117e-002 5.006424e+002 -1.044210e+000
         vertex 2.725936e-001 5.001495e+002 -2.070552e+000
      endloop
   endfacet
   facet normal -9.397688e-001 0.000000e+000 -3.418108e-001
      outer loop
         vertex 2.725936e-001 2.725936e-001 -2.070552e+000
         vertex 2.725936e-001 5.001495e+002 -2.070552e+000
         vertex 1.071797e+000 1.071797e+000 -4.000000e+000
      endloop
   endfacet
   facet normal -9.062136e-001 0.000000e+000 -4.228202e-001
      outer loop
         vertex 1.071797e+000 1.071797e+000 -4.000000e+000
         vertex 2.725936e-001 5.001495e+002 -2.070552e+000
         vertex 1.071797e+000 4.982201e+002 -4.000000e+000
      endloop
   endfacet
   facet normal -7.672089e-001 0.000000e+000 -6.413973e-001
      outer loop
         vertex 1.071797e+000 1.071797e+000 -4.000000e+000
         vertex 1.071797e+000 4.982201e+002 -4.000000e+000
         vertex 4.000000e+000 4.911508e+002 -6.928203e+000
      endloop
   endfacet
   facet normal 7.044143e-001 7.044143e-001 -8.718336e-002
      outer loop
         vertex 6.844117e-002 5.006424e+002 -1.044210e+000
         vertex 1.341105e-007 5.008076e+002 3.799796e-007
         vertex 5.006424e+002 6.844117e-002 -1.044210e+000
      endloop
   endfacet
   facet normal 7.064346e-001 7.064346e-001 -4.359168e-002
      outer loop
         vertex 5.006424e+002 6.844117e-002 -1.044210e+000
         vertex 1.341105e-007 5.008076e+002 3.799796e-007
         vertex 5.008076e+002 1.341105e-007 3.799796e-007
      endloop
   endfacet
   facet normal 6.963676e-001 6.963676e-001 -1.736209e-001
      outer loop
         vertex 6.844117e-002 5.006424e+002 -1.044210e+000
         vertex 5.006424e+002 6.844117e-002 -1.044210e+000
         vertex 2.725936e-001 5.001495e+002 -2.070552e+000
      endloop
   endfacet
   facet normal 6.903413e-001 6.903413e-001 -2.164667e-001
      outer loop
         vertex 2.725936e-001 5.001495e+002 -2.070552e+000
         vertex 5.006424e+002 6.844117e-002 -1.044210e+000
         vertex 5.001495e+002 2.725936e-001 -2.070552e+000
      endloop
   endfacet
   facet normal 6.645169e-001 6.645169e-001 -3.418108e-001
      outer loop
         vertex 2.725936e-001 5.001495e+002 -2.070552e+000
         vertex 5.001495e+002 2.725936e-001 -2.070552e+000
         vertex 1.071797e+000 4.982201e+002 -4.000000e+000
      endloop
   endfacet
   facet normal 6.407897e-001 6.407897e-001 -4.228202e-001
      outer loop
         vertex 5.001495e+002 2.725936e-001 -2.070552e+000
         vertex 4.982201e+002 1.071797e+000 -4.000000e+000
         vertex 1.071797e+000 4.982201e+002 -4.000000e+000
      endloop
   endfacet
   facet normal 5.424986e-001 5.424986e-001 -6.413973e-001
      outer loop
         vertex 1.071797e+000 4.982201e+002 -4.000000e+000
         vertex 4.982201e+002 1.071797e+000 -4.000000e+000
         vertex 4.911508e+002 4.000000e+000 -6.928203e+000
      endloop
   endfacet
   facet normal 4.535364e-001 4.535364e-001 -7.672089e-001
      outer loop
         vertex 1.071797e+000 4.982201e+002 -4.000000e+000
         vertex 4.911508e+002 4.000000e+000 -6.928203e+000
         vertex 4.000000e+000 4.911508e+002 -6.928203e+000
      endloop
   endfacet
   facet normal 2.430494e-001 2.430494e-001 -9.390708e-001
      outer loop
         vertex 4.000000e+000 4.911508e+002 -6.928203e+000
         vertex 4.911508e+002 4.000000e+000 -6.928203e+000
         vertex 4.814939e+002 8.000000e+000 -8.000000e+000
      endloop
   endfacet
   facet normal 1.215247e-001 1.215247e-001 -9.851211e-001
      outer loop
         vertex 4.000000e+000 4.911508e+002 -6.928203e+000
         vertex 4.814939e+002 8.000000e+000 -8.000000e+000
         vertex 8.000000e+000 4.814939e+002 -8.000000e+000
      endloop
   endfacet
endsolid