solid equilat kerek - equilat-1
   facet normal -2.775558e-017 4.807407e-017 -1.000000e+000
      outer loop
         vertex 4.186405e+002 8.000001e+000 -8.000009e+000
         vertex -6.364671e+001 8.000001e+000 -8.000009e+000
         vertex 1.774969e+002 4.256729e+002 -8.000009e+000
      endloop
   endfacet
   facet normal 0.000000e+000 0.000000e+000 1.000000e+000
      outer loop
         vertex -6.364671e+001 8.000001e+000 7.999994e+000
         vertex 4.186405e+002 8.000001e+000 7.999994e+000
         vertex 1.774969e+002 4.256729e+002 7.999994e+000
      endloop
   endfacet
   facet normal -8.138637e-001 4.698844e-001 3.418108e-001
      outer loop
         vertex 1.774969e+002 4.395294e+002 3.999986e+000
         vertex 1.774969e+002 4.411278e+002 2.070554e+000
         vertex -7.703097e+001 2.725942e-001 2.070554e+000
      endloop
   endfacet
   facet normal -8.528350e-001 4.923846e-001 1.738676e-001
      outer loop
         vertex -7.703097e+001 2.725942e-001 2.070554e+000
         vertex 1.774969e+002 4.411278e+002 2.070554e+000
         vertex 1.774969e+002 4.416729e+002 7.910394e-006
      endloop
   endfacet
   facet normal -8.627467e-001 4.981070e-001 8.693379e-002
      outer loop
         vertex -7.703097e+001 2.725942e-001 2.070554e+000
         vertex 1.774969e+002 4.416729e+002 7.910394e-006
         vertex -7.750311e+001 -1.971058e-007 7.910394e-006
      endloop
   endfacet
   facet normal -7.848040e-001 4.531068e-001 4.228202e-001
      outer loop
         vertex -7.703097e+001 2.725942e-001 2.070554e+000
         vertex -7.564671e+001 1.071796e+000 3.999986e+000
         vertex 1.774969e+002 4.395294e+002 3.999986e+000
      endloop
   endfacet
   facet normal -6.644224e-001 3.836044e-001 6.413973e-001
      outer loop
         vertex 1.774969e+002 4.395294e+002 3.999986e+000
         vertex -7.564671e+001 1.071796e+000 3.999986e+000
         vertex -7.057491e+001 4.000000e+000 6.928214e+000
      endloop
   endfacet
   facet normal -5.554664e-001 3.206987e-001 7.672089e-001
      outer loop
         vertex 1.774969e+002 4.395294e+002 3.999986e+000
         vertex -7.057491e+001 4.000000e+000 6.928214e+000
         vertex 1.774969e+002 4.336730e+002 6.928214e+000
      endloop
   endfacet
   facet normal -2.976735e-001 1.718619e-001 9.390708e-001
      outer loop
         vertex 1.774969e+002 4.336730e+002 6.928214e+000
         vertex -7.057491e+001 4.000000e+000 6.928214e+000
         vertex -6.364671e+001 8.000001e+000 7.999994e+000
      endloop
   endfacet
   facet normal -1.488367e-001 8.593095e-002 9.851211e-001
      outer loop
         vertex 1.774969e+002 4.336730e+002 6.928214e+000
         vertex -6.364671e+001 8.000001e+000 7.999994e+000
         vertex 1.774969e+002 4.256729e+002 7.999994e+000
      endloop
   endfacet
   facet normal 8.627467e-001 4.981070e-001 8.693379e-002
      outer loop
         vertex 4.324969e+002 -1.971058e-007 7.910394e-006
         vertex 1.774969e+002 4.416729e+002 7.910394e-006
         vertex 4.320247e+002 2.725942e-001 2.070554e+000
      endloop
   endfacet
   facet normal 8.528350e-001 4.923846e-001 1.738676e-001
      outer loop
         vertex 4.320247e+002 2.725942e-001 2.070554e+000
         vertex 1.774969e+002 4.416729e+002 7.910394e-006
         vertex 1.774969e+002 4.411278e+002 2.070554e+000
      endloop
   endfacet
   facet normal 8.138637e-001 4.698844e-001 3.418108e-001
      outer loop
         vertex 4.320247e+002 2.725942e-001 2.070554e+000
         vertex 1.774969e+002 4.411278e+002 2.070554e+000
         vertex 4.306405e+002 1.071796e+000 3.999986e+000
      endloop
   endfacet
   facet normal 7.848040e-001 4.531068e-001 4.228202e-001
      outer loop
         vertex 1.774969e+002 4.411278e+002 2.070554e+000
         vertex 1.774969e+002 4.395294e+002 3.999986e+000
         vertex 4.306405e+002 1.071796e+000 3.999986e+000
      endloop
   endfacet
   facet normal 6.644224e-001 3.836044e-001 6.413973e-001
      outer loop
         vertex 4.306405e+002 1.071796e+000 3.999986e+000
         vertex 1.774969e+002 4.395294e+002 3.999986e+000
         vertex 1.774969e+002 4.336730e+002 6.928214e+000
      endloop
   endfacet
   facet normal 5.554664e-001 3.206987e-001 7.672089e-001
      outer loop
         vertex 4.306405e+002 1.071796e+000 3.999986e+000
         vertex 1.774969e+002 4.336730e+002 6.928214e+000
         vertex 4.255687e+002 4.000000e+000 6.928214e+000
      endloop
   endfacet
   facet normal 2.976735e-001 1.718619e-001 9.390708e-001
      outer loop
         vertex 4.255687e+002 4.000000e+000 6.928214e+000
         vertex 1.774969e+002 4.336730e+002 6.928214e+000
         vertex 1.774969e+002 4.256729e+002 7.999994e+000
      endloop
   endfacet
   facet normal 1.488367e-001 8.593095e-002 9.851211e-001
      outer loop
         vertex 4.255687e+002 4.000000e+000 6.928214e+000
         vertex 1.774969e+002 4.256729e+002 7.999994e+000
         vertex 4.186405e+002 8.000001e+000 7.999994e+000
      endloop
   endfacet
   facet normal -5.554664e-001 3.206987e-001 -7.672089e-001
      outer loop
         vertex -7.564671e+001 1.071796e+000 -4.000000e+000
         vertex 1.774969e+002 4.336730e+002 -6.928197e+000
         vertex -7.057491e+001 4.000000e+000 -6.928197e+000
      endloop
   endfacet
   facet normal -2.976735e-001 1.718619e-001 -9.390708e-001
      outer loop
         vertex -7.057491e+001 4.000000e+000 -6.928197e+000
         vertex 1.774969e+002 4.336730e+002 -6.928197e+000
         vertex 1.774969e+002 4.256729e+002 -8.000009e+000
      endloop
   endfacet
   facet normal -1.488367e-001 8.593095e-002 -9.851211e-001
      outer loop
         vertex -7.057491e+001 4.000000e+000 -6.928197e+000
         vertex 1.774969e+002 4.256729e+002 -8.000009e+000
         vertex -6.364671e+001 8.000001e+000 -8.000009e+000
      endloop
   endfacet
   facet normal -8.627467e-001 4.981070e-001 -8.693379e-002
      outer loop
         vertex -7.750311e+001 -1.971058e-007 7.910394e-006
         vertex 1.774969e+002 4.416729e+002 7.910394e-006
         vertex -7.703097e+001 2.725942e-001 -2.070538e+000
      endloop
   endfacet
   facet normal -8.528350e-001 4.923846e-001 -1.738676e-001
      outer loop
         vertex -7.703097e+001 2.725942e-001 -2.070538e+000
         vertex 1.774969e+002 4.416729e+002 7.910394e-006
         vertex 1.774969e+002 4.411278e+002 -2.070538e+000
      endloop
   endfacet
   facet normal -8.138637e-001 4.698844e-001 -3.418108e-001
      outer loop
         vertex -7.703097e+001 2.725942e-001 -2.070538e+000
         vertex 1.774969e+002 4.411278e+002 -2.070538e+000
         vertex -7.564671e+001 1.071796e+000 -4.000000e+000
      endloop
   endfacet
   facet normal -7.848040e-001 4.531068e-001 -4.228202e-001
      outer loop
         vertex -7.564671e+001 1.071796e+000 -4.000000e+000
         vertex 1.774969e+002 4.411278e+002 -2.070538e+000
         vertex 1.774969e+002 4.395294e+002 -4.000000e+000
      endloop
   endfacet
   facet normal -6.644224e-001 3.836044e-001 -6.413973e-001
      outer loop
         vertex -7.564671e+001 1.071796e+000 -4.000000e+000
         vertex 1.774969e+002 4.395294e+002 -4.000000e+000
         vertex 1.774969e+002 4.336730e+002 -6.928197e+000
      endloop
   endfacet
   facet normal 9.316651e-018 -6.413973e-001 7.672089e-001
      outer loop
         vertex -7.564671e+001 1.071796e+000 3.999986e+000
         vertex 4.255687e+002 4.000000e+000 6.928214e+000
         vertex -7.057491e+001 4.000000e+000 6.928214e+000
      endloop
   endfacet
   facet normal 0.000000e+000 -3.437238e-001 9.390708e-001
      outer loop
         vertex -7.057491e+001 4.000000e+000 6.928214e+000
         vertex 4.255687e+002 4.000000e+000 6.928214e+000
         vertex 4.186405e+002 8.000001e+000 7.999994e+000
      endloop
   endfacet
   facet normal 0.000000e+000 -1.718619e-001 9.851211e-001
      outer loop
         vertex -7.057491e+001 4.000000e+000 6.928214e+000
         vertex 4.186405e+002 8.000001e+000 7.999994e+000
         vertex -6.364671e+001 8.000001e+000 7.999994e+000
      endloop
   endfacet
   facet normal 2.778166e-017 -9.962141e-001 8.693379e-002
      outer loop
         vertex -7.750311e+001 -1.971058e-007 7.910394e-006
         vertex 4.324969e+002 -1.971058e-007 7.910394e-006
         vertex -7.703097e+001 2.725942e-001 2.070554e+000
      endloop
   endfacet
   facet normal 1.365633e-017 -9.847690e-001 1.738676e-001
      outer loop
         vertex -7.703097e+001 2.725942e-001 2.070554e+000
         vertex 4.324969e+002 -1.971058e-007 7.910394e-006
         vertex 4.320247e+002 2.725942e-001 2.070554e+000
      endloop
   endfacet
   facet normal 2.276055e-017 -9.397688e-001 3.418108e-001
      outer loop
         vertex -7.703097e+001 2.725942e-001 2.070554e+000
         vertex 4.320247e+002 2.725942e-001 2.070554e+000
         vertex -7.564671e+001 1.071796e+000 3.999986e+000
      endloop
   endfacet
   facet normal 9.104219e-018 -9.062136e-001 4.228202e-001
      outer loop
         vertex -7.564671e+001 1.071796e+000 3.999986e+000
         vertex 4.320247e+002 2.725942e-001 2.070554e+000
         vertex 4.306405e+002 1.071796e+000 3.999986e+000
      endloop
   endfacet
   facet normal 9.316651e-018 -7.672089e-001 6.413973e-001
      outer loop
         vertex -7.564671e+001 1.071796e+000 3.999986e+000
         vertex 4.306405e+002 1.071796e+000 3.999986e+000
         vertex 4.255687e+002 4.000000e+000 6.928214e+000
      endloop
   endfacet
   facet normal 5.554664e-001 3.206987e-001 -7.672089e-001
      outer loop
         vertex 1.774969e+002 4.395294e+002 -4.000000e+000
         vertex 4.255687e+002 4.000000e+000 -6.928197e+000
         vertex 1.774969e+002 4.336730e+002 -6.928197e+000
      endloop
   endfacet
   facet normal 2.976735e-001 1.718619e-001 -9.390708e-001
      outer loop
         vertex 1.774969e+002 4.336730e+002 -6.928197e+000
         vertex 4.255687e+002 4.000000e+000 -6.928197e+000
         vertex 4.186405e+002 8.000001e+000 -8.000009e+000
      endloop
   endfacet
   facet normal 1.488367e-001 8.593095e-002 -9.851211e-001
      outer loop
         vertex 1.774969e+002 4.336730e+002 -6.928197e+000
         vertex 4.186405e+002 8.000001e+000 -8.000009e+000
         vertex 1.774969e+002 4.256729e+002 -8.000009e+000
      endloop
   endfacet
   facet normal 8.627467e-001 4.981070e-001 -8.693379e-002
      outer loop
         vertex 1.774969e+002 4.416729e+002 7.910394e-006
         vertex 4.324969e+002 -1.971058e-007 7.910394e-006
         vertex 1.774969e+002 4.411278e+002 -2.070538e+000
      endloop
   endfacet
   facet normal 8.528350e-001 4.923846e-001 -1.738676e-001
      outer loop
         vertex 1.774969e+002 4.411278e+002 -2.070538e+000
         vertex 4.324969e+002 -1.971058e-007 7.910394e-006
         vertex 4.320247e+002 2.725942e-001 -2.070538e+000
      endloop
   endfacet
   facet normal 8.138637e-001 4.698844e-001 -3.418108e-001
      outer loop
         vertex 1.774969e+002 4.411278e+002 -2.070538e+000
         vertex 4.320247e+002 2.725942e-001 -2.070538e+000
         vertex 1.774969e+002 4.395294e+002 -4.000000e+000
      endloop
   endfacet
   facet normal 7.848040e-001 4.531068e-001 -4.228202e-001
      outer loop
         vertex 1.774969e+002 4.395294e+002 -4.000000e+000
         vertex 4.320247e+002 2.725942e-001 -2.070538e+000
         vertex 4.306405e+002 1.071796e+000 -4.000000e+000
      endloop
   endfacet
   facet normal 6.644224e-001 3.836044e-001 -6.413973e-001
      outer loop
         vertex 1.774969e+002 4.395294e+002 -4.000000e+000
         vertex 4.306405e+002 1.071796e+000 -4.000000e+000
         vertex 4.255687e+002 4.000000e+000 -6.928197e+000
      endloop
   endfacet
   facet normal 0.000000e+000 -9.397688e-001 -3.418108e-001
      outer loop
         vertex 4.306405e+002 1.071796e+000 -4.000000e+000
         vertex 4.320247e+002 2.725942e-001 -2.070538e+000
         vertex -7.703097e+001 2.725942e-001 -2.070538e+000
      endloop
   endfacet
   facet normal 0.000000e+000 -9.847690e-001 -1.738676e-001
      outer loop
         vertex -7.703097e+001 2.725942e-001 -2.070538e+000
         vertex 4.320247e+002 2.725942e-001 -2.070538e+000
         vertex 4.324969e+002 -1.971058e-007 7.910394e-006
      endloop
   endfacet
   facet normal 0.000000e+000 -9.962141e-001 -8.693379e-002
      outer loop
         vertex -7.703097e+001 2.725942e-001 -2.070538e+000
         vertex 4.324969e+002 -1.971058e-007 7.910394e-006
         vertex -7.750311e+001 -1.971058e-007 7.910394e-006
      endloop
   endfacet
   facet normal 0.000000e+000 -9.062136e-001 -4.228202e-001
      outer loop
         vertex -7.703097e+001 2.725942e-001 -2.070538e+000
         vertex -7.564671e+001 1.071796e+000 -4.000000e+000
         vertex 4.306405e+002 1.071796e+000 -4.000000e+000
      endloop
   endfacet
   facet normal 0.000000e+000 -7.672089e-001 -6.413973e-001
      outer loop
         vertex 4.306405e+002 1.071796e+000 -4.000000e+000
         vertex -7.564671e+001 1.071796e+000 -4.000000e+000
         vertex -7.057491e+001 4.000000e+000 -6.928197e+000
      endloop
   endfacet
   facet normal 0.000000e+000 -6.413973e-001 -7.672089e-001
      outer loop
         vertex 4.306405e+002 1.071796e+000 -4.000000e+000
         vertex -7.057491e+001 4.000000e+000 -6.928197e+000
         vertex 4.255687e+002 4.000000e+000 -6.928197e+000
      endloop
   endfacet
   facet normal -9.540251e-018 -3.437238e-001 -9.390708e-001
      outer loop
         vertex 4.255687e+002 4.000000e+000 -6.928197e+000
         vertex -7.057491e+001 4.000000e+000 -6.928197e+000
         vertex -6.364671e+001 8.000001e+000 -8.000009e+000
      endloop
   endfacet
   facet normal -9.540251e-018 -1.718619e-001 -9.851211e-001
      outer loop
         vertex 4.255687e+002 4.000000e+000 -6.928197e+000
         vertex -6.364671e+001 8.000001e+000 -8.000009e+000
         vertex 4.186405e+002 8.000001e+000 -8.000009e+000
      endloop
   endfacet
endsolid