solid equilat - equilat-1
   facet normal -2.775558e-017 4.807407e-017 -1.000000e+000
      outer loop
         vertex 2.162484e+002 3.745533e+002 -8.000009e+000
         vertex 3.937453e+002 6.711966e+001 -8.000009e+000
         vertex 2.061634e+002 3.687307e+002 -8.000009e+000
      endloop
   endfacet
   facet normal -2.775558e-017 4.807407e-017 -1.000000e+000
      outer loop
         vertex 2.061634e+002 3.687307e+002 -8.000009e+000
         vertex 3.937453e+002 6.711966e+001 -8.000009e+000
         vertex 3.836602e+002 6.129704e+001 -8.000009e+000
      endloop
   endfacet
   facet normal -2.775558e-017 4.807407e-017 -1.000000e+000
      outer loop
         vertex 2.061634e+002 3.687307e+002 -8.000009e+000
         vertex 3.836602e+002 6.129704e+001 -8.000009e+000
         vertex 1.488304e+002 3.687307e+002 -8.000009e+000
      endloop
   endfacet
   facet normal -2.775558e-017 4.807407e-017 -1.000000e+000
      outer loop
         vertex 1.488304e+002 3.687307e+002 -8.000009e+000
         vertex 3.836602e+002 6.129704e+001 -8.000009e+000
         vertex 1.387453e+002 3.745533e+002 -8.000009e+000
      endloop
   endfacet
   facet normal -2.775558e-017 4.807407e-017 -1.000000e+000
      outer loop
         vertex 3.549938e+002 -1.971058e-007 -8.000009e+000
         vertex 3.847875e-007 -1.971058e-007 -8.000009e+000
         vertex 3.549938e+002 1.164525e+001 -8.000009e+000
      endloop
   endfacet
   facet normal -2.775558e-017 4.807407e-017 -1.000000e+000
      outer loop
         vertex 3.549938e+002 1.164525e+001 -8.000009e+000
         vertex 3.847875e-007 -1.971058e-007 -8.000009e+000
         vertex 3.847875e-007 1.164525e+001 -8.000009e+000
      endloop
   endfacet
   facet normal -2.775558e-017 4.807407e-017 -1.000000e+000
      outer loop
         vertex 3.549938e+002 1.164525e+001 -8.000009e+000
         vertex 3.847875e-007 1.164525e+001 -8.000009e+000
         vertex 3.836602e+002 6.129704e+001 -8.000009e+000
      endloop
   endfacet
   facet normal -2.775558e-017 4.807407e-017 -1.000000e+000
      outer loop
         vertex 3.836602e+002 6.129704e+001 -8.000009e+000
         vertex 3.847875e-007 1.164525e+001 -8.000009e+000
         vertex 1.387453e+002 3.745533e+002 -8.000009e+000
      endloop
   endfacet
   facet normal -2.775558e-017 4.807407e-017 -1.000000e+000
      outer loop
         vertex 1.387453e+002 3.745533e+002 -8.000009e+000
         vertex 3.847875e-007 1.164525e+001 -8.000009e+000
         vertex -2.866648e+001 6.129704e+001 -8.000009e+000
      endloop
   endfacet
   facet normal -2.775558e-017 4.807407e-017 -1.000000e+000
      outer loop
         vertex 1.387453e+002 3.745533e+002 -8.000009e+000
         vertex -2.866648e+001 6.129704e+001 -8.000009e+000
         vertex -3.875155e+001 6.711966e+001 -8.000009e+000
      endloop
   endfacet
   facet normal 0.000000e+000 0.000000e+000 1.000000e+000
      outer loop
         vertex 3.836602e+002 6.129704e+001 7.999994e+000
         vertex 3.937453e+002 6.711966e+001 7.999994e+000
         vertex 3.847875e-007 1.164525e+001 7.999994e+000
      endloop
   endfacet
   facet normal 0.000000e+000 0.000000e+000 1.000000e+000
      outer loop
         vertex 3.847875e-007 1.164525e+001 7.999994e+000
         vertex 3.937453e+002 6.711966e+001 7.999994e+000
         vertex -2.866648e+001 6.129704e+001 7.999994e+000
      endloop
   endfacet
   facet normal 0.000000e+000 0.000000e+000 1.000000e+000
      outer loop
         vertex 3.847875e-007 -1.971058e-007 7.999994e+000
         vertex 3.549938e+002 -1.971058e-007 7.999994e+000
         vertex 3.847875e-007 1.164525e+001 7.999994e+000
      endloop
   endfacet
   facet normal 0.000000e+000 0.000000e+000 1.000000e+000
      outer loop
         vertex 3.847875e-007 1.164525e+001 7.999994e+000
         vertex 3.549938e+002 -1.971058e-007 7.999994e+000
         vertex 3.549938e+002 1.164525e+001 7.999994e+000
      endloop
   endfacet
   facet normal 0.000000e+000 0.000000e+000 1.000000e+000
      outer loop
         vertex 3.847875e-007 1.164525e+001 7.999994e+000
         vertex 3.549938e+002 1.164525e+001 7.999994e+000
         vertex 3.836602e+002 6.129704e+001 7.999994e+000
      endloop
   endfacet
   facet normal 0.000000e+000 0.000000e+000 1.000000e+000
      outer loop
         vertex 1.387453e+002 3.745533e+002 7.999994e+000
         vertex -3.875155e+001 6.711966e+001 7.999994e+000
         vertex 1.488304e+002 3.687307e+002 7.999994e+000
      endloop
   endfacet
   facet normal 0.000000e+000 0.000000e+000 1.000000e+000
      outer loop
         vertex 1.488304e+002 3.687307e+002 7.999994e+000
         vertex -3.875155e+001 6.711966e+001 7.999994e+000
         vertex -2.866648e+001 6.129704e+001 7.999994e+000
      endloop
   endfacet
   facet normal 0.000000e+000 0.000000e+000 1.000000e+000
      outer loop
         vertex 1.488304e+002 3.687307e+002 7.999994e+000
         vertex -2.866648e+001 6.129704e+001 7.999994e+000
         vertex 2.061634e+002 3.687307e+002 7.999994e+000
      endloop
   endfacet
   facet normal 0.000000e+000 0.000000e+000 1.000000e+000
      outer loop
         vertex 2.061634e+002 3.687307e+002 7.999994e+000
         vertex -2.866648e+001 6.129704e+001 7.999994e+000
         vertex 3.937453e+002 6.711966e+001 7.999994e+000
      endloop
   endfacet
   facet normal 0.000000e+000 0.000000e+000 1.000000e+000
      outer loop
         vertex 2.061634e+002 3.687307e+002 7.999994e+000
         vertex 3.937453e+002 6.711966e+001 7.999994e+000
         vertex 2.162484e+002 3.745533e+002 7.999994e+000
      endloop
   endfacet
   facet normal 8.660254e-001 5.000000e-001 0.000000e+000
      outer loop
         vertex 3.937453e+002 6.711966e+001 -8.000009e+000
         vertex 2.162484e+002 3.745533e+002 -8.000009e+000
         vertex 3.937453e+002 6.711966e+001 7.999994e+000
      endloop
   endfacet
   facet normal 8.660254e-001 5.000000e-001 0.000000e+000
      outer loop
         vertex 3.937453e+002 6.711966e+001 7.999994e+000
         vertex 2.162484e+002 3.745533e+002 -8.000009e+000
         vertex 2.162484e+002 3.745533e+002 7.999994e+000
      endloop
   endfacet
   facet normal 4.205390e-017 -1.000000e+000 0.000000e+000
      outer loop
         vertex 3.847875e-007 -1.971058e-007 -8.000009e+000
         vertex 3.549938e+002 -1.971058e-007 -8.000009e+000
         vertex 3.847875e-007 -1.971058e-007 7.999994e+000
      endloop
   endfacet
   facet normal 4.205390e-017 -1.000000e+000 0.000000e+000
      outer loop
         vertex 3.847875e-007 -1.971058e-007 7.999994e+000
         vertex 3.549938e+002 -1.971058e-007 -8.000009e+000
         vertex 3.549938e+002 -1.971058e-007 7.999994e+000
      endloop
   endfacet
   facet normal -8.660254e-001 5.000000e-001 0.000000e+000
      outer loop
         vertex 1.387453e+002 3.745533e+002 -8.000009e+000
         vertex -3.875155e+001 6.711966e+001 -8.000009e+000
         vertex 1.387453e+002 3.745533e+002 7.999994e+000
      endloop
   endfacet
   facet normal -8.660254e-001 5.000000e-001 0.000000e+000
      outer loop
         vertex 1.387453e+002 3.745533e+002 7.999994e+000
         vertex -3.875155e+001 6.711966e+001 -8.000009e+000
         vertex -3.875155e+001 6.711966e+001 7.999994e+000
      endloop
   endfacet
   facet normal 0.000000e+000 1.000000e+000 4.807407e-017
      outer loop
         vertex 2.061634e+002 3.687307e+002 -5.500010e+000
         vertex 2.061634e+002 3.687307e+002 -8.000009e+000
         vertex 1.488304e+002 3.687307e+002 -5.500010e+000
      endloop
   endfacet
   facet normal 0.000000e+000 1.000000e+000 4.807407e-017
      outer loop
         vertex 1.488304e+002 3.687307e+002 -5.500010e+000
         vertex 2.061634e+002 3.687307e+002 -8.000009e+000
         vertex 1.488304e+002 3.687307e+002 -8.000009e+000
      endloop
   endfacet
   facet normal -5.000000e-001 8.660254e-001 5.551115e-017
      outer loop
         vertex 2.061634e+002 3.687307e+002 -8.000009e+000
         vertex 2.061634e+002 3.687307e+002 -5.500010e+000
         vertex 2.093203e+002 3.705533e+002 -5.500010e+000
      endloop
   endfacet
   facet normal -5.000000e-001 8.660254e-001 5.551115e-017
      outer loop
         vertex 2.061634e+002 3.687307e+002 5.499997e+000
         vertex 2.061634e+002 3.687307e+002 7.999994e+000
         vertex 2.093203e+002 3.705533e+002 5.499997e+000
      endloop
   endfacet
   facet normal -5.000000e-001 8.660254e-001 5.551115e-017
      outer loop
         vertex 2.093203e+002 3.705533e+002 5.499997e+000
         vertex 2.061634e+002 3.687307e+002 7.999994e+000
         vertex 2.162484e+002 3.745533e+002 7.999994e+000
      endloop
   endfacet
   facet normal -5.000000e-001 8.660254e-001 5.551115e-017
      outer loop
         vertex 2.093203e+002 3.705533e+002 5.499997e+000
         vertex 2.162484e+002 3.745533e+002 7.999994e+000
         vertex 2.093203e+002 3.705533e+002 -5.500010e+000
      endloop
   endfacet
   facet normal -5.000000e-001 8.660254e-001 5.551115e-017
      outer loop
         vertex 2.093203e+002 3.705533e+002 -5.500010e+000
         vertex 2.162484e+002 3.745533e+002 7.999994e+000
         vertex 2.162484e+002 3.745533e+002 -8.000009e+000
      endloop
   endfacet
   facet normal -5.000000e-001 8.660254e-001 5.551115e-017
      outer loop
         vertex 2.093203e+002 3.705533e+002 -5.500010e+000
         vertex 2.162484e+002 3.745533e+002 -8.000009e+000
         vertex 2.061634e+002 3.687307e+002 -8.000009e+000
      endloop
   endfacet
   facet normal 0.000000e+000 1.000000e+000 4.807407e-017
      outer loop
         vertex 1.488304e+002 3.687307e+002 5.499997e+000
         vertex 1.488304e+002 3.687307e+002 7.999994e+000
         vertex 2.061634e+002 3.687307e+002 5.499997e+000
      endloop
   endfacet
   facet normal 0.000000e+000 1.000000e+000 4.807407e-017
      outer loop
         vertex 2.061634e+002 3.687307e+002 5.499997e+000
         vertex 1.488304e+002 3.687307e+002 7.999994e+000
         vertex 2.061634e+002 3.687307e+002 7.999994e+000
      endloop
   endfacet
   facet normal 5.000000e-001 8.660254e-001 2.775558e-017
      outer loop
         vertex 1.488304e+002 3.687307e+002 7.999994e+000
         vertex 1.488304e+002 3.687307e+002 5.499997e+000
         vertex 1.456735e+002 3.705533e+002 5.499997e+000
      endloop
   endfacet
   facet normal 5.000000e-001 8.660254e-001 2.775558e-017
      outer loop
         vertex 1.488304e+002 3.687307e+002 -5.500010e+000
         vertex 1.488304e+002 3.687307e+002 -8.000009e+000
         vertex 1.456735e+002 3.705533e+002 -5.500010e+000
      endloop
   endfacet
   facet normal 5.000000e-001 8.660254e-001 2.775558e-017
      outer loop
         vertex 1.456735e+002 3.705533e+002 -5.500010e+000
         vertex 1.488304e+002 3.687307e+002 -8.000009e+000
         vertex 1.387453e+002 3.745533e+002 -8.000009e+000
      endloop
   endfacet
   facet normal 5.000000e-001 8.660254e-001 2.775558e-017
      outer loop
         vertex 1.456735e+002 3.705533e+002 -5.500010e+000
         vertex 1.387453e+002 3.745533e+002 -8.000009e+000
         vertex 1.456735e+002 3.705533e+002 5.499997e+000
      endloop
   endfacet
   facet normal 5.000000e-001 8.660254e-001 2.775558e-017
      outer loop
         vertex 1.456735e+002 3.705533e+002 5.499997e+000
         vertex 1.387453e+002 3.745533e+002 -8.000009e+000
         vertex 1.387453e+002 3.745533e+002 7.999994e+000
      endloop
   endfacet
   facet normal 5.000000e-001 8.660254e-001 2.775558e-017
      outer loop
         vertex 1.456735e+002 3.705533e+002 5.499997e+000
         vertex 1.387453e+002 3.745533e+002 7.999994e+000
         vertex 1.488304e+002 3.687307e+002 7.999994e+000
      endloop
   endfacet
   facet normal -7.672089e-001 6.413973e-001 0.000000e+000
      outer loop
         vertex 1.714347e+002 4.151730e+002 -5.500010e+000
         vertex 1.714347e+002 4.151730e+002 5.499997e+000
         vertex 1.739969e+002 4.177351e+002 5.499997e+000
      endloop
   endfacet
   facet normal -6.413973e-001 7.672089e-001 0.000000e+000
      outer loop
         vertex 1.714347e+002 4.151730e+002 -5.500010e+000
         vertex 1.739969e+002 4.177351e+002 5.499997e+000
         vertex 1.739969e+002 4.177351e+002 -5.500010e+000
      endloop
   endfacet
   facet normal -3.437238e-001 9.390708e-001 0.000000e+000
      outer loop
         vertex 1.739969e+002 4.177351e+002 -5.500010e+000
         vertex 1.739969e+002 4.177351e+002 5.499997e+000
         vertex 1.774969e+002 4.186729e+002 5.499997e+000
      endloop
   endfacet
   facet normal -1.718619e-001 9.851211e-001 0.000000e+000
      outer loop
         vertex 1.739969e+002 4.177351e+002 -5.500010e+000
         vertex 1.774969e+002 4.186729e+002 5.499997e+000
         vertex 1.774969e+002 4.186729e+002 -5.500010e+000
      endloop
   endfacet
   facet normal 1.718619e-001 9.851211e-001 0.000000e+000
      outer loop
         vertex 1.774969e+002 4.186729e+002 -5.500010e+000
         vertex 1.774969e+002 4.186729e+002 5.499997e+000
         vertex 1.809969e+002 4.177351e+002 5.499997e+000
      endloop
   endfacet
   facet normal 3.437238e-001 9.390708e-001 0.000000e+000
      outer loop
         vertex 1.774969e+002 4.186729e+002 -5.500010e+000
         vertex 1.809969e+002 4.177351e+002 5.499997e+000
         vertex 1.809969e+002 4.177351e+002 -5.500010e+000
      endloop
   endfacet
   facet normal 6.413973e-001 7.672089e-001 0.000000e+000
      outer loop
         vertex 1.809969e+002 4.177351e+002 -5.500010e+000
         vertex 1.809969e+002 4.177351e+002 5.499997e+000
         vertex 1.835591e+002 4.151730e+002 5.499997e+000
      endloop
   endfacet
   facet normal 7.672089e-001 6.413973e-001 0.000000e+000
      outer loop
         vertex 1.809969e+002 4.177351e+002 -5.500010e+000
         vertex 1.835591e+002 4.151730e+002 5.499997e+000
         vertex 1.835591e+002 4.151730e+002 -5.500010e+000
      endloop
   endfacet
   facet normal -8.660254e-001 5.000000e-001 0.000000e+000
      outer loop
         vertex 1.714347e+002 4.151730e+002 5.499997e+000
         vertex 1.714347e+002 4.151730e+002 -5.500010e+000
         vertex 1.456735e+002 3.705533e+002 5.499997e+000
      endloop
   endfacet
   facet normal -8.660254e-001 5.000000e-001 0.000000e+000
      outer loop
         vertex 1.456735e+002 3.705533e+002 5.499997e+000
         vertex 1.714347e+002 4.151730e+002 -5.500010e+000
         vertex 1.456735e+002 3.705533e+002 -5.500010e+000
      endloop
   endfacet
   facet normal 8.660254e-001 5.000000e-001 0.000000e+000
      outer loop
         vertex 1.835591e+002 4.151730e+002 -5.500010e+000
         vertex 1.835591e+002 4.151730e+002 5.499997e+000
         vertex 2.093203e+002 3.705533e+002 -5.500010e+000
      endloop
   endfacet
   facet normal 8.660254e-001 5.000000e-001 0.000000e+000
      outer loop
         vertex 2.093203e+002 3.705533e+002 -5.500010e+000
         vertex 1.835591e+002 4.151730e+002 5.499997e+000
         vertex 2.093203e+002 3.705533e+002 5.499997e+000
      endloop
   endfacet
   facet normal 0.000000e+000 0.000000e+000 1.000000e+000
      outer loop
         vertex 2.061634e+002 3.687307e+002 5.499997e+000
         vertex 2.093203e+002 3.705533e+002 5.499997e+000
         vertex 1.488304e+002 3.687307e+002 5.499997e+000
      endloop
   endfacet
   facet normal 0.000000e+000 0.000000e+000 1.000000e+000
      outer loop
         vertex 1.488304e+002 3.687307e+002 5.499997e+000
         vertex 2.093203e+002 3.705533e+002 5.499997e+000
         vertex 1.835591e+002 4.151730e+002 5.499997e+000
      endloop
   endfacet
   facet normal 0.000000e+000 0.000000e+000 1.000000e+000
      outer loop
         vertex 1.488304e+002 3.687307e+002 5.499997e+000
         vertex 1.835591e+002 4.151730e+002 5.499997e+000
         vertex 1.456735e+002 3.705533e+002 5.499997e+000
      endloop
   endfacet
   facet normal 0.000000e+000 0.000000e+000 1.000000e+000
      outer loop
         vertex 1.835591e+002 4.151730e+002 5.499997e+000
         vertex 1.809969e+002 4.177351e+002 5.499997e+000
         vertex 1.774969e+002 4.186729e+002 5.499997e+000
      endloop
   endfacet
   facet normal 0.000000e+000 0.000000e+000 1.000000e+000
      outer loop
         vertex 1.456735e+002 3.705533e+002 5.499997e+000
         vertex 1.835591e+002 4.151730e+002 5.499997e+000
         vertex 1.714347e+002 4.151730e+002 5.499997e+000
      endloop
   endfacet
   facet normal 0.000000e+000 0.000000e+000 1.000000e+000
      outer loop
         vertex 1.714347e+002 4.151730e+002 5.499997e+000
         vertex 1.835591e+002 4.151730e+002 5.499997e+000
         vertex 1.774969e+002 4.186729e+002 5.499997e+000
      endloop
   endfacet
   facet normal 0.000000e+000 0.000000e+000 1.000000e+000
      outer loop
         vertex 1.714347e+002 4.151730e+002 5.499997e+000
         vertex 1.774969e+002 4.186729e+002 5.499997e+000
         vertex 1.739969e+002 4.177351e+002 5.499997e+000
      endloop
   endfacet
   facet normal -2.775558e-017 4.807407e-017 -1.000000e+000
      outer loop
         vertex 1.774969e+002 4.186729e+002 -5.500010e+000
         vertex 1.809969e+002 4.177351e+002 -5.500010e+000
         vertex 1.835591e+002 4.151730e+002 -5.500010e+000
      endloop
   endfacet
   facet normal -2.775558e-017 4.807407e-017 -1.000000e+000
      outer loop
         vertex 2.093203e+002 3.705533e+002 -5.500010e+000
         vertex 2.061634e+002 3.687307e+002 -5.500010e+000
         vertex 1.714347e+002 4.151730e+002 -5.500010e+000
      endloop
   endfacet
   facet normal -2.775558e-017 4.807407e-017 -1.000000e+000
      outer loop
         vertex 1.714347e+002 4.151730e+002 -5.500010e+000
         vertex 2.061634e+002 3.687307e+002 -5.500010e+000
         vertex 1.488304e+002 3.687307e+002 -5.500010e+000
      endloop
   endfacet
   facet normal -2.775558e-017 4.807407e-017 -1.000000e+000
      outer loop
         vertex 1.714347e+002 4.151730e+002 -5.500010e+000
         vertex 1.488304e+002 3.687307e+002 -5.500010e+000
         vertex 1.456735e+002 3.705533e+002 -5.500010e+000
      endloop
   endfacet
   facet normal -2.775558e-017 4.807407e-017 -1.000000e+000
      outer loop
         vertex 2.093203e+002 3.705533e+002 -5.500010e+000
         vertex 1.714347e+002 4.151730e+002 -5.500010e+000
         vertex 1.835591e+002 4.151730e+002 -5.500010e+000
      endloop
   endfacet
   facet normal -2.775558e-017 4.807407e-017 -1.000000e+000
      outer loop
         vertex 1.835591e+002 4.151730e+002 -5.500010e+000
         vertex 1.714347e+002 4.151730e+002 -5.500010e+000
         vertex 1.739969e+002 4.177351e+002 -5.500010e+000
      endloop
   endfacet
   facet normal -2.775558e-017 4.807407e-017 -1.000000e+000
      outer loop
         vertex 1.835591e+002 4.151730e+002 -5.500010e+000
         vertex 1.739969e+002 4.177351e+002 -5.500010e+000
         vertex 1.774969e+002 4.186729e+002 -5.500010e+000
      endloop
   endfacet
   facet normal -8.660254e-001 -5.000000e-001 3.009266e-032
      outer loop
         vertex 3.847875e-007 1.164525e+001 7.999994e+000
         vertex -2.866648e+001 6.129704e+001 7.999994e+000
         vertex 3.847875e-007 1.164525e+001 5.499997e+000
      endloop
   endfacet
   facet normal -8.660254e-001 -5.000000e-001 3.009266e-032
      outer loop
         vertex 3.847875e-007 1.164525e+001 5.499997e+000
         vertex -2.866648e+001 6.129704e+001 7.999994e+000
         vertex -2.866648e+001 6.129704e+001 5.499997e+000
      endloop
   endfacet
   facet normal -5.000000e-001 -8.660254e-001 -2.775558e-017
      outer loop
         vertex -2.866648e+001 6.129704e+001 -8.000009e+000
         vertex -2.866648e+001 6.129704e+001 -5.500010e+000
         vertex -3.182335e+001 6.311966e+001 -5.500010e+000
      endloop
   endfacet
   facet normal -5.000000e-001 -8.660254e-001 -2.775558e-017
      outer loop
         vertex -2.866648e+001 6.129704e+001 5.499997e+000
         vertex -2.866648e+001 6.129704e+001 7.999994e+000
         vertex -3.182335e+001 6.311966e+001 5.499997e+000
      endloop
   endfacet
   facet normal -5.000000e-001 -8.660254e-001 -2.775558e-017
      outer loop
         vertex -3.182335e+001 6.311966e+001 5.499997e+000
         vertex -2.866648e+001 6.129704e+001 7.999994e+000
         vertex -3.875155e+001 6.711966e+001 7.999994e+000
      endloop
   endfacet
   facet normal -5.000000e-001 -8.660254e-001 -2.775558e-017
      outer loop
         vertex -3.182335e+001 6.311966e+001 5.499997e+000
         vertex -3.875155e+001 6.711966e+001 7.999994e+000
         vertex -3.182335e+001 6.311966e+001 -5.500010e+000
      endloop
   endfacet
   facet normal -5.000000e-001 -8.660254e-001 -2.775558e-017
      outer loop
         vertex -3.182335e+001 6.311966e+001 -5.500010e+000
         vertex -3.875155e+001 6.711966e+001 7.999994e+000
         vertex -3.875155e+001 6.711966e+001 -8.000009e+000
      endloop
   endfacet
   facet normal -5.000000e-001 -8.660254e-001 -2.775558e-017
      outer loop
         vertex -3.182335e+001 6.311966e+001 -5.500010e+000
         vertex -3.875155e+001 6.711966e+001 -8.000009e+000
         vertex -2.866648e+001 6.129704e+001 -8.000009e+000
      endloop
   endfacet
   facet normal -8.660254e-001 -5.000000e-001 3.009266e-032
      outer loop
         vertex -2.866648e+001 6.129704e+001 -5.500010e+000
         vertex -2.866648e+001 6.129704e+001 -8.000009e+000
         vertex 3.847875e-007 1.164525e+001 -5.500010e+000
      endloop
   endfacet
   facet normal -8.660254e-001 -5.000000e-001 3.009266e-032
      outer loop
         vertex 3.847875e-007 1.164525e+001 -5.500010e+000
         vertex -2.866648e+001 6.129704e+001 -8.000009e+000
         vertex 3.847875e-007 1.164525e+001 -8.000009e+000
      endloop
   endfacet
   facet normal -1.000000e+000 0.000000e+000 2.775558e-017
      outer loop
         vertex 3.847875e-007 1.164525e+001 7.999994e+000
         vertex 3.847875e-007 1.164525e+001 5.499997e+000
         vertex 3.847875e-007 8.000001e+000 5.499997e+000
      endloop
   endfacet
   facet normal -1.000000e+000 0.000000e+000 2.775558e-017
      outer loop
         vertex 3.847875e-007 1.164525e+001 -5.500010e+000
         vertex 3.847875e-007 1.164525e+001 -8.000009e+000
         vertex 3.847875e-007 8.000001e+000 -5.500010e+000
      endloop
   endfacet
   facet normal -1.000000e+000 0.000000e+000 2.775558e-017
      outer loop
         vertex 3.847875e-007 8.000001e+000 -5.500010e+000
         vertex 3.847875e-007 1.164525e+001 -8.000009e+000
         vertex 3.847875e-007 -1.971058e-007 -8.000009e+000
      endloop
   endfacet
   facet normal -1.000000e+000 0.000000e+000 2.775558e-017
      outer loop
         vertex 3.847875e-007 8.000001e+000 -5.500010e+000
         vertex 3.847875e-007 -1.971058e-007 -8.000009e+000
         vertex 3.847875e-007 8.000001e+000 5.499997e+000
      endloop
   endfacet
   facet normal -1.000000e+000 0.000000e+000 2.775558e-017
      outer loop
         vertex 3.847875e-007 8.000001e+000 5.499997e+000
         vertex 3.847875e-007 -1.971058e-007 -8.000009e+000
         vertex 3.847875e-007 -1.971058e-007 7.999994e+000
      endloop
   endfacet
   facet normal -1.000000e+000 0.000000e+000 2.775558e-017
      outer loop
         vertex 3.847875e-007 8.000001e+000 5.499997e+000
         vertex 3.847875e-007 -1.971058e-007 7.999994e+000
         vertex 3.847875e-007 1.164525e+001 7.999994e+000
      endloop
   endfacet
   facet normal -1.718619e-001 -9.851211e-001 0.000000e+000
      outer loop
         vertex -5.152235e+001 8.000001e+000 -5.500010e+000
         vertex -5.152235e+001 8.000001e+000 5.499997e+000
         vertex -5.502235e+001 8.937820e+000 5.499997e+000
      endloop
   endfacet
   facet normal -3.437238e-001 -9.390708e-001 0.000000e+000
      outer loop
         vertex -5.152235e+001 8.000001e+000 -5.500010e+000
         vertex -5.502235e+001 8.937820e+000 5.499997e+000
         vertex -5.502235e+001 8.937820e+000 -5.500010e+000
      endloop
   endfacet
   facet normal -6.413973e-001 -7.672089e-001 0.000000e+000
      outer loop
         vertex -5.502235e+001 8.937820e+000 -5.500010e+000
         vertex -5.502235e+001 8.937820e+000 5.499997e+000
         vertex -5.758453e+001 1.150000e+001 5.499997e+000
      endloop
   endfacet
   facet normal -7.672089e-001 -6.413973e-001 0.000000e+000
      outer loop
         vertex -5.502235e+001 8.937820e+000 -5.500010e+000
         vertex -5.758453e+001 1.150000e+001 5.499997e+000
         vertex -5.758453e+001 1.150000e+001 -5.500010e+000
      endloop
   endfacet
   facet normal -9.390708e-001 -3.437238e-001 0.000000e+000
      outer loop
         vertex -5.758453e+001 1.150000e+001 -5.500010e+000
         vertex -5.758453e+001 1.150000e+001 5.499997e+000
         vertex -5.852235e+001 1.500000e+001 5.499997e+000
      endloop
   endfacet
   facet normal -9.851211e-001 -1.718619e-001 0.000000e+000
      outer loop
         vertex -5.758453e+001 1.150000e+001 -5.500010e+000
         vertex -5.852235e+001 1.500000e+001 5.499997e+000
         vertex -5.852235e+001 1.500000e+001 -5.500010e+000
      endloop
   endfacet
   facet normal -9.851211e-001 1.718619e-001 0.000000e+000
      outer loop
         vertex -5.852235e+001 1.500000e+001 -5.500010e+000
         vertex -5.852235e+001 1.500000e+001 5.499997e+000
         vertex -5.758453e+001 1.850000e+001 5.499997e+000
      endloop
   endfacet
   facet normal -9.390708e-001 3.437238e-001 0.000000e+000
      outer loop
         vertex -5.852235e+001 1.500000e+001 -5.500010e+000
         vertex -5.758453e+001 1.850000e+001 5.499997e+000
         vertex -5.758453e+001 1.850000e+001 -5.500010e+000
      endloop
   endfacet
   facet normal 1.408844e-016 -1.000000e+000 0.000000e+000
      outer loop
         vertex -5.152235e+001 8.000001e+000 5.499997e+000
         vertex -5.152235e+001 8.000001e+000 -5.500010e+000
         vertex 3.847875e-007 8.000001e+000 5.499997e+000
      endloop
   endfacet
   facet normal 1.408844e-016 -1.000000e+000 0.000000e+000
      outer loop
         vertex 3.847875e-007 8.000001e+000 5.499997e+000
         vertex -5.152235e+001 8.000001e+000 -5.500010e+000
         vertex 3.847875e-007 8.000001e+000 -5.500010e+000
      endloop
   endfacet
   facet normal -8.660254e-001 5.000000e-001 0.000000e+000
      outer loop
         vertex -5.758453e+001 1.850000e+001 -5.500010e+000
         vertex -5.758453e+001 1.850000e+001 5.499997e+000
         vertex -3.182335e+001 6.311966e+001 -5.500010e+000
      endloop
   endfacet
   facet normal -8.660254e-001 5.000000e-001 0.000000e+000
      outer loop
         vertex -3.182335e+001 6.311966e+001 -5.500010e+000
         vertex -5.758453e+001 1.850000e+001 5.499997e+000
         vertex -3.182335e+001 6.311966e+001 5.499997e+000
      endloop
   endfacet
   facet normal 0.000000e+000 0.000000e+000 1.000000e+000
      outer loop
         vertex -5.152235e+001 8.000001e+000 5.499997e+000
         vertex 3.847875e-007 8.000001e+000 5.499997e+000
         vertex -5.758453e+001 1.850000e+001 5.499997e+000
      endloop
   endfacet
   facet normal 0.000000e+000 0.000000e+000 1.000000e+000
      outer loop
         vertex 3.847875e-007 8.000001e+000 5.499997e+000
         vertex 3.847875e-007 1.164525e+001 5.499997e+000
         vertex -5.758453e+001 1.850000e+001 5.499997e+000
      endloop
   endfacet
   facet normal 0.000000e+000 0.000000e+000 1.000000e+000
      outer loop
         vertex -5.758453e+001 1.850000e+001 5.499997e+000
         vertex 3.847875e-007 1.164525e+001 5.499997e+000
         vertex -2.866648e+001 6.129704e+001 5.499997e+000
      endloop
   endfacet
   facet normal 0.000000e+000 0.000000e+000 1.000000e+000
      outer loop
         vertex -5.758453e+001 1.850000e+001 5.499997e+000
         vertex -2.866648e+001 6.129704e+001 5.499997e+000
         vertex -3.182335e+001 6.311966e+001 5.499997e+000
      endloop
   endfacet
   facet normal 0.000000e+000 0.000000e+000 1.000000e+000
      outer loop
         vertex -5.852235e+001 1.500000e+001 5.499997e+000
         vertex -5.758453e+001 1.150000e+001 5.499997e+000
         vertex -5.758453e+001 1.850000e+001 5.499997e+000
      endloop
   endfacet
   facet normal 0.000000e+000 0.000000e+000 1.000000e+000
      outer loop
         vertex -5.758453e+001 1.850000e+001 5.499997e+000
         vertex -5.758453e+001 1.150000e+001 5.499997e+000
         vertex -5.502235e+001 8.937820e+000 5.499997e+000
      endloop
   endfacet
   facet normal 0.000000e+000 0.000000e+000 1.000000e+000
      outer loop
         vertex -5.758453e+001 1.850000e+001 5.499997e+000
         vertex -5.502235e+001 8.937820e+000 5.499997e+000
         vertex -5.152235e+001 8.000001e+000 5.499997e+000
      endloop
   endfacet
   facet normal -2.775558e-017 4.807407e-017 -1.000000e+000
      outer loop
         vertex 3.847875e-007 1.164525e+001 -5.500010e+000
         vertex 3.847875e-007 8.000001e+000 -5.500010e+000
         vertex -2.866648e+001 6.129704e+001 -5.500010e+000
      endloop
   endfacet
   facet normal -2.775558e-017 4.807407e-017 -1.000000e+000
      outer loop
         vertex -2.866648e+001 6.129704e+001 -5.500010e+000
         vertex 3.847875e-007 8.000001e+000 -5.500010e+000
         vertex -5.152235e+001 8.000001e+000 -5.500010e+000
      endloop
   endfacet
   facet normal -2.775558e-017 4.807407e-017 -1.000000e+000
      outer loop
         vertex -2.866648e+001 6.129704e+001 -5.500010e+000
         vertex -5.152235e+001 8.000001e+000 -5.500010e+000
         vertex -3.182335e+001 6.311966e+001 -5.500010e+000
      endloop
   endfacet
   facet normal -2.775558e-017 4.807407e-017 -1.000000e+000
      outer loop
         vertex -3.182335e+001 6.311966e+001 -5.500010e+000
         vertex -5.152235e+001 8.000001e+000 -5.500010e+000
         vertex -5.758453e+001 1.850000e+001 -5.500010e+000
      endloop
   endfacet
   facet normal -2.775558e-017 4.807407e-017 -1.000000e+000
      outer loop
         vertex -5.502235e+001 8.937820e+000 -5.500010e+000
         vertex -5.758453e+001 1.150000e+001 -5.500010e+000
         vertex -5.152235e+001 8.000001e+000 -5.500010e+000
      endloop
   endfacet
   facet normal -2.775558e-017 4.807407e-017 -1.000000e+000
      outer loop
         vertex -5.152235e+001 8.000001e+000 -5.500010e+000
         vertex -5.758453e+001 1.150000e+001 -5.500010e+000
         vertex -5.852235e+001 1.500000e+001 -5.500010e+000
      endloop
   endfacet
   facet normal -2.775558e-017 4.807407e-017 -1.000000e+000
      outer loop
         vertex -5.152235e+001 8.000001e+000 -5.500010e+000
         vertex -5.852235e+001 1.500000e+001 -5.500010e+000
         vertex -5.758453e+001 1.850000e+001 -5.500010e+000
      endloop
   endfacet
   facet normal 8.660254e-001 -5.000000e-001 -4.807407e-017
      outer loop
         vertex 3.549938e+002 1.164525e+001 -8.000009e+000
         vertex 3.836602e+002 6.129704e+001 -8.000009e+000
         vertex 3.549938e+002 1.164525e+001 -5.500010e+000
      endloop
   endfacet
   facet normal 8.660254e-001 -5.000000e-001 -4.807407e-017
      outer loop
         vertex 3.549938e+002 1.164525e+001 -5.500010e+000
         vertex 3.836602e+002 6.129704e+001 -8.000009e+000
         vertex 3.836602e+002 6.129704e+001 -5.500010e+000
      endloop
   endfacet
   facet normal 5.000000e-001 -8.660254e-001 -5.551115e-017
      outer loop
         vertex 3.836602e+002 6.129704e+001 7.999994e+000
         vertex 3.836602e+002 6.129704e+001 5.499997e+000
         vertex 3.868171e+002 6.311966e+001 5.499997e+000
      endloop
   endfacet
   facet normal 5.000000e-001 -8.660254e-001 -5.551115e-017
      outer loop
         vertex 3.836602e+002 6.129704e+001 -5.500010e+000
         vertex 3.836602e+002 6.129704e+001 -8.000009e+000
         vertex 3.868171e+002 6.311966e+001 -5.500010e+000
      endloop
   endfacet
   facet normal 5.000000e-001 -8.660254e-001 -5.551115e-017
      outer loop
         vertex 3.868171e+002 6.311966e+001 -5.500010e+000
         vertex 3.836602e+002 6.129704e+001 -8.000009e+000
         vertex 3.937453e+002 6.711966e+001 -8.000009e+000
      endloop
   endfacet
   facet normal 5.000000e-001 -8.660254e-001 -5.551115e-017
      outer loop
         vertex 3.868171e+002 6.311966e+001 -5.500010e+000
         vertex 3.937453e+002 6.711966e+001 -8.000009e+000
         vertex 3.868171e+002 6.311966e+001 5.499997e+000
      endloop
   endfacet
   facet normal 5.000000e-001 -8.660254e-001 -5.551115e-017
      outer loop
         vertex 3.868171e+002 6.311966e+001 5.499997e+000
         vertex 3.937453e+002 6.711966e+001 -8.000009e+000
         vertex 3.937453e+002 6.711966e+001 7.999994e+000
      endloop
   endfacet
   facet normal 5.000000e-001 -8.660254e-001 -5.551115e-017
      outer loop
         vertex 3.868171e+002 6.311966e+001 5.499997e+000
         vertex 3.937453e+002 6.711966e+001 7.999994e+000
         vertex 3.836602e+002 6.129704e+001 7.999994e+000
      endloop
   endfacet
   facet normal 1.000000e+000 -5.675179e-014 -2.775558e-017
      outer loop
         vertex 3.549938e+002 1.164525e+001 -8.000009e+000
         vertex 3.549938e+002 1.164525e+001 -5.500010e+000
         vertex 3.549938e+002 8.000001e+000 -5.500010e+000
      endloop
   endfacet
   facet normal 1.000000e+000 -5.675179e-014 -2.775558e-017
      outer loop
         vertex 3.549938e+002 1.164525e+001 5.499997e+000
         vertex 3.549938e+002 1.164525e+001 7.999994e+000
         vertex 3.549938e+002 8.000001e+000 5.499997e+000
      endloop
   endfacet
   facet normal 1.000000e+000 -5.675179e-014 -2.775558e-017
      outer loop
         vertex 3.549938e+002 8.000001e+000 5.499997e+000
         vertex 3.549938e+002 1.164525e+001 7.999994e+000
         vertex 3.549938e+002 -1.971058e-007 7.999994e+000
      endloop
   endfacet
   facet normal 1.000000e+000 -5.675179e-014 -2.775558e-017
      outer loop
         vertex 3.549938e+002 8.000001e+000 5.499997e+000
         vertex 3.549938e+002 -1.971058e-007 7.999994e+000
         vertex 3.549938e+002 8.000001e+000 -5.500010e+000
      endloop
   endfacet
   facet normal 1.000000e+000 -5.675179e-014 -2.775558e-017
      outer loop
         vertex 3.549938e+002 8.000001e+000 -5.500010e+000
         vertex 3.549938e+002 -1.971058e-007 7.999994e+000
         vertex 3.549938e+002 -1.971058e-007 -8.000009e+000
      endloop
   endfacet
   facet normal 1.000000e+000 -5.675179e-014 -2.775558e-017
      outer loop
         vertex 3.549938e+002 8.000001e+000 -5.500010e+000
         vertex 3.549938e+002 -1.971058e-007 -8.000009e+000
         vertex 3.549938e+002 1.164525e+001 -8.000009e+000
      endloop
   endfacet
   facet normal 8.660254e-001 -5.000000e-001 -4.807407e-017
      outer loop
         vertex 3.836602e+002 6.129704e+001 5.499997e+000
         vertex 3.836602e+002 6.129704e+001 7.999994e+000
         vertex 3.549938e+002 1.164525e+001 5.499997e+000
      endloop
   endfacet
   facet normal 8.660254e-001 -5.000000e-001 -4.807407e-017
      outer loop
         vertex 3.549938e+002 1.164525e+001 5.499997e+000
         vertex 3.836602e+002 6.129704e+001 7.999994e+000
         vertex 3.549938e+002 1.164525e+001 7.999994e+000
      endloop
   endfacet
   facet normal 9.390708e-001 3.437238e-001 0.000000e+000
      outer loop
         vertex 4.125783e+002 1.850000e+001 -5.500010e+000
         vertex 4.125783e+002 1.850000e+001 5.499997e+000
         vertex 4.135161e+002 1.500000e+001 5.499997e+000
      endloop
   endfacet
   facet normal 9.851211e-001 1.718619e-001 0.000000e+000
      outer loop
         vertex 4.125783e+002 1.850000e+001 -5.500010e+000
         vertex 4.135161e+002 1.500000e+001 5.499997e+000
         vertex 4.135161e+002 1.500000e+001 -5.500010e+000
      endloop
   endfacet
   facet normal 9.851211e-001 -1.718619e-001 0.000000e+000
      outer loop
         vertex 4.135161e+002 1.500000e+001 -5.500010e+000
         vertex 4.135161e+002 1.500000e+001 5.499997e+000
         vertex 4.125783e+002 1.150000e+001 5.499997e+000
      endloop
   endfacet
   facet normal 9.390708e-001 -3.437238e-001 0.000000e+000
      outer loop
         vertex 4.135161e+002 1.500000e+001 -5.500010e+000
         vertex 4.125783e+002 1.150000e+001 5.499997e+000
         vertex 4.125783e+002 1.150000e+001 -5.500010e+000
      endloop
   endfacet
   facet normal 7.672089e-001 -6.413973e-001 0.000000e+000
      outer loop
         vertex 4.125783e+002 1.150000e+001 -5.500010e+000
         vertex 4.125783e+002 1.150000e+001 5.499997e+000
         vertex 4.100161e+002 8.937820e+000 5.499997e+000
      endloop
   endfacet
   facet normal 6.413973e-001 -7.672089e-001 0.000000e+000
      outer loop
         vertex 4.125783e+002 1.150000e+001 -5.500010e+000
         vertex 4.100161e+002 8.937820e+000 5.499997e+000
         vertex 4.100161e+002 8.937820e+000 -5.500010e+000
      endloop
   endfacet
   facet normal 3.437238e-001 -9.390708e-001 0.000000e+000
      outer loop
         vertex 4.100161e+002 8.937820e+000 -5.500010e+000
         vertex 4.100161e+002 8.937820e+000 5.499997e+000
         vertex 4.065161e+002 8.000001e+000 5.499997e+000
      endloop
   endfacet
   facet normal 1.718619e-001 -9.851211e-001 0.000000e+000
      outer loop
         vertex 4.100161e+002 8.937820e+000 -5.500010e+000
         vertex 4.065161e+002 8.000001e+000 5.499997e+000
         vertex 4.065161e+002 8.000001e+000 -5.500010e+000
      endloop
   endfacet
   facet normal 8.660254e-001 5.000000e-001 0.000000e+000
      outer loop
         vertex 4.125783e+002 1.850000e+001 5.499997e+000
         vertex 4.125783e+002 1.850000e+001 -5.500010e+000
         vertex 3.868171e+002 6.311966e+001 5.499997e+000
      endloop
   endfacet
   facet normal 8.660254e-001 5.000000e-001 0.000000e+000
      outer loop
         vertex 3.868171e+002 6.311966e+001 5.499997e+000
         vertex 4.125783e+002 1.850000e+001 -5.500010e+000
         vertex 3.868171e+002 6.311966e+001 -5.500010e+000
      endloop
   endfacet
   facet normal 1.408844e-016 -1.000000e+000 0.000000e+000
      outer loop
         vertex 4.065161e+002 8.000001e+000 -5.500010e+000
         vertex 4.065161e+002 8.000001e+000 5.499997e+000
         vertex 3.549938e+002 8.000001e+000 -5.500010e+000
      endloop
   endfacet
   facet normal 1.408844e-016 -1.000000e+000 0.000000e+000
      outer loop
         vertex 3.549938e+002 8.000001e+000 -5.500010e+000
         vertex 4.065161e+002 8.000001e+000 5.499997e+000
         vertex 3.549938e+002 8.000001e+000 5.499997e+000
      endloop
   endfacet
   facet normal 0.000000e+000 0.000000e+000 1.000000e+000
      outer loop
         vertex 4.125783e+002 1.850000e+001 5.499997e+000
         vertex 3.868171e+002 6.311966e+001 5.499997e+000
         vertex 4.065161e+002 8.000001e+000 5.499997e+000
      endloop
   endfacet
   facet normal 0.000000e+000 0.000000e+000 1.000000e+000
      outer loop
         vertex 3.868171e+002 6.311966e+001 5.499997e+000
         vertex 3.836602e+002 6.129704e+001 5.499997e+000
         vertex 4.065161e+002 8.000001e+000 5.499997e+000
      endloop
   endfacet
   facet normal 0.000000e+000 0.000000e+000 1.000000e+000
      outer loop
         vertex 4.065161e+002 8.000001e+000 5.499997e+000
         vertex 3.836602e+002 6.129704e+001 5.499997e+000
         vertex 3.549938e+002 1.164525e+001 5.499997e+000
      endloop
   endfacet
   facet normal 0.000000e+000 0.000000e+000 1.000000e+000
      outer loop
         vertex 4.065161e+002 8.000001e+000 5.499997e+000
         vertex 3.549938e+002 1.164525e+001 5.499997e+000
         vertex 3.549938e+002 8.000001e+000 5.499997e+000
      endloop
   endfacet
   facet normal 0.000000e+000 0.000000e+000 1.000000e+000
      outer loop
         vertex 4.100161e+002 8.937820e+000 5.499997e+000
         vertex 4.125783e+002 1.150000e+001 5.499997e+000
         vertex 4.065161e+002 8.000001e+000 5.499997e+000
      endloop
   endfacet
   facet normal 0.000000e+000 0.000000e+000 1.000000e+000
      outer loop
         vertex 4.065161e+002 8.000001e+000 5.499997e+000
         vertex 4.125783e+002 1.150000e+001 5.499997e+000
         vertex 4.135161e+002 1.500000e+001 5.499997e+000
      endloop
   endfacet
   facet normal 0.000000e+000 0.000000e+000 1.000000e+000
      outer loop
         vertex 4.065161e+002 8.000001e+000 5.499997e+000
         vertex 4.135161e+002 1.500000e+001 5.499997e+000
         vertex 4.125783e+002 1.850000e+001 5.499997e+000
      endloop
   endfacet
   facet normal -2.775558e-017 4.807407e-017 -1.000000e+000
      outer loop
         vertex 3.836602e+002 6.129704e+001 -5.500010e+000
         vertex 3.868171e+002 6.311966e+001 -5.500010e+000
         vertex 3.549938e+002 1.164525e+001 -5.500010e+000
      endloop
   endfacet
   facet normal -2.775558e-017 4.807407e-017 -1.000000e+000
      outer loop
         vertex 3.549938e+002 1.164525e+001 -5.500010e+000
         vertex 3.868171e+002 6.311966e+001 -5.500010e+000
         vertex 4.065161e+002 8.000001e+000 -5.500010e+000
      endloop
   endfacet
   facet normal -2.775558e-017 4.807407e-017 -1.000000e+000
      outer loop
         vertex 3.549938e+002 1.164525e+001 -5.500010e+000
         vertex 4.065161e+002 8.000001e+000 -5.500010e+000
         vertex 3.549938e+002 8.000001e+000 -5.500010e+000
      endloop
   endfacet
   facet normal -2.775558e-017 4.807407e-017 -1.000000e+000
      outer loop
         vertex 4.125783e+002 1.150000e+001 -5.500010e+000
         vertex 4.100161e+002 8.937820e+000 -5.500010e+000
         vertex 4.135161e+002 1.500000e+001 -5.500010e+000
      endloop
   endfacet
   facet normal -2.775558e-017 4.807407e-017 -1.000000e+000
      outer loop
         vertex 4.135161e+002 1.500000e+001 -5.500010e+000
         vertex 4.100161e+002 8.937820e+000 -5.500010e+000
         vertex 4.065161e+002 8.000001e+000 -5.500010e+000
      endloop
   endfacet
   facet normal -2.775558e-017 4.807407e-017 -1.000000e+000
      outer loop
         vertex 4.135161e+002 1.500000e+001 -5.500010e+000
         vertex 4.065161e+002 8.000001e+000 -5.500010e+000
         vertex 4.125783e+002 1.850000e+001 -5.500010e+000
      endloop
   endfacet
   facet normal -2.775558e-017 4.807407e-017 -1.000000e+000
      outer loop
         vertex 4.125783e+002 1.850000e+001 -5.500010e+000
         vertex 4.065161e+002 8.000001e+000 -5.500010e+000
         vertex 3.868171e+002 6.311966e+001 -5.500010e+000
      endloop
   endfacet
endsolid