solid square 22 - modellezo square-1
   facet normal 0.000000e+000 0.000000e+000 1.000000e+000
      outer loop
         vertex 5.020000e+002 8.000000e+000 8.000000e+000
         vertex 5.020000e+002 5.020000e+002 8.000000e+000
         vertex 8.000000e+000 8.000000e+000 8.000000e+000
      endloop
   endfacet
   facet normal 0.000000e+000 0.000000e+000 1.000000e+000
      outer loop
         vertex 8.000000e+000 8.000000e+000 8.000000e+000
         vertex 5.020000e+002 5.020000e+002 8.000000e+000
         vertex 8.000000e+000 5.020000e+002 8.000000e+000
      endloop
   endfacet
   facet normal 0.000000e+000 0.000000e+000 -1.000000e+000
      outer loop
         vertex 5.020000e+002 5.020000e+002 -8.000000e+000
         vertex 5.020000e+002 8.000000e+000 -8.000000e+000
         vertex 8.000000e+000 5.020000e+002 -8.000000e+000
      endloop
   endfacet
   facet normal 0.000000e+000 0.000000e+000 -1.000000e+000
      outer loop
         vertex 8.000000e+000 5.020000e+002 -8.000000e+000
         vertex 5.020000e+002 8.000000e+000 -8.000000e+000
         vertex 8.000000e+000 8.000000e+000 -8.000000e+000
      endloop
   endfacet
   facet normal 0.000000e+000 -9.962141e-001 8.693379e-002
      outer loop
         vertex 1.341105e-007 1.341104e-007 3.799796e-007
         vertex 5.100000e+002 1.341104e-007 3.799796e-007
         vertex 2.725936e-001 2.725936e-001 2.070552e+000
      endloop
   endfacet
   facet normal 0.000000e+000 -9.847690e-001 1.738676e-001
      outer loop
         vertex 2.725936e-001 2.725936e-001 2.070552e+000
         vertex 5.100000e+002 1.341104e-007 3.799796e-007
         vertex 5.097274e+002 2.725936e-001 2.070552e+000
      endloop
   endfacet
   facet normal 0.000000e+000 -9.397688e-001 3.418108e-001
      outer loop
         vertex 2.725936e-001 2.725936e-001 2.070552e+000
         vertex 5.097274e+002 2.725936e-001 2.070552e+000
         vertex 1.071797e+000 1.071797e+000 4.000000e+000
      endloop
   endfacet
   facet normal 0.000000e+000 -9.062136e-001 4.228202e-001
      outer loop
         vertex 5.097274e+002 2.725936e-001 2.070552e+000
         vertex 5.089282e+002 1.071797e+000 4.000000e+000
         vertex 1.071797e+000 1.071797e+000 4.000000e+000
      endloop
   endfacet
   facet normal 0.000000e+000 -7.672089e-001 6.413973e-001
      outer loop
         vertex 1.071797e+000 1.071797e+000 4.000000e+000
         vertex 5.089282e+002 1.071797e+000 4.000000e+000
         vertex 5.060000e+002 4.000000e+000 6.928203e+000
      endloop
   endfacet
   facet normal 0.000000e+000 -6.413973e-001 7.672089e-001
      outer loop
         vertex 1.071797e+000 1.071797e+000 4.000000e+000
         vertex 5.060000e+002 4.000000e+000 6.928203e+000
         vertex 4.000000e+000 4.000000e+000 6.928203e+000
      endloop
   endfacet
   facet normal 0.000000e+000 -3.437238e-001 9.390708e-001
      outer loop
         vertex 4.000000e+000 4.000000e+000 6.928203e+000
         vertex 5.060000e+002 4.000000e+000 6.928203e+000
         vertex 5.020000e+002 8.000000e+000 8.000000e+000
      endloop
   endfacet
   facet normal 0.000000e+000 -1.718619e-001 9.851211e-001
      outer loop
         vertex 4.000000e+000 4.000000e+000 6.928203e+000
         vertex 5.020000e+002 8.000000e+000 8.000000e+000
         vertex 8.000000e+000 8.000000e+000 8.000000e+000
      endloop
   endfacet
   facet normal 6.413973e-001 0.000000e+000 7.672089e-001
      outer loop
         vertex 5.089282e+002 1.071797e+000 4.000000e+000
         vertex 5.060000e+002 5.060000e+002 6.928203e+000
         vertex 5.060000e+002 4.000000e+000 6.928203e+000
      endloop
   endfacet
   facet normal 3.437238e-001 0.000000e+000 9.390708e-001
      outer loop
         vertex 5.060000e+002 4.000000e+000 6.928203e+000
         vertex 5.060000e+002 5.060000e+002 6.928203e+000
         vertex 5.020000e+002 5.020000e+002 8.000000e+000
      endloop
   endfacet
   facet normal 1.718619e-001 0.000000e+000 9.851211e-001
      outer loop
         vertex 5.060000e+002 4.000000e+000 6.928203e+000
         vertex 5.020000e+002 5.020000e+002 8.000000e+000
         vertex 5.020000e+002 8.000000e+000 8.000000e+000
      endloop
   endfacet
   facet normal 9.962141e-001 0.000000e+000 8.693379e-002
      outer loop
         vertex 5.100000e+002 1.341104e-007 3.799796e-007
         vertex 5.100000e+002 5.100000e+002 3.799796e-007
         vertex 5.097274e+002 2.725936e-001 2.070552e+000
      endloop
   endfacet
   facet normal 9.847690e-001 0.000000e+000 1.738676e-001
      outer loop
         vertex 5.097274e+002 2.725936e-001 2.070552e+000
         vertex 5.100000e+002 5.100000e+002 3.799796e-007
         vertex 5.097274e+002 5.097274e+002 2.070552e+000
      endloop
   endfacet
   facet normal 9.397688e-001 0.000000e+000 3.418108e-001
      outer loop
         vertex 5.097274e+002 2.725936e-001 2.070552e+000
         vertex 5.097274e+002 5.097274e+002 2.070552e+000
         vertex 5.089282e+002 1.071797e+000 4.000000e+000
      endloop
   endfacet
   facet normal 9.062136e-001 0.000000e+000 4.228202e-001
      outer loop
         vertex 5.089282e+002 1.071797e+000 4.000000e+000
         vertex 5.097274e+002 5.097274e+002 2.070552e+000
         vertex 5.089282e+002 5.089282e+002 4.000000e+000
      endloop
   endfacet
   facet normal 7.672089e-001 0.000000e+000 6.413973e-001
      outer loop
         vertex 5.089282e+002 1.071797e+000 4.000000e+000
         vertex 5.089282e+002 5.089282e+002 4.000000e+000
         vertex 5.060000e+002 5.060000e+002 6.928203e+000
      endloop
   endfacet
   facet normal -9.962141e-001 0.000000e+000 8.693379e-002
      outer loop
         vertex 1.341105e-007 5.100000e+002 3.799796e-007
         vertex 1.341105e-007 1.341104e-007 3.799796e-007
         vertex 2.725936e-001 2.725936e-001 2.070552e+000
      endloop
   endfacet
   facet normal -9.847690e-001 0.000000e+000 1.738676e-001
      outer loop
         vertex 1.341105e-007 5.100000e+002 3.799796e-007
         vertex 2.725936e-001 2.725936e-001 2.070552e+000
         vertex 2.725936e-001 5.097274e+002 2.070552e+000
      endloop
   endfacet
   facet normal -9.397688e-001 0.000000e+000 3.418108e-001
      outer loop
         vertex 2.725936e-001 5.097274e+002 2.070552e+000
         vertex 2.725936e-001 2.725936e-001 2.070552e+000
         vertex 1.071797e+000 1.071797e+000 4.000000e+000
      endloop
   endfacet
   facet normal -9.062136e-001 0.000000e+000 4.228202e-001
      outer loop
         vertex 2.725936e-001 5.097274e+002 2.070552e+000
         vertex 1.071797e+000 1.071797e+000 4.000000e+000
         vertex 1.071797e+000 5.089282e+002 4.000000e+000
      endloop
   endfacet
   facet normal -7.672089e-001 0.000000e+000 6.413973e-001
      outer loop
         vertex 1.071797e+000 5.089282e+002 4.000000e+000
         vertex 1.071797e+000 1.071797e+000 4.000000e+000
         vertex 4.000000e+000 4.000000e+000 6.928203e+000
      endloop
   endfacet
   facet normal -6.413973e-001 0.000000e+000 7.672089e-001
      outer loop
         vertex 1.071797e+000 5.089282e+002 4.000000e+000
         vertex 4.000000e+000 4.000000e+000 6.928203e+000
         vertex 4.000000e+000 5.060000e+002 6.928203e+000
      endloop
   endfacet
   facet normal -3.437238e-001 0.000000e+000 9.390708e-001
      outer loop
         vertex 4.000000e+000 5.060000e+002 6.928203e+000
         vertex 4.000000e+000 4.000000e+000 6.928203e+000
         vertex 8.000000e+000 8.000000e+000 8.000000e+000
      endloop
   endfacet
   facet normal -1.718619e-001 0.000000e+000 9.851211e-001
      outer loop
         vertex 4.000000e+000 5.060000e+002 6.928203e+000
         vertex 8.000000e+000 8.000000e+000 8.000000e+000
         vertex 8.000000e+000 5.020000e+002 8.000000e+000
      endloop
   endfacet
   facet normal 0.000000e+000 -9.962141e-001 -8.693379e-002
      outer loop
         vertex 5.100000e+002 1.341104e-007 3.799796e-007
         vertex 1.341105e-007 1.341104e-007 3.799796e-007
         vertex 2.725936e-001 2.725936e-001 -2.070552e+000
      endloop
   endfacet
   facet normal 0.000000e+000 -9.847690e-001 -1.738676e-001
      outer loop
         vertex 5.100000e+002 1.341104e-007 3.799796e-007
         vertex 2.725936e-001 2.725936e-001 -2.070552e+000
         vertex 5.097274e+002 2.725936e-001 -2.070552e+000
      endloop
   endfacet
   facet normal 0.000000e+000 -9.397688e-001 -3.418108e-001
      outer loop
         vertex 5.097274e+002 2.725936e-001 -2.070552e+000
         vertex 2.725936e-001 2.725936e-001 -2.070552e+000
         vertex 1.071797e+000 1.071797e+000 -4.000000e+000
      endloop
   endfacet
   facet normal 0.000000e+000 -9.062136e-001 -4.228202e-001
      outer loop
         vertex 5.097274e+002 2.725936e-001 -2.070552e+000
         vertex 1.071797e+000 1.071797e+000 -4.000000e+000
         vertex 5.089282e+002 1.071797e+000 -4.000000e+000
      endloop
   endfacet
   facet normal 0.000000e+000 -7.672089e-001 -6.413973e-001
      outer loop
         vertex 5.089282e+002 1.071797e+000 -4.000000e+000
         vertex 1.071797e+000 1.071797e+000 -4.000000e+000
         vertex 4.000000e+000 4.000000e+000 -6.928203e+000
      endloop
   endfacet
   facet normal 0.000000e+000 -6.413973e-001 -7.672089e-001
      outer loop
         vertex 5.089282e+002 1.071797e+000 -4.000000e+000
         vertex 4.000000e+000 4.000000e+000 -6.928203e+000
         vertex 5.060000e+002 4.000000e+000 -6.928203e+000
      endloop
   endfacet
   facet normal 0.000000e+000 -3.437238e-001 -9.390708e-001
      outer loop
         vertex 5.060000e+002 4.000000e+000 -6.928203e+000
         vertex 4.000000e+000 4.000000e+000 -6.928203e+000
         vertex 8.000000e+000 8.000000e+000 -8.000000e+000
      endloop
   endfacet
   facet normal 0.000000e+000 -1.718619e-001 -9.851211e-001
      outer loop
         vertex 5.060000e+002 4.000000e+000 -6.928203e+000
         vertex 8.000000e+000 8.000000e+000 -8.000000e+000
         vertex 5.020000e+002 8.000000e+000 -8.000000e+000
      endloop
   endfacet
   facet normal 9.962141e-001 0.000000e+000 -8.693379e-002
      outer loop
         vertex 5.100000e+002 5.100000e+002 3.799796e-007
         vertex 5.100000e+002 1.341104e-007 3.799796e-007
         vertex 5.097274e+002 2.725936e-001 -2.070552e+000
      endloop
   endfacet
   facet normal 9.847690e-001 0.000000e+000 -1.738676e-001
      outer loop
         vertex 5.100000e+002 5.100000e+002 3.799796e-007
         vertex 5.097274e+002 2.725936e-001 -2.070552e+000
         vertex 5.097274e+002 5.097274e+002 -2.070552e+000
      endloop
   endfacet
   facet normal 9.397688e-001 0.000000e+000 -3.418108e-001
      outer loop
         vertex 5.097274e+002 5.097274e+002 -2.070552e+000
         vertex 5.097274e+002 2.725936e-001 -2.070552e+000
         vertex 5.089282e+002 1.071797e+000 -4.000000e+000
      endloop
   endfacet
   facet normal 9.062136e-001 0.000000e+000 -4.228202e-001
      outer loop
         vertex 5.097274e+002 5.097274e+002 -2.070552e+000
         vertex 5.089282e+002 1.071797e+000 -4.000000e+000
         vertex 5.089282e+002 5.089282e+002 -4.000000e+000
      endloop
   endfacet
   facet normal 7.672089e-001 0.000000e+000 -6.413973e-001
      outer loop
         vertex 5.089282e+002 5.089282e+002 -4.000000e+000
         vertex 5.089282e+002 1.071797e+000 -4.000000e+000
         vertex 5.060000e+002 4.000000e+000 -6.928203e+000
      endloop
   endfacet
   facet normal 6.413973e-001 0.000000e+000 -7.672089e-001
      outer loop
         vertex 5.089282e+002 5.089282e+002 -4.000000e+000
         vertex 5.060000e+002 4.000000e+000 -6.928203e+000
         vertex 5.060000e+002 5.060000e+002 -6.928203e+000
      endloop
   endfacet
   facet normal 3.437238e-001 0.000000e+000 -9.390708e-001
      outer loop
         vertex 5.060000e+002 5.060000e+002 -6.928203e+000
         vertex 5.060000e+002 4.000000e+000 -6.928203e+000
         vertex 5.020000e+002 8.000000e+000 -8.000000e+000
      endloop
   endfacet
   facet normal 1.718619e-001 0.000000e+000 -9.851211e-001
      outer loop
         vertex 5.060000e+002 5.060000e+002 -6.928203e+000
         vertex 5.020000e+002 8.000000e+000 -8.000000e+000
         vertex 5.020000e+002 5.020000e+002 -8.000000e+000
      endloop
   endfacet
   facet normal -2.187869e-016 9.962141e-001 8.693379e-002
      outer loop
         vertex 5.100000e+002 5.100000e+002 3.799796e-007
         vertex 1.341105e-007 5.100000e+002 3.799796e-007
         vertex 2.725936e-001 5.097274e+002 2.070552e+000
      endloop
   endfacet
   facet normal -1.459531e-016 9.847690e-001 1.738676e-001
      outer loop
         vertex 5.100000e+002 5.100000e+002 3.799796e-007
         vertex 2.725936e-001 5.097274e+002 2.070552e+000
         vertex 5.097274e+002 5.097274e+002 2.070552e+000
      endloop
   endfacet
   facet normal -1.456675e-016 9.397688e-001 3.418108e-001
      outer loop
         vertex 5.097274e+002 5.097274e+002 2.070552e+000
         vertex 2.725936e-001 5.097274e+002 2.070552e+000
         vertex 1.071797e+000 5.089282e+002 4.000000e+000
      endloop
   endfacet
   facet normal -7.283375e-017 9.062136e-001 4.228202e-001
      outer loop
         vertex 5.097274e+002 5.097274e+002 2.070552e+000
         vertex 1.071797e+000 5.089282e+002 4.000000e+000
         vertex 5.089282e+002 5.089282e+002 4.000000e+000
      endloop
   endfacet
   facet normal -1.490664e-016 7.672089e-001 6.413973e-001
      outer loop
         vertex 5.089282e+002 5.089282e+002 4.000000e+000
         vertex 1.071797e+000 5.089282e+002 4.000000e+000
         vertex 4.000000e+000 5.060000e+002 6.928203e+000
      endloop
   endfacet
   facet normal -7.453321e-017 6.413973e-001 7.672089e-001
      outer loop
         vertex 5.089282e+002 5.089282e+002 4.000000e+000
         vertex 4.000000e+000 5.060000e+002 6.928203e+000
         vertex 5.060000e+002 5.060000e+002 6.928203e+000
      endloop
   endfacet
   facet normal -7.453321e-017 3.437238e-001 9.390708e-001
      outer loop
         vertex 5.060000e+002 5.060000e+002 6.928203e+000
         vertex 4.000000e+000 5.060000e+002 6.928203e+000
         vertex 8.000000e+000 5.020000e+002 8.000000e+000
      endloop
   endfacet
   facet normal 0.000000e+000 1.718619e-001 9.851211e-001
      outer loop
         vertex 5.060000e+002 5.060000e+002 6.928203e+000
         vertex 8.000000e+000 5.020000e+002 8.000000e+000
         vertex 5.020000e+002 5.020000e+002 8.000000e+000
      endloop
   endfacet
   facet normal -6.413973e-001 0.000000e+000 -7.672089e-001
      outer loop
         vertex 1.071797e+000 1.071797e+000 -4.000000e+000
         vertex 4.000000e+000 5.060000e+002 -6.928203e+000
         vertex 4.000000e+000 4.000000e+000 -6.928203e+000
      endloop
   endfacet
   facet normal -3.437238e-001 0.000000e+000 -9.390708e-001
      outer loop
         vertex 4.000000e+000 4.000000e+000 -6.928203e+000
         vertex 4.000000e+000 5.060000e+002 -6.928203e+000
         vertex 8.000000e+000 5.020000e+002 -8.000000e+000
      endloop
   endfacet
   facet normal -1.718619e-001 0.000000e+000 -9.851211e-001
      outer loop
         vertex 4.000000e+000 4.000000e+000 -6.928203e+000
         vertex 8.000000e+000 5.020000e+002 -8.000000e+000
         vertex 8.000000e+000 8.000000e+000 -8.000000e+000
      endloop
   endfacet
   facet normal -9.962141e-001 0.000000e+000 -8.693379e-002
      outer loop
         vertex 1.341105e-007 1.341104e-007 3.799796e-007
         vertex 1.341105e-007 5.100000e+002 3.799796e-007
         vertex 2.725936e-001 2.725936e-001 -2.070552e+000
      endloop
   endfacet
   facet normal -9.847690e-001 0.000000e+000 -1.738676e-001
      outer loop
         vertex 2.725936e-001 2.725936e-001 -2.070552e+000
         vertex 1.341105e-007 5.100000e+002 3.799796e-007
         vertex 2.725936e-001 5.097274e+002 -2.070552e+000
      endloop
   endfacet
   facet normal -9.397688e-001 0.000000e+000 -3.418108e-001
      outer loop
         vertex 2.725936e-001 2.725936e-001 -2.070552e+000
         vertex 2.725936e-001 5.097274e+002 -2.070552e+000
         vertex 1.071797e+000 1.071797e+000 -4.000000e+000
      endloop
   endfacet
   facet normal -9.062136e-001 0.000000e+000 -4.228202e-001
      outer loop
         vertex 1.071797e+000 1.071797e+000 -4.000000e+000
         vertex 2.725936e-001 5.097274e+002 -2.070552e+000
         vertex 1.071797e+000 5.089282e+002 -4.000000e+000
      endloop
   endfacet
   facet normal -7.672089e-001 0.000000e+000 -6.413973e-001
      outer loop
         vertex 1.071797e+000 1.071797e+000 -4.000000e+000
         vertex 1.071797e+000 5.089282e+002 -4.000000e+000
         vertex 4.000000e+000 5.060000e+002 -6.928203e+000
      endloop
   endfacet
   facet normal -7.311938e-017 9.962141e-001 -8.693379e-002
      outer loop
         vertex 1.341105e-007 5.100000e+002 3.799796e-007
         vertex 5.100000e+002 5.100000e+002 3.799796e-007
         vertex 2.725936e-001 5.097274e+002 -2.070552e+000
      endloop
   endfacet
   facet normal -1.436771e-016 9.847690e-001 -1.738676e-001
      outer loop
         vertex 2.725936e-001 5.097274e+002 -2.070552e+000
         vertex 5.100000e+002 5.100000e+002 3.799796e-007
         vertex 5.097274e+002 5.097274e+002 -2.070552e+000
      endloop
   endfacet
   facet normal -7.055769e-017 9.397688e-001 -3.418108e-001
      outer loop
         vertex 2.725936e-001 5.097274e+002 -2.070552e+000
         vertex 5.097274e+002 5.097274e+002 -2.070552e+000
         vertex 1.071797e+000 5.089282e+002 -4.000000e+000
      endloop
   endfacet
   facet normal -1.342872e-016 9.062136e-001 -4.228202e-001
      outer loop
         vertex 5.097274e+002 5.097274e+002 -2.070552e+000
         vertex 5.089282e+002 5.089282e+002 -4.000000e+000
         vertex 1.071797e+000 5.089282e+002 -4.000000e+000
      endloop
   endfacet
   facet normal -1.024832e-016 7.672089e-001 -6.413973e-001
      outer loop
         vertex 1.071797e+000 5.089282e+002 -4.000000e+000
         vertex 5.089282e+002 5.089282e+002 -4.000000e+000
         vertex 5.060000e+002 5.060000e+002 -6.928203e+000
      endloop
   endfacet
   facet normal -3.726660e-017 6.413973e-001 -7.672089e-001
      outer loop
         vertex 1.071797e+000 5.089282e+002 -4.000000e+000
         vertex 5.060000e+002 5.060000e+002 -6.928203e+000
         vertex 4.000000e+000 5.060000e+002 -6.928203e+000
      endloop
   endfacet
   facet normal -3.726660e-017 3.437238e-001 -9.390708e-001
      outer loop
         vertex 4.000000e+000 5.060000e+002 -6.928203e+000
         vertex 5.060000e+002 5.060000e+002 -6.928203e+000
         vertex 5.020000e+002 5.020000e+002 -8.000000e+000
      endloop
   endfacet
   facet normal -5.454123e-031 1.718619e-001 -9.851211e-001
      outer loop
         vertex 4.000000e+000 5.060000e+002 -6.928203e+000
         vertex 5.020000e+002 5.020000e+002 -8.000000e+000
         vertex 8.000000e+000 5.020000e+002 -8.000000e+000
      endloop
   endfacet
endsolid