solid haromszog b baszki
   facet normal 0.000000e+000 0.000000e+000 1.000000e+000
      outer loop
         vertex 8.000001e+000 8.000000e+000 4.289611e+002
         vertex 4.906863e+002 8.000000e+000 4.289611e+002
         vertex 8.000001e+000 4.906863e+002 4.289611e+002
      endloop
   endfacet
   facet normal 0.000000e+000 -1.950854e-001 9.807863e-001
      outer loop
         vertex 8.000001e+000 4.938532e+000 4.283521e+002
         vertex 4.906863e+002 8.000000e+000 4.289611e+002
         vertex 8.000001e+000 8.000000e+000 4.289611e+002
      endloop
   endfacet
   facet normal 1.379468e-001 1.379468e-001 9.807861e-001
      outer loop
         vertex 4.928511e+002 1.016478e+001 4.283521e+002
         vertex 8.000001e+000 4.906863e+002 4.289611e+002
         vertex 4.906863e+002 8.000000e+000 4.289611e+002
      endloop
   endfacet
   facet normal -1.950855e-001 0.000000e+000 9.807863e-001
      outer loop
         vertex 4.938535e+000 4.906863e+002 4.283521e+002
         vertex 8.000001e+000 8.000000e+000 4.289611e+002
         vertex 8.000001e+000 4.906863e+002 4.289611e+002
      endloop
   endfacet
   facet normal 1.652627e-001 -1.104236e-001 9.800484e-001
      outer loop
         vertex 4.928511e+002 5.835215e+000 4.283521e+002
         vertex 4.935147e+002 6.828427e+000 4.283521e+002
         vertex 4.906863e+002 8.000000e+000 4.289611e+002
      endloop
   endfacet
   facet normal 1.652626e-001 1.104238e-001 9.800484e-001
      outer loop
         vertex 4.906863e+002 8.000000e+000 4.289611e+002
         vertex 4.935147e+002 9.171574e+000 4.283521e+002
         vertex 4.928511e+002 1.016478e+001 4.283521e+002
      endloop
   endfacet
   facet normal 1.949390e-001 3.877946e-002 9.800485e-001
      outer loop
         vertex 4.937478e+002 8.000000e+000 4.283521e+002
         vertex 4.935147e+002 9.171574e+000 4.283521e+002
         vertex 4.906863e+002 8.000000e+000 4.289611e+002
      endloop
   endfacet
   facet normal 1.949390e-001 -3.877952e-002 9.800485e-001
      outer loop
         vertex 4.935147e+002 6.828427e+000 4.283521e+002
         vertex 4.937478e+002 8.000000e+000 4.283521e+002
         vertex 4.906863e+002 8.000000e+000 4.289611e+002
      endloop
   endfacet
   facet normal -1.949388e-001 -3.877560e-002 9.800487e-001
      outer loop
         vertex 8.000001e+000 8.000000e+000 4.289611e+002
         vertex 4.938535e+000 8.000000e+000 4.283521e+002
         vertex 5.171575e+000 6.828427e+000 4.283521e+002
      endloop
   endfacet
   facet normal -1.652614e-001 -1.104232e-001 9.800487e-001
      outer loop
         vertex 5.171575e+000 6.828427e+000 4.283521e+002
         vertex 5.835213e+000 5.835215e+000 4.283521e+002
         vertex 8.000001e+000 8.000000e+000 4.289611e+002
      endloop
   endfacet
   facet normal -1.104235e-001 -1.652612e-001 9.800487e-001
      outer loop
         vertex 5.835213e+000 5.835215e+000 4.283521e+002
         vertex 6.828427e+000 5.171573e+000 4.283521e+002
         vertex 8.000001e+000 8.000000e+000 4.289611e+002
      endloop
   endfacet
   facet normal 1.104253e-001 -1.652606e-001 9.800486e-001
      outer loop
         vertex 4.918579e+002 5.171573e+000 4.283521e+002
         vertex 4.928511e+002 5.835215e+000 4.283521e+002
         vertex 4.906863e+002 8.000000e+000 4.289611e+002
      endloop
   endfacet
   facet normal 3.877589e-002 -1.949387e-001 9.800487e-001
      outer loop
         vertex 4.906863e+002 4.938532e+000 4.283521e+002
         vertex 4.918579e+002 5.171573e+000 4.283521e+002
         vertex 4.906863e+002 8.000000e+000 4.289611e+002
      endloop
   endfacet
   facet normal 2.168450e-019 -1.950854e-001 9.807863e-001
      outer loop
         vertex 8.000001e+000 4.938532e+000 4.283521e+002
         vertex 4.906863e+002 4.938532e+000 4.283521e+002
         vertex 4.906863e+002 8.000000e+000 4.289611e+002
      endloop
   endfacet
   facet normal -3.877576e-002 -1.949387e-001 9.800487e-001
      outer loop
         vertex 8.000001e+000 8.000000e+000 4.289611e+002
         vertex 6.828427e+000 5.171573e+000 4.283521e+002
         vertex 8.000001e+000 4.938532e+000 4.283521e+002
      endloop
   endfacet
   facet normal 1.379469e-001 1.379469e-001 9.807861e-001
      outer loop
         vertex 4.928511e+002 1.016478e+001 4.283521e+002
         vertex 1.016478e+001 4.928511e+002 4.283521e+002
         vertex 8.000001e+000 4.906863e+002 4.289611e+002
      endloop
   endfacet
   facet normal 1.104241e-001 1.652624e-001 9.800484e-001
      outer loop
         vertex 1.016478e+001 4.928511e+002 4.283521e+002
         vertex 9.171576e+000 4.935147e+002 4.283521e+002
         vertex 8.000001e+000 4.906863e+002 4.289611e+002
      endloop
   endfacet
   facet normal 3.877474e-002 1.949409e-001 9.800482e-001
      outer loop
         vertex 9.171576e+000 4.935147e+002 4.283521e+002
         vertex 8.000001e+000 4.937477e+002 4.283521e+002
         vertex 8.000001e+000 4.906863e+002 4.289611e+002
      endloop
   endfacet
   facet normal -3.877477e-002 1.949409e-001 9.800482e-001
      outer loop
         vertex 8.000001e+000 4.937477e+002 4.283521e+002
         vertex 6.828427e+000 4.935147e+002 4.283521e+002
         vertex 8.000001e+000 4.906863e+002 4.289611e+002
      endloop
   endfacet
   facet normal -1.950855e-001 0.000000e+000 9.807863e-001
      outer loop
         vertex 4.938535e+000 4.906863e+002 4.283521e+002
         vertex 4.938535e+000 8.000000e+000 4.283521e+002
         vertex 8.000001e+000 8.000000e+000 4.289611e+002
      endloop
   endfacet
   facet normal -1.949388e-001 3.877668e-002 9.800486e-001
      outer loop
         vertex 8.000001e+000 4.906863e+002 4.289611e+002
         vertex 5.171575e+000 4.918578e+002 4.283521e+002
         vertex 4.938535e+000 4.906863e+002 4.283521e+002
      endloop
   endfacet
   facet normal -1.652628e-001 1.104228e-001 9.800485e-001
      outer loop
         vertex 5.835213e+000 4.928511e+002 4.283521e+002
         vertex 5.171575e+000 4.918578e+002 4.283521e+002
         vertex 8.000001e+000 4.906863e+002 4.289611e+002
      endloop
   endfacet
   facet normal -1.104234e-001 1.652627e-001 9.800484e-001
      outer loop
         vertex 6.828427e+000 4.935147e+002 4.283521e+002
         vertex 5.835213e+000 4.928511e+002 4.283521e+002
         vertex 8.000001e+000 4.906863e+002 4.289611e+002
      endloop
   endfacet
   facet normal 4.681418e-001 -3.127985e-001 8.264384e-001
      outer loop
         vertex 4.935147e+002 6.828427e+000 4.283521e+002
         vertex 4.928511e+002 5.835215e+000 4.283521e+002
         vertex 4.946863e+002 4.000000e+000 4.266180e+002
      endloop
   endfacet
   facet normal 4.681427e-001 3.127996e-001 8.264375e-001
      outer loop
         vertex 4.959125e+002 1.016478e+001 4.266180e+002
         vertex 4.928511e+002 1.016478e+001 4.283521e+002
         vertex 4.935147e+002 9.171574e+000 4.283521e+002
      endloop
   endfacet
   facet normal 5.522085e-001 1.098515e-001 8.264372e-001
      outer loop
         vertex 4.963432e+002 8.000000e+000 4.266180e+002
         vertex 4.935147e+002 9.171574e+000 4.283521e+002
         vertex 4.937478e+002 8.000000e+000 4.283521e+002
      endloop
   endfacet
   facet normal 5.522069e-001 -1.098514e-001 8.264382e-001
      outer loop
         vertex 4.935147e+002 6.828427e+000 4.283521e+002
         vertex 4.959125e+002 5.835215e+000 4.266180e+002
         vertex 4.937478e+002 8.000000e+000 4.283521e+002
      endloop
   endfacet
   facet normal -5.522107e-001 -1.098411e-001 8.264372e-001
      outer loop
         vertex 4.938535e+000 8.000000e+000 4.283521e+002
         vertex 2.343148e+000 8.000000e+000 4.266180e+002
         vertex 5.171575e+000 6.828427e+000 4.283521e+002
      endloop
   endfacet
   facet normal -4.681422e-001 -3.128001e-001 8.264375e-001
      outer loop
         vertex 5.171575e+000 6.828427e+000 4.283521e+002
         vertex 2.773747e+000 5.835215e+000 4.266180e+002
         vertex 5.835213e+000 5.835215e+000 4.283521e+002
      endloop
   endfacet
   facet normal -3.128017e-001 -4.681428e-001 8.264366e-001
      outer loop
         vertex 5.835213e+000 5.835215e+000 4.283521e+002
         vertex 4.000000e+000 4.000000e+000 4.266180e+002
         vertex 6.828427e+000 5.171573e+000 4.283521e+002
      endloop
   endfacet
   facet normal 3.128068e-001 -4.681411e-001 8.264356e-001
      outer loop
         vertex 4.928511e+002 2.773749e+000 4.266180e+002
         vertex 4.928511e+002 5.835215e+000 4.283521e+002
         vertex 4.918579e+002 5.171573e+000 4.283521e+002
      endloop
   endfacet
   facet normal 1.098421e-001 -5.522109e-001 8.264369e-001
      outer loop
         vertex 4.906863e+002 2.343146e+000 4.266180e+002
         vertex 4.918579e+002 5.171573e+000 4.283521e+002
         vertex 4.906863e+002 4.938532e+000 4.283521e+002
      endloop
   endfacet
   facet normal 0.000000e+000 -5.555726e-001 8.314680e-001
      outer loop
         vertex 8.000001e+000 2.343146e+000 4.266180e+002
         vertex 4.906863e+002 4.938532e+000 4.283521e+002
         vertex 8.000001e+000 4.938532e+000 4.283521e+002
      endloop
   endfacet
   facet normal -1.098417e-001 -5.522107e-001 8.264371e-001
      outer loop
         vertex 6.828427e+000 5.171573e+000 4.283521e+002
         vertex 5.835213e+000 2.773749e+000 4.266180e+002
         vertex 8.000001e+000 4.938532e+000 4.283521e+002
      endloop
   endfacet
   facet normal 3.928476e-001 3.928476e-001 8.314696e-001
      outer loop
         vertex 4.946863e+002 1.200000e+001 4.266180e+002
         vertex 1.016478e+001 4.928511e+002 4.283521e+002
         vertex 4.928511e+002 1.016478e+001 4.283521e+002
      endloop
   endfacet
   facet normal 3.128015e-001 4.681436e-001 8.264362e-001
      outer loop
         vertex 1.200000e+001 4.946863e+002 4.266180e+002
         vertex 9.171576e+000 4.935147e+002 4.283521e+002
         vertex 1.016478e+001 4.928511e+002 4.283521e+002
      endloop
   endfacet
   facet normal 1.098378e-001 5.522118e-001 8.264368e-001
      outer loop
         vertex 1.016478e+001 4.959125e+002 4.266180e+002
         vertex 8.000001e+000 4.937477e+002 4.283521e+002
         vertex 9.171576e+000 4.935147e+002 4.283521e+002
      endloop
   endfacet
   facet normal -1.098374e-001 5.522094e-001 8.264385e-001
      outer loop
         vertex 6.828427e+000 4.935147e+002 4.283521e+002
         vertex 8.000001e+000 4.937477e+002 4.283521e+002
         vertex 8.000001e+000 4.963431e+002 4.266180e+002
      endloop
   endfacet
   facet normal -5.555724e-001 0.000000e+000 8.314682e-001
      outer loop
         vertex 2.343148e+000 4.906863e+002 4.266180e+002
         vertex 4.938535e+000 8.000000e+000 4.283521e+002
         vertex 4.938535e+000 4.906863e+002 4.283521e+002
      endloop
   endfacet
   facet normal -5.522091e-001 1.098439e-001 8.264378e-001
      outer loop
         vertex 2.773747e+000 4.928511e+002 4.266180e+002
         vertex 4.938535e+000 4.906863e+002 4.283521e+002
         vertex 5.171575e+000 4.918578e+002 4.283521e+002
      endloop
   endfacet
   facet normal -4.681463e-001 3.127989e-001 8.264356e-001
      outer loop
         vertex 4.000000e+000 4.946863e+002 4.266180e+002
         vertex 5.171575e+000 4.918578e+002 4.283521e+002
         vertex 5.835213e+000 4.928511e+002 4.283521e+002
      endloop
   endfacet
   facet normal -3.127985e-001 4.681428e-001 8.264378e-001
      outer loop
         vertex 6.828427e+000 4.935147e+002 4.283521e+002
         vertex 5.835213e+000 4.959125e+002 4.266180e+002
         vertex 5.835213e+000 4.928511e+002 4.283521e+002
      endloop
   endfacet
   facet normal 3.127993e-001 -4.681423e-001 8.264378e-001
      outer loop
         vertex 4.928511e+002 2.773749e+000 4.266180e+002
         vertex 4.946863e+002 4.000000e+000 4.266180e+002
         vertex 4.928511e+002 5.835215e+000 4.283521e+002
      endloop
   endfacet
   facet normal 4.681436e-001 -3.127974e-001 8.264378e-001
      outer loop
         vertex 4.946863e+002 4.000000e+000 4.266180e+002
         vertex 4.959125e+002 5.835215e+000 4.266180e+002
         vertex 4.935147e+002 6.828427e+000 4.283521e+002
      endloop
   endfacet
   facet normal 4.681431e-001 3.127968e-001 8.264382e-001
      outer loop
         vertex 4.946863e+002 1.200000e+001 4.266180e+002
         vertex 4.928511e+002 1.016478e+001 4.283521e+002
         vertex 4.959125e+002 1.016478e+001 4.266180e+002
      endloop
   endfacet
   facet normal 5.522079e-001 1.098489e-001 8.264380e-001
      outer loop
         vertex 4.959125e+002 1.016478e+001 4.266180e+002
         vertex 4.935147e+002 9.171574e+000 4.283521e+002
         vertex 4.963432e+002 8.000000e+000 4.266180e+002
      endloop
   endfacet
   facet normal 5.522087e-001 -1.098491e-001 8.264375e-001
      outer loop
         vertex 4.963432e+002 8.000000e+000 4.266180e+002
         vertex 4.937478e+002 8.000000e+000 4.283521e+002
         vertex 4.959125e+002 5.835215e+000 4.266180e+002
      endloop
   endfacet
   facet normal -5.555724e-001 4.336900e-019 8.314682e-001
      outer loop
         vertex 2.343148e+000 4.906863e+002 4.266180e+002
         vertex 2.343148e+000 8.000000e+000 4.266180e+002
         vertex 4.938535e+000 8.000000e+000 4.283521e+002
      endloop
   endfacet
   facet normal -5.522106e-001 -1.098406e-001 8.264373e-001
      outer loop
         vertex 5.171575e+000 6.828427e+000 4.283521e+002
         vertex 2.343148e+000 8.000000e+000 4.266180e+002
         vertex 2.773747e+000 5.835215e+000 4.266180e+002
      endloop
   endfacet
   facet normal -4.681417e-001 -3.128030e-001 8.264367e-001
      outer loop
         vertex 5.835213e+000 5.835215e+000 4.283521e+002
         vertex 2.773747e+000 5.835215e+000 4.266180e+002
         vertex 4.000000e+000 4.000000e+000 4.266180e+002
      endloop
   endfacet
   facet normal -3.128026e-001 -4.681413e-001 8.264372e-001
      outer loop
         vertex 6.828427e+000 5.171573e+000 4.283521e+002
         vertex 4.000000e+000 4.000000e+000 4.266180e+002
         vertex 5.835213e+000 2.773749e+000 4.266180e+002
      endloop
   endfacet
   facet normal 1.098426e-001 -5.522110e-001 8.264367e-001
      outer loop
         vertex 4.906863e+002 2.343146e+000 4.266180e+002
         vertex 4.928511e+002 2.773749e+000 4.266180e+002
         vertex 4.918579e+002 5.171573e+000 4.283521e+002
      endloop
   endfacet
   facet normal 0.000000e+000 -5.555726e-001 8.314680e-001
      outer loop
         vertex 8.000001e+000 2.343146e+000 4.266180e+002
         vertex 4.906863e+002 2.343146e+000 4.266180e+002
         vertex 4.906863e+002 4.938532e+000 4.283521e+002
      endloop
   endfacet
   facet normal -1.098414e-001 -5.522109e-001 8.264369e-001
      outer loop
         vertex 8.000001e+000 4.938532e+000 4.283521e+002
         vertex 5.835213e+000 2.773749e+000 4.266180e+002
         vertex 8.000001e+000 2.343146e+000 4.266180e+002
      endloop
   endfacet
   facet normal 3.928495e-001 3.928495e-001 8.314677e-001
      outer loop
         vertex 4.946863e+002 1.200000e+001 4.266180e+002
         vertex 1.200000e+001 4.946863e+002 4.266180e+002
         vertex 1.016478e+001 4.928511e+002 4.283521e+002
      endloop
   endfacet
   facet normal 3.128029e-001 4.681414e-001 8.264369e-001
      outer loop
         vertex 1.200000e+001 4.946863e+002 4.266180e+002
         vertex 1.016478e+001 4.959125e+002 4.266180e+002
         vertex 9.171576e+000 4.935147e+002 4.283521e+002
      endloop
   endfacet
   facet normal 1.098415e-001 5.522091e-001 8.264381e-001
      outer loop
         vertex 1.016478e+001 4.959125e+002 4.266180e+002
         vertex 8.000001e+000 4.963431e+002 4.266180e+002
         vertex 8.000001e+000 4.937477e+002 4.283521e+002
      endloop
   endfacet
   facet normal -1.098414e-001 5.522103e-001 8.264374e-001
      outer loop
         vertex 8.000001e+000 4.963431e+002 4.266180e+002
         vertex 5.835213e+000 4.959125e+002 4.266180e+002
         vertex 6.828427e+000 4.935147e+002 4.283521e+002
      endloop
   endfacet
   facet normal -5.522106e-001 1.098417e-001 8.264371e-001
      outer loop
         vertex 2.343148e+000 4.906863e+002 4.266180e+002
         vertex 4.938535e+000 4.906863e+002 4.283521e+002
         vertex 2.773747e+000 4.928511e+002 4.266180e+002
      endloop
   endfacet
   facet normal -4.681396e-001 3.128031e-001 8.264379e-001
      outer loop
         vertex 2.773747e+000 4.928511e+002 4.266180e+002
         vertex 5.171575e+000 4.918578e+002 4.283521e+002
         vertex 4.000000e+000 4.946863e+002 4.266180e+002
      endloop
   endfacet
   facet normal -3.128044e-001 4.681419e-001 8.264361e-001
      outer loop
         vertex 4.000000e+000 4.946863e+002 4.266180e+002
         vertex 5.835213e+000 4.928511e+002 4.283521e+002
         vertex 5.835213e+000 4.959125e+002 4.266180e+002
      endloop
   endfacet
   facet normal 4.646745e-001 -6.954421e-001 5.481223e-001
      outer loop
         vertex 4.935147e+002 1.171572e+000 4.240226e+002
         vertex 4.946863e+002 4.000000e+000 4.266180e+002
         vertex 4.928511e+002 2.773749e+000 4.266180e+002
      endloop
   endfacet
   facet normal 6.954467e-001 -4.646735e-001 5.481172e-001
      outer loop
         vertex 4.946863e+002 4.000000e+000 4.266180e+002
         vertex 4.959125e+002 2.773749e+000 4.240226e+002
         vertex 4.959125e+002 5.835215e+000 4.266180e+002
      endloop
   endfacet
   facet normal 6.954439e-001 4.646712e-001 5.481227e-001
      outer loop
         vertex 4.975147e+002 1.082843e+001 4.240226e+002
         vertex 4.946863e+002 1.200000e+001 4.266180e+002
         vertex 4.959125e+002 1.016478e+001 4.266180e+002
      endloop
   endfacet
   facet normal 8.203282e-001 1.631852e-001 5.481169e-001
      outer loop
         vertex 4.980773e+002 8.000000e+000 4.240226e+002
         vertex 4.959125e+002 1.016478e+001 4.266180e+002
         vertex 4.963432e+002 8.000000e+000 4.266180e+002
      endloop
   endfacet
   facet normal 8.203244e-001 -1.631844e-001 5.481231e-001
      outer loop
         vertex 4.975147e+002 5.171573e+000 4.240226e+002
         vertex 4.963432e+002 8.000000e+000 4.266180e+002
         vertex 4.959125e+002 5.835215e+000 4.266180e+002
      endloop
   endfacet
   facet normal -8.314707e-001 0.000000e+000 5.555686e-001
      outer loop
         vertex 6.089658e-001 4.906863e+002 4.240226e+002
         vertex 2.343148e+000 8.000000e+000 4.266180e+002
         vertex 2.343148e+000 4.906863e+002 4.266180e+002
      endloop
   endfacet
   facet normal -8.203270e-001 -1.631719e-001 5.481227e-001
      outer loop
         vertex 2.343148e+000 8.000000e+000 4.266180e+002
         vertex 6.089658e-001 8.000000e+000 4.240226e+002
         vertex 2.773747e+000 5.835215e+000 4.266180e+002
      endloop
   endfacet
   facet normal -6.954394e-001 -4.646788e-001 5.481219e-001
      outer loop
         vertex 2.773747e+000 5.835215e+000 4.266180e+002
         vertex 1.171574e+000 5.171573e+000 4.240226e+002
         vertex 4.000000e+000 4.000000e+000 4.266180e+002
      endloop
   endfacet
   facet normal -4.646784e-001 -6.954390e-001 5.481228e-001
      outer loop
         vertex 4.000000e+000 4.000000e+000 4.266180e+002
         vertex 2.773747e+000 2.773749e+000 4.240226e+002
         vertex 5.835213e+000 2.773749e+000 4.266180e+002
      endloop
   endfacet
   facet normal 1.631747e-001 -8.203266e-001 5.481225e-001
      outer loop
         vertex 4.906863e+002 6.089639e-001 4.240226e+002
         vertex 4.928511e+002 2.773749e+000 4.266180e+002
         vertex 4.906863e+002 2.343146e+000 4.266180e+002
      endloop
   endfacet
   facet normal 0.000000e+000 -8.314707e-001 5.555686e-001
      outer loop
         vertex 8.000001e+000 6.089639e-001 4.240226e+002
         vertex 4.906863e+002 2.343146e+000 4.266180e+002
         vertex 8.000001e+000 2.343146e+000 4.266180e+002
      endloop
   endfacet
   facet normal -1.631729e-001 -8.203269e-001 5.481226e-001
      outer loop
         vertex 5.835213e+000 2.773749e+000 4.266180e+002
         vertex 5.171575e+000 1.171572e+000 4.240226e+002
         vertex 8.000001e+000 2.343146e+000 4.266180e+002
      endloop
   endfacet
   facet normal 6.954426e-001 4.646791e-001 5.481178e-001
      outer loop
         vertex 4.959125e+002 1.322625e+001 4.240226e+002
         vertex 4.946863e+002 1.200000e+001 4.266180e+002
         vertex 4.975147e+002 1.082843e+001 4.240226e+002
      endloop
   endfacet
   facet normal 5.879405e-001 5.879405e-001 5.555646e-001
      outer loop
         vertex 4.959125e+002 1.322625e+001 4.240226e+002
         vertex 1.200000e+001 4.946863e+002 4.266180e+002
         vertex 4.946863e+002 1.200000e+001 4.266180e+002
      endloop
   endfacet
   facet normal -8.203267e-001 1.631745e-001 5.481225e-001
      outer loop
         vertex 6.089658e-001 4.906863e+002 4.240226e+002
         vertex 2.343148e+000 4.906863e+002 4.266180e+002
         vertex 1.171574e+000 4.935147e+002 4.240226e+002
      endloop
   endfacet
   facet normal 4.646784e-001 6.954388e-001 5.481230e-001
      outer loop
         vertex 1.322625e+001 4.959125e+002 4.240226e+002
         vertex 1.016478e+001 4.959125e+002 4.266180e+002
         vertex 1.200000e+001 4.946863e+002 4.266180e+002
      endloop
   endfacet
   facet normal 1.631736e-001 8.203270e-001 5.481222e-001
      outer loop
         vertex 1.082843e+001 4.975147e+002 4.240226e+002
         vertex 8.000001e+000 4.963431e+002 4.266180e+002
         vertex 1.016478e+001 4.959125e+002 4.266180e+002
      endloop
   endfacet
   facet normal -1.631728e-001 8.203256e-001 5.481247e-001
      outer loop
         vertex 8.000001e+000 4.963431e+002 4.266180e+002
         vertex 8.000001e+000 4.980773e+002 4.240226e+002
         vertex 5.835213e+000 4.959125e+002 4.266180e+002
      endloop
   endfacet
   facet normal -8.203273e-001 1.631735e-001 5.481218e-001
      outer loop
         vertex 1.171574e+000 4.935147e+002 4.240226e+002
         vertex 2.343148e+000 4.906863e+002 4.266180e+002
         vertex 2.773747e+000 4.928511e+002 4.266180e+002
      endloop
   endfacet
   facet normal -6.954374e-001 4.646797e-001 5.481238e-001
      outer loop
         vertex 2.773747e+000 4.959125e+002 4.240226e+002
         vertex 2.773747e+000 4.928511e+002 4.266180e+002
         vertex 4.000000e+000 4.946863e+002 4.266180e+002
      endloop
   endfacet
   facet normal -4.646803e-001 6.954389e-001 5.481213e-001
      outer loop
         vertex 5.171575e+000 4.975147e+002 4.240226e+002
         vertex 4.000000e+000 4.946863e+002 4.266180e+002
         vertex 5.835213e+000 4.959125e+002 4.266180e+002
      endloop
   endfacet
   facet normal 1.631744e-001 -8.203266e-001 5.481226e-001
      outer loop
         vertex 4.906863e+002 6.089639e-001 4.240226e+002
         vertex 4.935147e+002 1.171572e+000 4.240226e+002
         vertex 4.928511e+002 2.773749e+000 4.266180e+002
      endloop
   endfacet
   facet normal 4.646789e-001 -6.954414e-001 5.481194e-001
      outer loop
         vertex 4.935147e+002 1.171572e+000 4.240226e+002
         vertex 4.959125e+002 2.773749e+000 4.240226e+002
         vertex 4.946863e+002 4.000000e+000 4.266180e+002
      endloop
   endfacet
   facet normal 6.954401e-001 -4.646777e-001 5.481220e-001
      outer loop
         vertex 4.975147e+002 5.171573e+000 4.240226e+002
         vertex 4.959125e+002 5.835215e+000 4.266180e+002
         vertex 4.959125e+002 2.773749e+000 4.240226e+002
      endloop
   endfacet
   facet normal 8.203263e-001 1.631768e-001 5.481223e-001
      outer loop
         vertex 4.975147e+002 1.082843e+001 4.240226e+002
         vertex 4.959125e+002 1.016478e+001 4.266180e+002
         vertex 4.980773e+002 8.000000e+000 4.240226e+002
      endloop
   endfacet
   facet normal 8.203294e-001 -1.631774e-001 5.481176e-001
      outer loop
         vertex 4.980773e+002 8.000000e+000 4.240226e+002
         vertex 4.963432e+002 8.000000e+000 4.266180e+002
         vertex 4.975147e+002 5.171573e+000 4.240226e+002
      endloop
   endfacet
   facet normal -8.314707e-001 4.336899e-019 5.555686e-001
      outer loop
         vertex 6.089658e-001 4.906863e+002 4.240226e+002
         vertex 6.089658e-001 8.000000e+000 4.240226e+002
         vertex 2.343148e+000 8.000000e+000 4.266180e+002
      endloop
   endfacet
   facet normal -8.203273e-001 -1.631730e-001 5.481220e-001
      outer loop
         vertex 2.773747e+000 5.835215e+000 4.266180e+002
         vertex 6.089658e-001 8.000000e+000 4.240226e+002
         vertex 1.171574e+000 5.171573e+000 4.240226e+002
      endloop
   endfacet
   facet normal -6.954396e-001 -4.646774e-001 5.481228e-001
      outer loop
         vertex 4.000000e+000 4.000000e+000 4.266180e+002
         vertex 1.171574e+000 5.171573e+000 4.240226e+002
         vertex 2.773747e+000 2.773749e+000 4.240226e+002
      endloop
   endfacet
   facet normal -4.646778e-001 -6.954398e-001 5.481222e-001
      outer loop
         vertex 5.835213e+000 2.773749e+000 4.266180e+002
         vertex 2.773747e+000 2.773749e+000 4.240226e+002
         vertex 5.171575e+000 1.171572e+000 4.240226e+002
      endloop
   endfacet
   facet normal 4.336899e-019 -8.314707e-001 5.555686e-001
      outer loop
         vertex 8.000001e+000 6.089639e-001 4.240226e+002
         vertex 4.906863e+002 6.089639e-001 4.240226e+002
         vertex 4.906863e+002 2.343146e+000 4.266180e+002
      endloop
   endfacet
   facet normal -1.631729e-001 -8.203269e-001 5.481226e-001
      outer loop
         vertex 8.000001e+000 2.343146e+000 4.266180e+002
         vertex 5.171575e+000 1.171572e+000 4.240226e+002
         vertex 8.000001e+000 6.089639e-001 4.240226e+002
      endloop
   endfacet
   facet normal 8.160840e-001 5.452890e-001 1.914861e-001
      outer loop
         vertex 4.980773e+002 1.106147e+001 4.209611e+002
         vertex 4.959125e+002 1.322625e+001 4.240226e+002
         vertex 4.975147e+002 1.082843e+001 4.240226e+002
      endloop
   endfacet
   facet normal 5.879385e-001 5.879385e-001 5.555686e-001
      outer loop
         vertex 4.959125e+002 1.322625e+001 4.240226e+002
         vertex 1.322625e+001 4.959125e+002 4.240226e+002
         vertex 1.200000e+001 4.946863e+002 4.266180e+002
      endloop
   endfacet
   facet normal -9.626367e-001 1.914819e-001 1.914819e-001
      outer loop
         vertex 6.089658e-001 4.937477e+002 4.209611e+002
         vertex 6.089658e-001 4.906863e+002 4.240226e+002
         vertex 1.171574e+000 4.935147e+002 4.240226e+002
      endloop
   endfacet
   facet normal 4.646780e-001 6.954396e-001 5.481225e-001
      outer loop
         vertex 1.322625e+001 4.959125e+002 4.240226e+002
         vertex 1.082843e+001 4.975147e+002 4.240226e+002
         vertex 1.016478e+001 4.959125e+002 4.266180e+002
      endloop
   endfacet
   facet normal 1.631765e-001 8.203250e-001 5.481244e-001
      outer loop
         vertex 1.082843e+001 4.975147e+002 4.240226e+002
         vertex 8.000001e+000 4.980773e+002 4.240226e+002
         vertex 8.000001e+000 4.963431e+002 4.266180e+002
      endloop
   endfacet
   facet normal -1.631769e-001 8.203264e-001 5.481222e-001
      outer loop
         vertex 5.171575e+000 4.975147e+002 4.240226e+002
         vertex 5.835213e+000 4.959125e+002 4.266180e+002
         vertex 8.000001e+000 4.980773e+002 4.240226e+002
      endloop
   endfacet
   facet normal -6.954408e-001 4.646775e-001 5.481213e-001
      outer loop
         vertex 1.171574e+000 4.935147e+002 4.240226e+002
         vertex 2.773747e+000 4.928511e+002 4.266180e+002
         vertex 2.773747e+000 4.959125e+002 4.240226e+002
      endloop
   endfacet
   facet normal -4.646766e-001 6.954396e-001 5.481237e-001
      outer loop
         vertex 2.773747e+000 4.959125e+002 4.240226e+002
         vertex 4.000000e+000 4.946863e+002 4.266180e+002
         vertex 5.171575e+000 4.975147e+002 4.240226e+002
      endloop
   endfacet
   facet normal 9.626352e-001 1.914846e-001 1.914867e-001
      outer loop
         vertex 4.980773e+002 1.106147e+001 4.209611e+002
         vertex 4.975147e+002 1.082843e+001 4.240226e+002
         vertex 4.986863e+002 8.000000e+000 4.209611e+002
      endloop
   endfacet
   facet normal 1.914819e-001 -9.626366e-001 1.914826e-001
      outer loop
         vertex 4.906863e+002 1.387779e-014 4.209611e+002
         vertex 4.935147e+002 1.171572e+000 4.240226e+002
         vertex 4.906863e+002 6.089639e-001 4.240226e+002
      endloop
   endfacet
   facet normal 5.452895e-001 -8.160836e-001 1.914862e-001
      outer loop
         vertex 4.935147e+002 1.171572e+000 4.240226e+002
         vertex 4.937478e+002 6.089639e-001 4.209611e+002
         vertex 4.959125e+002 2.773749e+000 4.240226e+002
      endloop
   endfacet
   facet normal 8.160831e-001 -5.452886e-001 1.914906e-001
      outer loop
         vertex 4.963432e+002 2.343146e+000 4.209611e+002
         vertex 4.975147e+002 5.171573e+000 4.240226e+002
         vertex 4.959125e+002 2.773749e+000 4.240226e+002
      endloop
   endfacet
   facet normal 9.626352e-001 1.914845e-001 1.914868e-001
      outer loop
         vertex 4.986863e+002 8.000000e+000 4.209611e+002
         vertex 4.975147e+002 1.082843e+001 4.240226e+002
         vertex 4.980773e+002 8.000000e+000 4.240226e+002
      endloop
   endfacet
   facet normal 9.626352e-001 -1.914845e-001 1.914867e-001
      outer loop
         vertex 4.980773e+002 4.938532e+000 4.209611e+002
         vertex 4.980773e+002 8.000000e+000 4.240226e+002
         vertex 4.975147e+002 5.171573e+000 4.240226e+002
      endloop
   endfacet
   facet normal -9.626362e-001 1.914831e-001 1.914831e-001
      outer loop
         vertex 0.000000e+000 4.906863e+002 4.209611e+002
         vertex 6.089658e-001 4.906863e+002 4.240226e+002
         vertex 6.089658e-001 4.937477e+002 4.209611e+002
      endloop
   endfacet
   facet normal -9.807847e-001 0.000000e+000 1.950931e-001
      outer loop
         vertex 0.000000e+000 4.906863e+002 4.209611e+002
         vertex 6.089658e-001 8.000000e+000 4.240226e+002
         vertex 6.089658e-001 4.906863e+002 4.240226e+002
      endloop
   endfacet
   facet normal -9.626368e-001 -1.914801e-001 1.914832e-001
      outer loop
         vertex 6.089658e-001 8.000000e+000 4.240226e+002
         vertex 1.040834e-014 8.000000e+000 4.209611e+002
         vertex 1.171574e+000 5.171573e+000 4.240226e+002
      endloop
   endfacet
   facet normal -8.160844e-001 -5.452896e-001 1.914825e-001
      outer loop
         vertex 1.171574e+000 5.171573e+000 4.240226e+002
         vertex 6.089658e-001 4.938532e+000 4.209611e+002
         vertex 2.773747e+000 2.773749e+000 4.240226e+002
      endloop
   endfacet
   facet normal -5.452899e-001 -8.160843e-001 1.914821e-001
      outer loop
         vertex 2.773747e+000 2.773749e+000 4.240226e+002
         vertex 2.343148e+000 2.343146e+000 4.209611e+002
         vertex 5.171575e+000 1.171572e+000 4.240226e+002
      endloop
   endfacet
   facet normal 0.000000e+000 -9.807848e-001 1.950926e-001
      outer loop
         vertex 8.000001e+000 -1.387779e-014 4.209611e+002
         vertex 4.906863e+002 6.089639e-001 4.240226e+002
         vertex 8.000001e+000 6.089639e-001 4.240226e+002
      endloop
   endfacet
   facet normal -1.914801e-001 -9.626369e-001 1.914822e-001
      outer loop
         vertex 5.171575e+000 1.171572e+000 4.240226e+002
         vertex 4.938535e+000 6.089639e-001 4.209611e+002
         vertex 8.000001e+000 6.089639e-001 4.240226e+002
      endloop
   endfacet
   facet normal 8.160859e-001 5.452846e-001 1.914905e-001
      outer loop
         vertex 4.963432e+002 1.365685e+001 4.209611e+002
         vertex 4.959125e+002 1.322625e+001 4.240226e+002
         vertex 4.980773e+002 1.106147e+001 4.209611e+002
      endloop
   endfacet
   facet normal 6.935187e-001 6.935187e-001 1.950994e-001
      outer loop
         vertex 4.963432e+002 1.365685e+001 4.209611e+002
         vertex 1.322625e+001 4.959125e+002 4.240226e+002
         vertex 4.959125e+002 1.322625e+001 4.240226e+002
      endloop
   endfacet
   facet normal -8.160854e-001 5.452886e-001 1.914811e-001
      outer loop
         vertex 6.089658e-001 4.937477e+002 4.209611e+002
         vertex 1.171574e+000 4.935147e+002 4.240226e+002
         vertex 2.343148e+000 4.963431e+002 4.209611e+002
      endloop
   endfacet
   facet normal 5.452901e-001 8.160840e-001 1.914834e-001
      outer loop
         vertex 1.365685e+001 4.963431e+002 4.209611e+002
         vertex 1.082843e+001 4.975147e+002 4.240226e+002
         vertex 1.322625e+001 4.959125e+002 4.240226e+002
      endloop
   endfacet
   facet normal 1.914845e-001 9.626353e-001 1.914866e-001
      outer loop
         vertex 1.082843e+001 4.975147e+002 4.240226e+002
         vertex 1.106147e+001 4.980773e+002 4.209611e+002
         vertex 8.000001e+000 4.980773e+002 4.240226e+002
      endloop
   endfacet
   facet normal -1.914849e-001 9.626369e-001 1.914776e-001
      outer loop
         vertex 8.000001e+000 4.986863e+002 4.209611e+002
         vertex 5.171575e+000 4.975147e+002 4.240226e+002
         vertex 8.000001e+000 4.980773e+002 4.240226e+002
      endloop
   endfacet
   facet normal -8.160849e-001 5.452892e-001 1.914818e-001
      outer loop
         vertex 2.343148e+000 4.963431e+002 4.209611e+002
         vertex 1.171574e+000 4.935147e+002 4.240226e+002
         vertex 2.773747e+000 4.959125e+002 4.240226e+002
      endloop
   endfacet
   facet normal -5.452887e-001 8.160843e-001 1.914858e-001
      outer loop
         vertex 4.938535e+000 4.980773e+002 4.209611e+002
         vertex 2.773747e+000 4.959125e+002 4.240226e+002
         vertex 5.171575e+000 4.975147e+002 4.240226e+002
      endloop
   endfacet
   facet normal 0.000000e+000 -9.807848e-001 1.950926e-001
      outer loop
         vertex 8.000001e+000 -1.387779e-014 4.209611e+002
         vertex 4.906863e+002 -1.387779e-014 4.209611e+002
         vertex 4.906863e+002 6.089639e-001 4.240226e+002
      endloop
   endfacet
   facet normal 9.626359e-001 1.914847e-001 -1.914832e-001
      outer loop
         vertex 4.986863e+002 8.000000e+000 4.209611e+002
         vertex 4.980773e+002 8.000000e+000 4.178996e+002
         vertex 4.980773e+002 1.106147e+001 4.209611e+002
      endloop
   endfacet
   facet normal 1.914807e-001 -9.626366e-001 1.914837e-001
      outer loop
         vertex 4.906863e+002 1.387779e-014 4.209611e+002
         vertex 4.937478e+002 6.089639e-001 4.209611e+002
         vertex 4.935147e+002 1.171572e+000 4.240226e+002
      endloop
   endfacet
   facet normal 5.452878e-001 -8.160843e-001 1.914879e-001
      outer loop
         vertex 4.963432e+002 2.343146e+000 4.209611e+002
         vertex 4.959125e+002 2.773749e+000 4.240226e+002
         vertex 4.937478e+002 6.089639e-001 4.209611e+002
      endloop
   endfacet
   facet normal 8.160865e-001 -5.452852e-001 1.914862e-001
      outer loop
         vertex 4.980773e+002 4.938532e+000 4.209611e+002
         vertex 4.975147e+002 5.171573e+000 4.240226e+002
         vertex 4.963432e+002 2.343146e+000 4.209611e+002
      endloop
   endfacet
   facet normal 9.626352e-001 -1.914846e-001 1.914868e-001
      outer loop
         vertex 4.986863e+002 8.000000e+000 4.209611e+002
         vertex 4.980773e+002 8.000000e+000 4.240226e+002
         vertex 4.980773e+002 4.938532e+000 4.209611e+002
      endloop
   endfacet
   facet normal -9.626371e-001 1.914833e-001 -1.914783e-001
      outer loop
         vertex -1.387779e-014 4.906863e+002 4.209611e+002
         vertex 6.089658e-001 4.937477e+002 4.209611e+002
         vertex 1.171574e+000 4.935147e+002 4.178996e+002
      endloop
   endfacet
   facet normal -9.807847e-001 -2.168450e-019 1.950931e-001
      outer loop
         vertex -1.043583e-016 4.906863e+002 4.209611e+002
         vertex -1.701426e-018 8.000000e+000 4.209611e+002
         vertex 6.089658e-001 8.000000e+000 4.240226e+002
      endloop
   endfacet
   facet normal -9.626368e-001 -1.914810e-001 1.914824e-001
      outer loop
         vertex 1.171574e+000 5.171573e+000 4.240226e+002
         vertex 1.214306e-014 8.000000e+000 4.209611e+002
         vertex 6.089658e-001 4.938532e+000 4.209611e+002
      endloop
   endfacet
   facet normal -8.160841e-001 -5.452903e-001 1.914818e-001
      outer loop
         vertex 2.773747e+000 2.773749e+000 4.240226e+002
         vertex 6.089658e-001 4.938532e+000 4.209611e+002
         vertex 2.343148e+000 2.343146e+000 4.209611e+002
      endloop
   endfacet
   facet normal -5.452900e-001 -8.160842e-001 1.914822e-001
      outer loop
         vertex 5.171575e+000 1.171572e+000 4.240226e+002
         vertex 2.343148e+000 2.343146e+000 4.209611e+002
         vertex 4.938535e+000 6.089639e-001 4.209611e+002
      endloop
   endfacet
   facet normal -1.914805e-001 -9.626368e-001 1.914827e-001
      outer loop
         vertex 8.000001e+000 6.089639e-001 4.240226e+002
         vertex 4.938535e+000 6.089639e-001 4.209611e+002
         vertex 8.000001e+000 -8.673617e-015 4.209611e+002
      endloop
   endfacet
   facet normal 9.626359e-001 1.914846e-001 -1.914830e-001
      outer loop
         vertex 4.975147e+002 1.082843e+001 4.178996e+002
         vertex 4.980773e+002 1.106147e+001 4.209611e+002
         vertex 4.980773e+002 8.000000e+000 4.178996e+002
      endloop
   endfacet
   facet normal 8.160872e-001 5.452854e-001 -1.914825e-001
      outer loop
         vertex 4.963432e+002 1.365685e+001 4.209611e+002
         vertex 4.980773e+002 1.106147e+001 4.209611e+002
         vertex 4.975147e+002 1.082843e+001 4.178996e+002
      endloop
   endfacet
   facet normal 6.935195e-001 6.935196e-001 1.950934e-001
      outer loop
         vertex 4.963432e+002 1.365685e+001 4.209611e+002
         vertex 1.365685e+001 4.963431e+002 4.209611e+002
         vertex 1.322625e+001 4.959125e+002 4.240226e+002
      endloop
   endfacet
   facet normal -8.160856e-001 5.452896e-001 -1.914773e-001
      outer loop
         vertex 1.171574e+000 4.935147e+002 4.178996e+002
         vertex 6.089658e-001 4.937477e+002 4.209611e+002
         vertex 2.773747e+000 4.959125e+002 4.178996e+002
      endloop
   endfacet
   facet normal -8.160859e-001 5.452889e-001 -1.914781e-001
      outer loop
         vertex 2.343148e+000 4.963431e+002 4.209611e+002
         vertex 2.773747e+000 4.959125e+002 4.178996e+002
         vertex 6.089658e-001 4.937477e+002 4.209611e+002
      endloop
   endfacet
   facet normal 5.452917e-001 8.160822e-001 1.914856e-001
      outer loop
         vertex 1.365685e+001 4.963431e+002 4.209611e+002
         vertex 1.106147e+001 4.980773e+002 4.209611e+002
         vertex 1.082843e+001 4.975147e+002 4.240226e+002
      endloop
   endfacet
   facet normal 1.914758e-001 9.626387e-001 1.914779e-001
      outer loop
         vertex 8.000001e+000 4.986863e+002 4.209611e+002
         vertex 8.000001e+000 4.980773e+002 4.240226e+002
         vertex 1.106147e+001 4.980773e+002 4.209611e+002
      endloop
   endfacet
   facet normal -1.914755e-001 9.626371e-001 1.914863e-001
      outer loop
         vertex 4.938535e+000 4.980773e+002 4.209611e+002
         vertex 5.171575e+000 4.975147e+002 4.240226e+002
         vertex 8.000001e+000 4.986863e+002 4.209611e+002
      endloop
   endfacet
   facet normal -5.452921e-001 8.160828e-001 1.914823e-001
      outer loop
         vertex 2.343148e+000 4.963431e+002 4.209611e+002
         vertex 2.773747e+000 4.959125e+002 4.240226e+002
         vertex 4.938535e+000 4.980773e+002 4.209611e+002
      endloop
   endfacet
   facet normal 0.000000e+000 -9.807856e-001 -1.950888e-001
      outer loop
         vertex 8.000001e+000 6.089639e-001 4.178996e+002
         vertex 4.906863e+002 0.000000e+000 4.209611e+002
         vertex 8.000001e+000 0.000000e+000 4.209611e+002
      endloop
   endfacet
   facet normal 9.626359e-001 -1.914846e-001 -1.914832e-001
      outer loop
         vertex 4.986863e+002 8.000000e+000 4.209611e+002
         vertex 4.975147e+002 5.171573e+000 4.178996e+002
         vertex 4.980773e+002 8.000000e+000 4.178996e+002
      endloop
   endfacet
   facet normal 1.914809e-001 -9.626375e-001 -1.914790e-001
      outer loop
         vertex 4.906863e+002 6.089639e-001 4.178996e+002
         vertex 4.937478e+002 6.089639e-001 4.209611e+002
         vertex 4.906863e+002 0.000000e+000 4.209611e+002
      endloop
   endfacet
   facet normal 5.452884e-001 -8.160852e-001 -1.914826e-001
      outer loop
         vertex 4.935147e+002 1.171572e+000 4.178996e+002
         vertex 4.963432e+002 2.343146e+000 4.209611e+002
         vertex 4.937478e+002 6.089639e-001 4.209611e+002
      endloop
   endfacet
   facet normal 8.160864e-001 -5.452852e-001 -1.914868e-001
      outer loop
         vertex 4.959125e+002 2.773749e+000 4.178996e+002
         vertex 4.980773e+002 4.938532e+000 4.209611e+002
         vertex 4.963432e+002 2.343146e+000 4.209611e+002
      endloop
   endfacet
   facet normal 9.626359e-001 -1.914848e-001 -1.914831e-001
      outer loop
         vertex 4.980773e+002 4.938532e+000 4.209611e+002
         vertex 4.975147e+002 5.171573e+000 4.178996e+002
         vertex 4.986863e+002 8.000000e+000 4.209611e+002
      endloop
   endfacet
   facet normal -9.626371e-001 1.914820e-001 -1.914795e-001
      outer loop
         vertex 1.171574e+000 4.935147e+002 4.178996e+002
         vertex 6.089658e-001 4.906863e+002 4.178996e+002
         vertex 1.387779e-014 4.906863e+002 4.209611e+002
      endloop
   endfacet
   facet normal -9.807855e-001 0.000000e+000 -1.950894e-001
      outer loop
         vertex 6.089658e-001 4.906863e+002 4.178996e+002
         vertex 0.000000e+000 8.000000e+000 4.209611e+002
         vertex 0.000000e+000 4.906863e+002 4.209611e+002
      endloop
   endfacet
   facet normal -1.914802e-001 -9.626376e-001 -1.914790e-001
      outer loop
         vertex 8.000001e+000 -2.775558e-014 4.209611e+002
         vertex 5.171575e+000 1.171572e+000 4.178996e+002
         vertex 8.000001e+000 6.089639e-001 4.178996e+002
      endloop
   endfacet
   facet normal -9.626373e-001 -1.914811e-001 -1.914795e-001
      outer loop
         vertex 6.089658e-001 8.000000e+000 4.178996e+002
         vertex 6.089658e-001 4.938532e+000 4.209611e+002
         vertex -2.775558e-014 8.000000e+000 4.209611e+002
      endloop
   endfacet
   facet normal -8.160846e-001 -5.452906e-001 -1.914788e-001
      outer loop
         vertex 1.171574e+000 5.171573e+000 4.178996e+002
         vertex 2.343148e+000 2.343146e+000 4.209611e+002
         vertex 6.089658e-001 4.938532e+000 4.209611e+002
      endloop
   endfacet
   facet normal -5.452904e-001 -8.160848e-001 -1.914784e-001
      outer loop
         vertex 2.773747e+000 2.773749e+000 4.178996e+002
         vertex 4.938535e+000 6.089639e-001 4.209611e+002
         vertex 2.343148e+000 2.343146e+000 4.209611e+002
      endloop
   endfacet
   facet normal -1.914807e-001 -9.626376e-001 -1.914786e-001
      outer loop
         vertex 8.000001e+000 1.387779e-014 4.209611e+002
         vertex 4.938535e+000 6.089639e-001 4.209611e+002
         vertex 5.171575e+000 1.171572e+000 4.178996e+002
      endloop
   endfacet
   facet normal 8.203294e-001 1.631774e-001 -5.481176e-001
      outer loop
         vertex 4.975147e+002 1.082843e+001 4.178996e+002
         vertex 4.980773e+002 8.000000e+000 4.178996e+002
         vertex 4.963432e+002 8.000000e+000 4.153042e+002
      endloop
   endfacet
   facet normal 8.160838e-001 5.452889e-001 -1.914870e-001
      outer loop
         vertex 4.975147e+002 1.082843e+001 4.178996e+002
         vertex 4.959125e+002 1.322625e+001 4.178996e+002
         vertex 4.963432e+002 1.365685e+001 4.209611e+002
      endloop
   endfacet
   facet normal 6.935192e-001 6.935192e-001 -1.950957e-001
      outer loop
         vertex 4.959125e+002 1.322625e+001 4.178996e+002
         vertex 1.365685e+001 4.963431e+002 4.209611e+002
         vertex 4.963432e+002 1.365685e+001 4.209611e+002
      endloop
   endfacet
   facet normal -6.954396e-001 4.646767e-001 -5.481235e-001
      outer loop
         vertex 1.171574e+000 4.935147e+002 4.178996e+002
         vertex 2.773747e+000 4.959125e+002 4.178996e+002
         vertex 4.000000e+000 4.946863e+002 4.153042e+002
      endloop
   endfacet
   facet normal -5.452894e-001 8.160855e-001 -1.914784e-001
      outer loop
         vertex 2.343148e+000 4.963431e+002 4.209611e+002
         vertex 5.171575e+000 4.975147e+002 4.178996e+002
         vertex 2.773747e+000 4.959125e+002 4.178996e+002
      endloop
   endfacet
   facet normal 5.452923e-001 8.160832e-001 -1.914798e-001
      outer loop
         vertex 1.322625e+001 4.959125e+002 4.178996e+002
         vertex 1.106147e+001 4.980773e+002 4.209611e+002
         vertex 1.365685e+001 4.963431e+002 4.209611e+002
      endloop
   endfacet
   facet normal 1.914756e-001 9.626378e-001 -1.914826e-001
      outer loop
         vertex 1.082843e+001 4.975147e+002 4.178996e+002
         vertex 8.000001e+000 4.986863e+002 4.209611e+002
         vertex 1.106147e+001 4.980773e+002 4.209611e+002
      endloop
   endfacet
   facet normal -1.914759e-001 9.626394e-001 -1.914743e-001
      outer loop
         vertex 8.000001e+000 4.980773e+002 4.178996e+002
         vertex 4.938535e+000 4.980773e+002 4.209611e+002
         vertex 8.000001e+000 4.986863e+002 4.209611e+002
      endloop
   endfacet
   facet normal -5.452922e-001 8.160828e-001 -1.914820e-001
      outer loop
         vertex 4.938535e+000 4.980773e+002 4.209611e+002
         vertex 5.171575e+000 4.975147e+002 4.178996e+002
         vertex 2.343148e+000 4.963431e+002 4.209611e+002
      endloop
   endfacet
   facet normal 0.000000e+000 -9.807856e-001 -1.950888e-001
      outer loop
         vertex 8.000001e+000 6.089639e-001 4.178996e+002
         vertex 4.906863e+002 6.089639e-001 4.178996e+002
         vertex 4.906863e+002 0.000000e+000 4.209611e+002
      endloop
   endfacet
   facet normal 8.203282e-001 -1.631852e-001 -5.481169e-001
      outer loop
         vertex 4.963432e+002 8.000000e+000 4.153042e+002
         vertex 4.980773e+002 8.000000e+000 4.178996e+002
         vertex 4.959125e+002 5.835215e+000 4.153042e+002
      endloop
   endfacet
   facet normal 8.203263e-001 -1.631768e-001 -5.481223e-001
      outer loop
         vertex 4.980773e+002 8.000000e+000 4.178996e+002
         vertex 4.975147e+002 5.171573e+000 4.178996e+002
         vertex 4.959125e+002 5.835215e+000 4.153042e+002
      endloop
   endfacet
   facet normal 1.914820e-001 -9.626371e-001 -1.914801e-001
      outer loop
         vertex 4.906863e+002 6.089639e-001 4.178996e+002
         vertex 4.935147e+002 1.171572e+000 4.178996e+002
         vertex 4.937478e+002 6.089639e-001 4.209611e+002
      endloop
   endfacet
   facet normal 5.452898e-001 -8.160840e-001 -1.914843e-001
      outer loop
         vertex 4.935147e+002 1.171572e+000 4.178996e+002
         vertex 4.959125e+002 2.773749e+000 4.178996e+002
         vertex 4.963432e+002 2.343146e+000 4.209611e+002
      endloop
   endfacet
   facet normal 8.160845e-001 -5.452896e-001 -1.914824e-001
      outer loop
         vertex 4.959125e+002 2.773749e+000 4.178996e+002
         vertex 4.975147e+002 5.171573e+000 4.178996e+002
         vertex 4.980773e+002 4.938532e+000 4.209611e+002
      endloop
   endfacet
   facet normal -6.954389e-001 4.646807e-001 -5.481209e-001
      outer loop
         vertex 2.773747e+000 4.928511e+002 4.153042e+002
         vertex 1.171574e+000 4.935147e+002 4.178996e+002
         vertex 4.000000e+000 4.946863e+002 4.153042e+002
      endloop
   endfacet
   facet normal -8.203271e-001 1.631745e-001 -5.481218e-001
      outer loop
         vertex 6.089658e-001 4.906863e+002 4.178996e+002
         vertex 1.171574e+000 4.935147e+002 4.178996e+002
         vertex 2.773747e+000 4.928511e+002 4.153042e+002
      endloop
   endfacet
   facet normal -9.807855e-001 -2.168450e-019 -1.950894e-001
      outer loop
         vertex 6.089658e-001 4.906863e+002 4.178996e+002
         vertex 6.089658e-001 8.000000e+000 4.178996e+002
         vertex -1.701427e-018 8.000000e+000 4.209611e+002
      endloop
   endfacet
   facet normal -1.631729e-001 -8.203269e-001 -5.481226e-001
      outer loop
         vertex 8.000001e+000 6.089639e-001 4.178996e+002
         vertex 5.171575e+000 1.171572e+000 4.178996e+002
         vertex 5.835213e+000 2.773749e+000 4.153042e+002
      endloop
   endfacet
   facet normal -9.626377e-001 -1.914802e-001 -1.914787e-001
      outer loop
         vertex 6.089658e-001 8.000000e+000 4.178996e+002
         vertex 1.171574e+000 5.171573e+000 4.178996e+002
         vertex 6.089658e-001 4.938532e+000 4.209611e+002
      endloop
   endfacet
   facet normal -8.160852e-001 -5.452901e-001 -1.914781e-001
      outer loop
         vertex 1.171574e+000 5.171573e+000 4.178996e+002
         vertex 2.773747e+000 2.773749e+000 4.178996e+002
         vertex 2.343148e+000 2.343146e+000 4.209611e+002
      endloop
   endfacet
   facet normal -5.452902e-001 -8.160849e-001 -1.914785e-001
      outer loop
         vertex 2.773747e+000 2.773749e+000 4.178996e+002
         vertex 5.171575e+000 1.171572e+000 4.178996e+002
         vertex 4.938535e+000 6.089639e-001 4.209611e+002
      endloop
   endfacet
   facet normal 8.203244e-001 1.631844e-001 -5.481231e-001
      outer loop
         vertex 4.959125e+002 1.016478e+001 4.153042e+002
         vertex 4.975147e+002 1.082843e+001 4.178996e+002
         vertex 4.963432e+002 8.000000e+000 4.153042e+002
      endloop
   endfacet
   facet normal 6.954402e-001 4.646775e-001 -5.481221e-001
      outer loop
         vertex 4.959125e+002 1.322625e+001 4.178996e+002
         vertex 4.975147e+002 1.082843e+001 4.178996e+002
         vertex 4.959125e+002 1.016478e+001 4.153042e+002
      endloop
   endfacet
   facet normal 6.935201e-001 6.935201e-001 -1.950897e-001
      outer loop
         vertex 4.959125e+002 1.322625e+001 4.178996e+002
         vertex 1.322625e+001 4.959125e+002 4.178996e+002
         vertex 1.365685e+001 4.963431e+002 4.209611e+002
      endloop
   endfacet
   facet normal -4.646793e-001 6.954374e-001 -5.481240e-001
      outer loop
         vertex 4.000000e+000 4.946863e+002 4.153042e+002
         vertex 2.773747e+000 4.959125e+002 4.178996e+002
         vertex 5.835213e+000 4.959125e+002 4.153042e+002
      endloop
   endfacet
   facet normal -4.646774e-001 6.954406e-001 -5.481217e-001
      outer loop
         vertex 2.773747e+000 4.959125e+002 4.178996e+002
         vertex 5.171575e+000 4.975147e+002 4.178996e+002
         vertex 5.835213e+000 4.959125e+002 4.153042e+002
      endloop
   endfacet
   facet normal 5.452901e-001 8.160841e-001 -1.914820e-001
      outer loop
         vertex 1.322625e+001 4.959125e+002 4.178996e+002
         vertex 1.082843e+001 4.975147e+002 4.178996e+002
         vertex 1.106147e+001 4.980773e+002 4.209611e+002
      endloop
   endfacet
   facet normal 1.914849e-001 9.626377e-001 -1.914739e-001
      outer loop
         vertex 1.082843e+001 4.975147e+002 4.178996e+002
         vertex 8.000001e+000 4.980773e+002 4.178996e+002
         vertex 8.000001e+000 4.986863e+002 4.209611e+002
      endloop
   endfacet
   facet normal -1.914846e-001 9.626359e-001 -1.914829e-001
      outer loop
         vertex 8.000001e+000 4.980773e+002 4.178996e+002
         vertex 5.171575e+000 4.975147e+002 4.178996e+002
         vertex 4.938535e+000 4.980773e+002 4.209611e+002
      endloop
   endfacet
   facet normal -1.631729e-001 -8.203269e-001 -5.481226e-001
      outer loop
         vertex 8.000001e+000 6.089639e-001 4.178996e+002
         vertex 5.835213e+000 2.773749e+000 4.153042e+002
         vertex 8.000001e+000 2.343146e+000 4.153042e+002
      endloop
   endfacet
   facet normal 0.000000e+000 -8.314707e-001 -5.555686e-001
      outer loop
         vertex 8.000001e+000 2.343146e+000 4.153042e+002
         vertex 4.906863e+002 6.089639e-001 4.178996e+002
         vertex 8.000001e+000 6.089639e-001 4.178996e+002
      endloop
   endfacet
   facet normal 5.522012e-001 -1.098476e-001 -8.264426e-001
      outer loop
         vertex 4.963432e+002 8.000000e+000 4.153042e+002
         vertex 4.959125e+002 5.835215e+000 4.153042e+002
         vertex 4.935147e+002 6.828427e+000 4.135701e+002
      endloop
   endfacet
   facet normal 6.954437e-001 -4.646715e-001 -5.481227e-001
      outer loop
         vertex 4.946863e+002 4.000000e+000 4.153042e+002
         vertex 4.959125e+002 5.835215e+000 4.153042e+002
         vertex 4.975147e+002 5.171573e+000 4.178996e+002
      endloop
   endfacet
   facet normal 1.631745e-001 -8.203267e-001 -5.481225e-001
      outer loop
         vertex 4.906863e+002 2.343146e+000 4.153042e+002
         vertex 4.935147e+002 1.171572e+000 4.178996e+002
         vertex 4.906863e+002 6.089639e-001 4.178996e+002
      endloop
   endfacet
   facet normal 4.646780e-001 -6.954400e-001 -5.481219e-001
      outer loop
         vertex 4.928511e+002 2.773749e+000 4.153042e+002
         vertex 4.959125e+002 2.773749e+000 4.178996e+002
         vertex 4.935147e+002 1.171572e+000 4.178996e+002
      endloop
   endfacet
   facet normal 6.954424e-001 -4.646792e-001 -5.481178e-001
      outer loop
         vertex 4.946863e+002 4.000000e+000 4.153042e+002
         vertex 4.975147e+002 5.171573e+000 4.178996e+002
         vertex 4.959125e+002 2.773749e+000 4.178996e+002
      endloop
   endfacet
   facet normal -4.681359e-001 3.128006e-001 -8.264410e-001
      outer loop
         vertex 2.773747e+000 4.928511e+002 4.153042e+002
         vertex 4.000000e+000 4.946863e+002 4.153042e+002
         vertex 5.835213e+000 4.928511e+002 4.135701e+002
      endloop
   endfacet
   facet normal -8.203268e-001 1.631734e-001 -5.481226e-001
      outer loop
         vertex 2.773747e+000 4.928511e+002 4.153042e+002
         vertex 2.343148e+000 4.906863e+002 4.153042e+002
         vertex 6.089658e-001 4.906863e+002 4.178996e+002
      endloop
   endfacet
   facet normal -8.314707e-001 0.000000e+000 -5.555686e-001
      outer loop
         vertex 2.343148e+000 4.906863e+002 4.153042e+002
         vertex 6.089658e-001 8.000000e+000 4.178996e+002
         vertex 6.089658e-001 4.906863e+002 4.178996e+002
      endloop
   endfacet
   facet normal -4.646786e-001 -6.954394e-001 -5.481222e-001
      outer loop
         vertex 4.000000e+000 4.000000e+000 4.153042e+002
         vertex 5.835213e+000 2.773749e+000 4.153042e+002
         vertex 5.171575e+000 1.171572e+000 4.178996e+002
      endloop
   endfacet
   facet normal -8.203269e-001 -1.631729e-001 -5.481226e-001
      outer loop
         vertex 2.343148e+000 8.000000e+000 4.153042e+002
         vertex 1.171574e+000 5.171573e+000 4.178996e+002
         vertex 6.089658e-001 8.000000e+000 4.178996e+002
      endloop
   endfacet
   facet normal -6.954401e-001 -4.646777e-001 -5.481220e-001
      outer loop
         vertex 2.773747e+000 5.835215e+000 4.153042e+002
         vertex 2.773747e+000 2.773749e+000 4.178996e+002
         vertex 1.171574e+000 5.171573e+000 4.178996e+002
      endloop
   endfacet
   facet normal -4.646777e-001 -6.954395e-001 -5.481227e-001
      outer loop
         vertex 4.000000e+000 4.000000e+000 4.153042e+002
         vertex 5.171575e+000 1.171572e+000 4.178996e+002
         vertex 2.773747e+000 2.773749e+000 4.178996e+002
      endloop
   endfacet
   facet normal 5.522020e-001 1.098477e-001 -8.264421e-001
      outer loop
         vertex 4.959125e+002 1.016478e+001 4.153042e+002
         vertex 4.963432e+002 8.000000e+000 4.153042e+002
         vertex 4.937478e+002 8.000000e+000 4.135701e+002
      endloop
   endfacet
   facet normal 5.522018e-001 -1.098504e-001 -8.264418e-001
      outer loop
         vertex 4.937478e+002 8.000000e+000 4.135701e+002
         vertex 4.963432e+002 8.000000e+000 4.153042e+002
         vertex 4.935147e+002 6.828427e+000 4.135701e+002
      endloop
   endfacet
   facet normal 6.954469e-001 4.646733e-001 -5.481171e-001
      outer loop
         vertex 4.959125e+002 1.016478e+001 4.153042e+002
         vertex 4.946863e+002 1.200000e+001 4.153042e+002
         vertex 4.959125e+002 1.322625e+001 4.178996e+002
      endloop
   endfacet
   facet normal 5.879405e-001 5.879405e-001 -5.555646e-001
      outer loop
         vertex 4.946863e+002 1.200000e+001 4.153042e+002
         vertex 1.322625e+001 4.959125e+002 4.178996e+002
         vertex 4.959125e+002 1.322625e+001 4.178996e+002
      endloop
   endfacet
   facet normal -3.127966e-001 4.681399e-001 -8.264402e-001
      outer loop
         vertex 5.835213e+000 4.928511e+002 4.135701e+002
         vertex 4.000000e+000 4.946863e+002 4.153042e+002
         vertex 6.828427e+000 4.935147e+002 4.135701e+002
      endloop
   endfacet
   facet normal -3.127997e-001 4.681348e-001 -8.264419e-001
      outer loop
         vertex 4.000000e+000 4.946863e+002 4.153042e+002
         vertex 5.835213e+000 4.959125e+002 4.153042e+002
         vertex 6.828427e+000 4.935147e+002 4.135701e+002
      endloop
   endfacet
   facet normal -1.631732e-001 8.203273e-001 -5.481218e-001
      outer loop
         vertex 8.000001e+000 4.963431e+002 4.153042e+002
         vertex 5.835213e+000 4.959125e+002 4.153042e+002
         vertex 5.171575e+000 4.975147e+002 4.178996e+002
      endloop
   endfacet
   facet normal 4.646778e-001 6.954393e-001 -5.481229e-001
      outer loop
         vertex 1.200000e+001 4.946863e+002 4.153042e+002
         vertex 1.082843e+001 4.975147e+002 4.178996e+002
         vertex 1.322625e+001 4.959125e+002 4.178996e+002
      endloop
   endfacet
   facet normal 1.631768e-001 8.203262e-001 -5.481225e-001
      outer loop
         vertex 1.016478e+001 4.959125e+002 4.153042e+002
         vertex 8.000001e+000 4.980773e+002 4.178996e+002
         vertex 1.082843e+001 4.975147e+002 4.178996e+002
      endloop
   endfacet
   facet normal -1.631766e-001 8.203250e-001 -5.481244e-001
      outer loop
         vertex 8.000001e+000 4.963431e+002 4.153042e+002
         vertex 5.171575e+000 4.975147e+002 4.178996e+002
         vertex 8.000001e+000 4.980773e+002 4.178996e+002
      endloop
   endfacet
   facet normal -1.098401e-001 -5.522042e-001 -8.264416e-001
      outer loop
         vertex 8.000001e+000 2.343146e+000 4.153042e+002
         vertex 5.835213e+000 2.773749e+000 4.153042e+002
         vertex 6.828427e+000 5.171573e+000 4.135701e+002
      endloop
   endfacet
   facet normal -4.336899e-019 -8.314707e-001 -5.555686e-001
      outer loop
         vertex 8.000001e+000 2.343146e+000 4.153042e+002
         vertex 4.906863e+002 2.343146e+000 4.153042e+002
         vertex 4.906863e+002 6.089639e-001 4.178996e+002
      endloop
   endfacet
   facet normal 4.681371e-001 -3.127953e-001 -8.264422e-001
      outer loop
         vertex 4.935147e+002 6.828427e+000 4.135701e+002
         vertex 4.959125e+002 5.835215e+000 4.153042e+002
         vertex 4.928511e+002 5.835215e+000 4.135701e+002
      endloop
   endfacet
   facet normal 4.681374e-001 -3.127933e-001 -8.264428e-001
      outer loop
         vertex 4.928511e+002 5.835215e+000 4.135701e+002
         vertex 4.959125e+002 5.835215e+000 4.153042e+002
         vertex 4.946863e+002 4.000000e+000 4.153042e+002
      endloop
   endfacet
   facet normal 1.631747e-001 -8.203265e-001 -5.481226e-001
      outer loop
         vertex 4.906863e+002 2.343146e+000 4.153042e+002
         vertex 4.928511e+002 2.773749e+000 4.153042e+002
         vertex 4.935147e+002 1.171572e+000 4.178996e+002
      endloop
   endfacet
   facet normal 4.646756e-001 -6.954438e-001 -5.481190e-001
      outer loop
         vertex 4.928511e+002 2.773749e+000 4.153042e+002
         vertex 4.946863e+002 4.000000e+000 4.153042e+002
         vertex 4.959125e+002 2.773749e+000 4.178996e+002
      endloop
   endfacet
   facet normal -4.681371e-001 3.127928e-001 -8.264431e-001
      outer loop
         vertex 5.171575e+000 4.918578e+002 4.135701e+002
         vertex 2.773747e+000 4.928511e+002 4.153042e+002
         vertex 5.835213e+000 4.928511e+002 4.135701e+002
      endloop
   endfacet
   facet normal -5.522032e-001 1.098402e-001 -8.264422e-001
      outer loop
         vertex 2.343148e+000 4.906863e+002 4.153042e+002
         vertex 2.773747e+000 4.928511e+002 4.153042e+002
         vertex 5.171575e+000 4.918578e+002 4.135701e+002
      endloop
   endfacet
   facet normal -8.314707e-001 0.000000e+000 -5.555686e-001
      outer loop
         vertex 2.343148e+000 4.906863e+002 4.153042e+002
         vertex 2.343148e+000 8.000000e+000 4.153042e+002
         vertex 6.089658e-001 8.000000e+000 4.178996e+002
      endloop
   endfacet
   facet normal -3.127973e-001 -4.681363e-001 -8.264418e-001
      outer loop
         vertex 6.828427e+000 5.171573e+000 4.135701e+002
         vertex 5.835213e+000 2.773749e+000 4.153042e+002
         vertex 5.835213e+000 5.835215e+000 4.135701e+002
      endloop
   endfacet
   facet normal -3.127991e-001 -4.681361e-001 -8.264414e-001
      outer loop
         vertex 5.835213e+000 5.835215e+000 4.135701e+002
         vertex 5.835213e+000 2.773749e+000 4.153042e+002
         vertex 4.000000e+000 4.000000e+000 4.153042e+002
      endloop
   endfacet
   facet normal -8.203276e-001 -1.631720e-001 -5.481219e-001
      outer loop
         vertex 2.343148e+000 8.000000e+000 4.153042e+002
         vertex 2.773747e+000 5.835215e+000 4.153042e+002
         vertex 1.171574e+000 5.171573e+000 4.178996e+002
      endloop
   endfacet
   facet normal -6.954389e-001 -4.646784e-001 -5.481229e-001
      outer loop
         vertex 2.773747e+000 5.835215e+000 4.153042e+002
         vertex 4.000000e+000 4.000000e+000 4.153042e+002
         vertex 2.773747e+000 2.773749e+000 4.178996e+002
      endloop
   endfacet
   facet normal 5.522004e-001 1.098499e-001 -8.264429e-001
      outer loop
         vertex 4.935147e+002 9.171574e+000 4.135701e+002
         vertex 4.959125e+002 1.016478e+001 4.153042e+002
         vertex 4.937478e+002 8.000000e+000 4.135701e+002
      endloop
   endfacet
   facet normal 1.949484e-001 -3.878139e-002 -9.800465e-001
      outer loop
         vertex 4.937478e+002 8.000000e+000 4.135701e+002
         vertex 4.935147e+002 6.828427e+000 4.135701e+002
         vertex 4.906863e+002 8.000000e+000 4.129611e+002
      endloop
   endfacet
   facet normal 4.681381e-001 3.127935e-001 -8.264423e-001
      outer loop
         vertex 4.946863e+002 1.200000e+001 4.153042e+002
         vertex 4.959125e+002 1.016478e+001 4.153042e+002
         vertex 4.935147e+002 9.171574e+000 4.135701e+002
      endloop
   endfacet
   facet normal 5.879385e-001 5.879385e-001 -5.555686e-001
      outer loop
         vertex 4.946863e+002 1.200000e+001 4.153042e+002
         vertex 1.200000e+001 4.946863e+002 4.153042e+002
         vertex 1.322625e+001 4.959125e+002 4.178996e+002
      endloop
   endfacet
   facet normal -1.104288e-001 1.652707e-001 -9.800465e-001
      outer loop
         vertex 5.835213e+000 4.928511e+002 4.135701e+002
         vertex 6.828427e+000 4.935147e+002 4.135701e+002
         vertex 8.000001e+000 4.906863e+002 4.129611e+002
      endloop
   endfacet
   facet normal -1.098365e-001 5.522049e-001 -8.264416e-001
      outer loop
         vertex 6.828427e+000 4.935147e+002 4.135701e+002
         vertex 5.835213e+000 4.959125e+002 4.153042e+002
         vertex 8.000001e+000 4.937477e+002 4.135701e+002
      endloop
   endfacet
   facet normal -1.098399e-001 5.522025e-001 -8.264428e-001
      outer loop
         vertex 8.000001e+000 4.937477e+002 4.135701e+002
         vertex 5.835213e+000 4.959125e+002 4.153042e+002
         vertex 8.000001e+000 4.963431e+002 4.153042e+002
      endloop
   endfacet
   facet normal 4.646787e-001 6.954391e-001 -5.481224e-001
      outer loop
         vertex 1.200000e+001 4.946863e+002 4.153042e+002
         vertex 1.016478e+001 4.959125e+002 4.153042e+002
         vertex 1.082843e+001 4.975147e+002 4.178996e+002
      endloop
   endfacet
   facet normal 1.631733e-001 8.203254e-001 -5.481247e-001
      outer loop
         vertex 1.016478e+001 4.959125e+002 4.153042e+002
         vertex 8.000001e+000 4.963431e+002 4.153042e+002
         vertex 8.000001e+000 4.980773e+002 4.178996e+002
      endloop
   endfacet
   facet normal -1.098404e-001 -5.522043e-001 -8.264416e-001
      outer loop
         vertex 6.828427e+000 5.171573e+000 4.135701e+002
         vertex 8.000001e+000 4.938532e+000 4.135701e+002
         vertex 8.000001e+000 2.343146e+000 4.153042e+002
      endloop
   endfacet
   facet normal 0.000000e+000 -5.555658e-001 -8.314726e-001
      outer loop
         vertex 8.000001e+000 4.938532e+000 4.135701e+002
         vertex 4.906863e+002 2.343146e+000 4.153042e+002
         vertex 8.000001e+000 2.343146e+000 4.153042e+002
      endloop
   endfacet
   facet normal 1.652707e-001 -1.104290e-001 -9.800465e-001
      outer loop
         vertex 4.935147e+002 6.828427e+000 4.135701e+002
         vertex 4.928511e+002 5.835215e+000 4.135701e+002
         vertex 4.906863e+002 8.000000e+000 4.129611e+002
      endloop
   endfacet
   facet normal 3.128008e-001 -4.681320e-001 -8.264430e-001
      outer loop
         vertex 4.918579e+002 5.171573e+000 4.135701e+002
         vertex 4.928511e+002 5.835215e+000 4.135701e+002
         vertex 4.946863e+002 4.000000e+000 4.153042e+002
      endloop
   endfacet
   facet normal 1.098413e-001 -5.522041e-001 -8.264415e-001
      outer loop
         vertex 4.906863e+002 4.938532e+000 4.135701e+002
         vertex 4.928511e+002 2.773749e+000 4.153042e+002
         vertex 4.906863e+002 2.343146e+000 4.153042e+002
      endloop
   endfacet
   facet normal 3.127967e-001 -4.681385e-001 -8.264409e-001
      outer loop
         vertex 4.918579e+002 5.171573e+000 4.135701e+002
         vertex 4.946863e+002 4.000000e+000 4.153042e+002
         vertex 4.928511e+002 2.773749e+000 4.153042e+002
      endloop
   endfacet
   facet normal -1.652708e-001 1.104281e-001 -9.800465e-001
      outer loop
         vertex 5.171575e+000 4.918578e+002 4.135701e+002
         vertex 5.835213e+000 4.928511e+002 4.135701e+002
         vertex 8.000001e+000 4.906863e+002 4.129611e+002
      endloop
   endfacet
   facet normal -5.522038e-001 1.098429e-001 -8.264415e-001
      outer loop
         vertex 5.171575e+000 4.918578e+002 4.135701e+002
         vertex 4.938535e+000 4.906863e+002 4.135701e+002
         vertex 2.343148e+000 4.906863e+002 4.153042e+002
      endloop
   endfacet
   facet normal -5.555657e-001 0.000000e+000 -8.314728e-001
      outer loop
         vertex 4.938535e+000 4.906863e+002 4.135701e+002
         vertex 2.343148e+000 8.000000e+000 4.153042e+002
         vertex 2.343148e+000 4.906863e+002 4.153042e+002
      endloop
   endfacet
   facet normal -1.104288e-001 -1.652691e-001 -9.800467e-001
      outer loop
         vertex 6.828427e+000 5.171573e+000 4.135701e+002
         vertex 5.835213e+000 5.835215e+000 4.135701e+002
         vertex 8.000001e+000 8.000000e+000 4.129611e+002
      endloop
   endfacet
   facet normal -4.681379e-001 -3.127972e-001 -8.264410e-001
      outer loop
         vertex 5.171575e+000 6.828427e+000 4.135701e+002
         vertex 5.835213e+000 5.835215e+000 4.135701e+002
         vertex 4.000000e+000 4.000000e+000 4.153042e+002
      endloop
   endfacet
   facet normal -5.522041e-001 -1.098393e-001 -8.264418e-001
      outer loop
         vertex 4.938535e+000 8.000000e+000 4.135701e+002
         vertex 2.773747e+000 5.835215e+000 4.153042e+002
         vertex 2.343148e+000 8.000000e+000 4.153042e+002
      endloop
   endfacet
   facet normal -4.681354e-001 -3.127987e-001 -8.264419e-001
      outer loop
         vertex 5.171575e+000 6.828427e+000 4.135701e+002
         vertex 4.000000e+000 4.000000e+000 4.153042e+002
         vertex 2.773747e+000 5.835215e+000 4.153042e+002
      endloop
   endfacet
   facet normal 1.949484e-001 3.878133e-002 -9.800465e-001
      outer loop
         vertex 4.935147e+002 9.171574e+000 4.135701e+002
         vertex 4.937478e+002 8.000000e+000 4.135701e+002
         vertex 4.906863e+002 8.000000e+000 4.129611e+002
      endloop
   endfacet
   facet normal 4.681358e-001 3.127950e-001 -8.264431e-001
      outer loop
         vertex 4.935147e+002 9.171574e+000 4.135701e+002
         vertex 4.928511e+002 1.016478e+001 4.135701e+002
         vertex 4.946863e+002 1.200000e+001 4.153042e+002
      endloop
   endfacet
   facet normal 3.928428e-001 3.928428e-001 -8.314741e-001
      outer loop
         vertex 4.928511e+002 1.016478e+001 4.135701e+002
         vertex 1.200000e+001 4.946863e+002 4.153042e+002
         vertex 4.946863e+002 1.200000e+001 4.153042e+002
      endloop
   endfacet
   facet normal -3.877664e-002 1.949503e-001 -9.800463e-001
      outer loop
         vertex 6.828427e+000 4.935147e+002 4.135701e+002
         vertex 8.000001e+000 4.937477e+002 4.135701e+002
         vertex 8.000001e+000 4.906863e+002 4.129611e+002
      endloop
   endfacet
   facet normal 1.098360e-001 5.522027e-001 -8.264431e-001
      outer loop
         vertex 9.171576e+000 4.935147e+002 4.135701e+002
         vertex 8.000001e+000 4.937477e+002 4.135701e+002
         vertex 8.000001e+000 4.963431e+002 4.153042e+002
      endloop
   endfacet
   facet normal 3.127995e-001 4.681364e-001 -8.264410e-001
      outer loop
         vertex 1.016478e+001 4.928511e+002 4.135701e+002
         vertex 1.016478e+001 4.959125e+002 4.153042e+002
         vertex 1.200000e+001 4.946863e+002 4.153042e+002
      endloop
   endfacet
   facet normal 1.098405e-001 5.522038e-001 -8.264418e-001
      outer loop
         vertex 9.171576e+000 4.935147e+002 4.135701e+002
         vertex 8.000001e+000 4.963431e+002 4.153042e+002
         vertex 1.016478e+001 4.959125e+002 4.153042e+002
      endloop
   endfacet
   facet normal -3.877763e-002 -1.949480e-001 -9.800467e-001
      outer loop
         vertex 8.000001e+000 8.000000e+000 4.129611e+002
         vertex 8.000001e+000 4.938532e+000 4.135701e+002
         vertex 6.828427e+000 5.171573e+000 4.135701e+002
      endloop
   endfacet
   facet normal -4.336899e-019 -5.555658e-001 -8.314726e-001
      outer loop
         vertex 8.000001e+000 4.938532e+000 4.135701e+002
         vertex 4.906863e+002 4.938532e+000 4.135701e+002
         vertex 4.906863e+002 2.343146e+000 4.153042e+002
      endloop
   endfacet
   facet normal 1.104306e-001 -1.652685e-001 -9.800466e-001
      outer loop
         vertex 4.906863e+002 8.000000e+000 4.129611e+002
         vertex 4.928511e+002 5.835215e+000 4.135701e+002
         vertex 4.918579e+002 5.171573e+000 4.135701e+002
      endloop
   endfacet
   facet normal 1.098408e-001 -5.522045e-001 -8.264413e-001
      outer loop
         vertex 4.906863e+002 4.938532e+000 4.135701e+002
         vertex 4.918579e+002 5.171573e+000 4.135701e+002
         vertex 4.928511e+002 2.773749e+000 4.153042e+002
      endloop
   endfacet
   facet normal -1.949482e-001 3.877855e-002 -9.800466e-001
      outer loop
         vertex 8.000001e+000 4.906863e+002 4.129611e+002
         vertex 4.938535e+000 4.906863e+002 4.135701e+002
         vertex 5.171575e+000 4.918578e+002 4.135701e+002
      endloop
   endfacet
   facet normal -5.555657e-001 -4.336900e-019 -8.314728e-001
      outer loop
         vertex 4.938535e+000 4.906863e+002 4.135701e+002
         vertex 4.938535e+000 8.000000e+000 4.135701e+002
         vertex 2.343148e+000 8.000000e+000 4.153042e+002
      endloop
   endfacet
   facet normal -1.652693e-001 -1.104285e-001 -9.800467e-001
      outer loop
         vertex 8.000001e+000 8.000000e+000 4.129611e+002
         vertex 5.835213e+000 5.835215e+000 4.135701e+002
         vertex 5.171575e+000 6.828427e+000 4.135701e+002
      endloop
   endfacet
   facet normal -5.522038e-001 -1.098398e-001 -8.264419e-001
      outer loop
         vertex 4.938535e+000 8.000000e+000 4.135701e+002
         vertex 5.171575e+000 6.828427e+000 4.135701e+002
         vertex 2.773747e+000 5.835215e+000 4.153042e+002
      endloop
   endfacet
   facet normal 1.652705e-001 1.104291e-001 -9.800465e-001
      outer loop
         vertex 4.906863e+002 8.000000e+000 4.129611e+002
         vertex 4.928511e+002 1.016478e+001 4.135701e+002
         vertex 4.935147e+002 9.171574e+000 4.135701e+002
      endloop
   endfacet
   facet normal 3.928448e-001 3.928448e-001 -8.314722e-001
      outer loop
         vertex 4.928511e+002 1.016478e+001 4.135701e+002
         vertex 1.016478e+001 4.928511e+002 4.135701e+002
         vertex 1.200000e+001 4.946863e+002 4.153042e+002
      endloop
   endfacet
   facet normal 3.877661e-002 1.949503e-001 -9.800463e-001
      outer loop
         vertex 8.000001e+000 4.906863e+002 4.129611e+002
         vertex 8.000001e+000 4.937477e+002 4.135701e+002
         vertex 9.171576e+000 4.935147e+002 4.135701e+002
      endloop
   endfacet
   facet normal 3.127970e-001 4.681369e-001 -8.264418e-001
      outer loop
         vertex 1.016478e+001 4.928511e+002 4.135701e+002
         vertex 9.171576e+000 4.935147e+002 4.135701e+002
         vertex 1.016478e+001 4.959125e+002 4.153042e+002
      endloop
   endfacet
   facet normal 0.000000e+000 -1.950948e-001 -9.807844e-001
      outer loop
         vertex 8.000001e+000 8.000000e+000 4.129611e+002
         vertex 4.906863e+002 4.938532e+000 4.135701e+002
         vertex 8.000001e+000 4.938532e+000 4.135701e+002
      endloop
   endfacet
   facet normal 3.877776e-002 -1.949480e-001 -9.800467e-001
      outer loop
         vertex 4.906863e+002 8.000000e+000 4.129611e+002
         vertex 4.918579e+002 5.171573e+000 4.135701e+002
         vertex 4.906863e+002 4.938532e+000 4.135701e+002
      endloop
   endfacet
   facet normal -1.950949e-001 0.000000e+000 -9.807844e-001
      outer loop
         vertex 8.000001e+000 4.906863e+002 4.129611e+002
         vertex 4.938535e+000 8.000000e+000 4.135701e+002
         vertex 4.938535e+000 4.906863e+002 4.135701e+002
      endloop
   endfacet
   facet normal -1.949482e-001 -3.877746e-002 -9.800467e-001
      outer loop
         vertex 8.000001e+000 8.000000e+000 4.129611e+002
         vertex 5.171575e+000 6.828427e+000 4.135701e+002
         vertex 4.938535e+000 8.000000e+000 4.135701e+002
      endloop
   endfacet
   facet normal 1.379535e-001 1.379535e-001 -9.807842e-001
      outer loop
         vertex 4.906863e+002 8.000000e+000 4.129611e+002
         vertex 1.016478e+001 4.928511e+002 4.135701e+002
         vertex 4.928511e+002 1.016478e+001 4.135701e+002
      endloop
   endfacet
   facet normal 1.104294e-001 1.652704e-001 -9.800465e-001
      outer loop
         vertex 8.000001e+000 4.906863e+002 4.129611e+002
         vertex 9.171576e+000 4.935147e+002 4.135701e+002
         vertex 1.016478e+001 4.928511e+002 4.135701e+002
      endloop
   endfacet
   facet normal -2.168450e-019 -1.950948e-001 -9.807844e-001
      outer loop
         vertex 8.000001e+000 8.000000e+000 4.129611e+002
         vertex 4.906863e+002 8.000000e+000 4.129611e+002
         vertex 4.906863e+002 4.938532e+000 4.135701e+002
      endloop
   endfacet
   facet normal -1.950949e-001 2.168450e-019 -9.807844e-001
      outer loop
         vertex 8.000001e+000 4.906863e+002 4.129611e+002
         vertex 8.000001e+000 8.000000e+000 4.129611e+002
         vertex 4.938535e+000 8.000000e+000 4.135701e+002
      endloop
   endfacet
   facet normal 1.379535e-001 1.379535e-001 -9.807842e-001
      outer loop
         vertex 4.906863e+002 8.000000e+000 4.129611e+002
         vertex 8.000001e+000 4.906863e+002 4.129611e+002
         vertex 1.016478e+001 4.928511e+002 4.135701e+002
      endloop
   endfacet
   facet normal 0.000000e+000 0.000000e+000 -1.000000e+000
      outer loop
         vertex 8.000001e+000 8.000000e+000 4.129611e+002
         vertex 8.000001e+000 4.906863e+002 4.129611e+002
         vertex 4.906863e+002 8.000000e+000 4.129611e+002
      endloop
   endfacet
endsolid