solid haromszog a baszki
   facet normal 0.000000e+000 0.000000e+000 1.000000e+000
      outer loop
         vertex 4.902872e+002 5.640419e+001 3.423170e+002
         vertex 2.491436e+002 4.740771e+002 3.423170e+002
         vertex 8.000000e+000 5.640419e+001 3.423170e+002
      endloop
   endfacet
   facet normal 1.689491e-001 9.754280e-002 9.807862e-001
      outer loop
         vertex 4.929385e+002 5.793493e+001 3.417080e+002
         vertex 2.491436e+002 4.740771e+002 3.423170e+002
         vertex 4.902872e+002 5.640419e+001 3.423170e+002
      endloop
   endfacet
   facet normal -1.689484e-001 9.754240e-002 9.807864e-001
      outer loop
         vertex 2.464923e+002 4.756079e+002 3.417080e+002
         vertex 8.000000e+000 5.640419e+001 3.423170e+002
         vertex 2.491436e+002 4.740771e+002 3.423170e+002
      endloop
   endfacet
   facet normal 0.000000e+000 -1.950852e-001 9.807863e-001
      outer loop
         vertex 8.000000e+000 5.334272e+001 3.417080e+002
         vertex 4.902872e+002 5.640419e+001 3.423170e+002
         vertex 8.000000e+000 5.640419e+001 3.423170e+002
      endloop
   endfacet
   facet normal 8.105329e-002 1.820439e-001 9.799441e-001
      outer loop
         vertex 2.509431e+002 4.765539e+002 3.417080e+002
         vertex 2.497801e+002 4.770717e+002 3.417080e+002
         vertex 2.491436e+002 4.740771e+002 3.423170e+002
      endloop
   endfacet
   facet normal 0.000000e+000 1.992725e-001 9.799442e-001
      outer loop
         vertex 2.497801e+002 4.770717e+002 3.417080e+002
         vertex 2.485071e+002 4.770717e+002 3.417080e+002
         vertex 2.491436e+002 4.740771e+002 3.423170e+002
      endloop
   endfacet
   facet normal -1.480880e-001 1.333389e-001 9.799442e-001
      outer loop
         vertex 2.491436e+002 4.740771e+002 3.423170e+002
         vertex 2.473441e+002 4.765539e+002 3.417080e+002
         vertex 2.464923e+002 4.756079e+002 3.417080e+002
      endloop
   endfacet
   facet normal -8.105135e-002 1.820443e-001 9.799442e-001
      outer loop
         vertex 2.485071e+002 4.770717e+002 3.417080e+002
         vertex 2.473441e+002 4.765539e+002 3.417080e+002
         vertex 2.491436e+002 4.740771e+002 3.423170e+002
      endloop
   endfacet
   facet normal 1.171313e-001 -1.612125e-001 9.799443e-001
      outer loop
         vertex 4.915324e+002 5.360740e+001 3.417080e+002
         vertex 4.925623e+002 5.435567e+001 3.417080e+002
         vertex 4.902872e+002 5.640419e+001 3.423170e+002
      endloop
   endfacet
   facet normal 1.725731e-001 -9.963819e-002 9.799443e-001
      outer loop
         vertex 4.925623e+002 5.435567e+001 3.417080e+002
         vertex 4.931988e+002 5.545815e+001 3.417080e+002
         vertex 4.902872e+002 5.640419e+001 3.423170e+002
      endloop
   endfacet
   facet normal 1.480876e-001 1.333409e-001 9.799440e-001
      outer loop
         vertex 2.517949e+002 4.756079e+002 3.417080e+002
         vertex 2.509431e+002 4.765539e+002 3.417080e+002
         vertex 2.491436e+002 4.740771e+002 3.423170e+002
      endloop
   endfacet
   facet normal 1.689491e-001 9.754280e-002 9.807862e-001
      outer loop
         vertex 4.929385e+002 5.793493e+001 3.417080e+002
         vertex 2.517949e+002 4.756079e+002 3.417080e+002
         vertex 2.491436e+002 4.740771e+002 3.423170e+002
      endloop
   endfacet
   facet normal 1.895185e-001 6.158050e-002 9.799442e-001
      outer loop
         vertex 4.902872e+002 5.640419e+001 3.423170e+002
         vertex 4.933319e+002 5.672420e+001 3.417080e+002
         vertex 4.929385e+002 5.793493e+001 3.417080e+002
      endloop
   endfacet
   facet normal 1.981799e-001 -2.082785e-002 9.799444e-001
      outer loop
         vertex 4.931988e+002 5.545815e+001 3.417080e+002
         vertex 4.933319e+002 5.672420e+001 3.417080e+002
         vertex 4.902872e+002 5.640419e+001 3.423170e+002
      endloop
   endfacet
   facet normal -1.689490e-001 9.754276e-002 9.807863e-001
      outer loop
         vertex 2.464923e+002 4.756079e+002 3.417080e+002
         vertex 5.348692e+000 5.793493e+001 3.417080e+002
         vertex 8.000000e+000 5.640419e+001 3.423170e+002
      endloop
   endfacet
   facet normal -1.895196e-001 6.157853e-002 9.799441e-001
      outer loop
         vertex 5.348692e+000 5.793493e+001 3.417080e+002
         vertex 4.955305e+000 5.672420e+001 3.417080e+002
         vertex 8.000000e+000 5.640419e+001 3.423170e+002
      endloop
   endfacet
   facet normal -1.981809e-001 -2.082968e-002 9.799441e-001
      outer loop
         vertex 4.955305e+000 5.672420e+001 3.417080e+002
         vertex 5.088372e+000 5.545815e+001 3.417080e+002
         vertex 8.000000e+000 5.640419e+001 3.423170e+002
      endloop
   endfacet
   facet normal -1.725752e-001 -9.963606e-002 9.799442e-001
      outer loop
         vertex 5.088372e+000 5.545815e+001 3.417080e+002
         vertex 5.724886e+000 5.435567e+001 3.417080e+002
         vertex 8.000000e+000 5.640419e+001 3.423170e+002
      endloop
   endfacet
   facet normal 4.142969e-002 -1.949177e-001 9.799442e-001
      outer loop
         vertex 4.902872e+002 5.334272e+001 3.417080e+002
         vertex 4.915324e+002 5.360740e+001 3.417080e+002
         vertex 4.902872e+002 5.640419e+001 3.423170e+002
      endloop
   endfacet
   facet normal 4.336900e-019 -1.950852e-001 9.807863e-001
      outer loop
         vertex 8.000000e+000 5.334272e+001 3.417080e+002
         vertex 4.902872e+002 5.334272e+001 3.417080e+002
         vertex 4.902872e+002 5.640419e+001 3.423170e+002
      endloop
   endfacet
   facet normal -4.143066e-002 -1.949177e-001 9.799442e-001
      outer loop
         vertex 8.000000e+000 5.640419e+001 3.423170e+002
         vertex 6.754789e+000 5.360740e+001 3.417080e+002
         vertex 8.000000e+000 5.334272e+001 3.417080e+002
      endloop
   endfacet
   facet normal -1.171297e-001 -1.612144e-001 9.799442e-001
      outer loop
         vertex 5.724886e+000 5.435567e+001 3.417080e+002
         vertex 6.754789e+000 5.360740e+001 3.417080e+002
         vertex 8.000000e+000 5.640419e+001 3.423170e+002
      endloop
   endfacet
   facet normal 2.294309e-001 5.152966e-001 8.257306e-001
      outer loop
         vertex 2.497801e+002 4.770717e+002 3.417080e+002
         vertex 2.509431e+002 4.765539e+002 3.417080e+002
         vertex 2.524686e+002 4.786536e+002 3.399738e+002
      endloop
   endfacet
   facet normal 0.000000e+000 5.640656e-001 8.257300e-001
      outer loop
         vertex 2.497801e+002 4.770717e+002 3.417080e+002
         vertex 2.503197e+002 4.796104e+002 3.399738e+002
         vertex 2.485071e+002 4.770717e+002 3.417080e+002
      endloop
   endfacet
   facet normal -4.191843e-001 3.774349e-001 8.257284e-001
      outer loop
         vertex 2.458186e+002 4.786536e+002 3.399738e+002
         vertex 2.464923e+002 4.756079e+002 3.417080e+002
         vertex 2.473441e+002 4.765539e+002 3.417080e+002
      endloop
   endfacet
   facet normal -2.294262e-001 5.152995e-001 8.257300e-001
      outer loop
         vertex 2.479675e+002 4.796104e+002 3.399738e+002
         vertex 2.473441e+002 4.765539e+002 3.417080e+002
         vertex 2.485071e+002 4.770717e+002 3.417080e+002
      endloop
   endfacet
   facet normal 3.315567e-001 -4.563348e-001 8.257293e-001
      outer loop
         vertex 4.925623e+002 5.435567e+001 3.417080e+002
         vertex 4.915324e+002 5.360740e+001 3.417080e+002
         vertex 4.925880e+002 5.123640e+001 3.399738e+002
      endloop
   endfacet
   facet normal 4.884905e-001 -2.820389e-001 8.257307e-001
      outer loop
         vertex 4.925623e+002 5.435567e+001 3.417080e+002
         vertex 4.944910e+002 5.261902e+001 3.399738e+002
         vertex 4.931988e+002 5.545815e+001 3.417080e+002
      endloop
   endfacet
   facet normal 4.191792e-001 3.774371e-001 8.257301e-001
      outer loop
         vertex 2.540426e+002 4.769056e+002 3.399738e+002
         vertex 2.509431e+002 4.765539e+002 3.417080e+002
         vertex 2.517949e+002 4.756079e+002 3.417080e+002
      endloop
   endfacet
   facet normal 4.811352e-001 2.777835e-001 8.314717e-001
      outer loop
         vertex 4.951862e+002 5.923262e+001 3.399738e+002
         vertex 2.517949e+002 4.756079e+002 3.417080e+002
         vertex 4.929385e+002 5.793493e+001 3.417080e+002
      endloop
   endfacet
   facet normal 5.364555e-001 1.743112e-001 8.257306e-001
      outer loop
         vertex 4.959131e+002 5.699549e+001 3.399738e+002
         vertex 4.929385e+002 5.793493e+001 3.417080e+002
         vertex 4.933319e+002 5.672420e+001 3.417080e+002
      endloop
   endfacet
   facet normal 5.609768e-001 -5.895625e-002 8.257295e-001
      outer loop
         vertex 4.956672e+002 5.465612e+001 3.399738e+002
         vertex 4.933319e+002 5.672420e+001 3.417080e+002
         vertex 4.931988e+002 5.545815e+001 3.417080e+002
      endloop
   endfacet
   facet normal -4.811401e-001 2.777864e-001 8.314680e-001
      outer loop
         vertex 2.442446e+002 4.769056e+002 3.399738e+002
         vertex 5.348692e+000 5.793493e+001 3.417080e+002
         vertex 2.464923e+002 4.756079e+002 3.417080e+002
      endloop
   endfacet
   facet normal -5.364576e-001 1.743053e-001 8.257306e-001
      outer loop
         vertex 3.101021e+000 5.923262e+001 3.399738e+002
         vertex 4.955305e+000 5.672420e+001 3.417080e+002
         vertex 5.348692e+000 5.793493e+001 3.417080e+002
      endloop
   endfacet
   facet normal -5.609747e-001 -5.896088e-002 8.257306e-001
      outer loop
         vertex 5.088372e+000 5.545815e+001 3.417080e+002
         vertex 4.955305e+000 5.672420e+001 3.417080e+002
         vertex 2.374135e+000 5.699549e+001 3.399738e+002
      endloop
   endfacet
   facet normal -4.884942e-001 -2.820314e-001 8.257310e-001
      outer loop
         vertex 5.088372e+000 5.545815e+001 3.417080e+002
         vertex 2.620012e+000 5.465612e+001 3.399738e+002
         vertex 5.724886e+000 5.435567e+001 3.417080e+002
      endloop
   endfacet
   facet normal 1.172718e-001 -5.517384e-001 8.257313e-001
      outer loop
         vertex 4.902872e+002 5.074733e+001 3.399738e+002
         vertex 4.915324e+002 5.360740e+001 3.417080e+002
         vertex 4.902872e+002 5.334272e+001 3.417080e+002
      endloop
   endfacet
   facet normal 0.000000e+000 -5.555719e-001 8.314685e-001
      outer loop
         vertex 8.000000e+000 5.074733e+001 3.399738e+002
         vertex 4.902872e+002 5.334272e+001 3.417080e+002
         vertex 8.000000e+000 5.334272e+001 3.417080e+002
      endloop
   endfacet
   facet normal -1.172747e-001 -5.517392e-001 8.257303e-001
      outer loop
         vertex 5.699150e+000 5.123640e+001 3.399738e+002
         vertex 8.000000e+000 5.334272e+001 3.417080e+002
         vertex 6.754789e+000 5.360740e+001 3.417080e+002
      endloop
   endfacet
   facet normal -3.315499e-001 -4.563371e-001 8.257306e-001
      outer loop
         vertex 3.796138e+000 5.261902e+001 3.399738e+002
         vertex 6.754789e+000 5.360740e+001 3.417080e+002
         vertex 5.724886e+000 5.435567e+001 3.417080e+002
      endloop
   endfacet
   facet normal 4.191801e-001 3.774340e-001 8.257310e-001
      outer loop
         vertex 2.540426e+002 4.769056e+002 3.399738e+002
         vertex 2.524686e+002 4.786536e+002 3.399738e+002
         vertex 2.509431e+002 4.765539e+002 3.417080e+002
      endloop
   endfacet
   facet normal 2.294280e-001 5.153000e-001 8.257293e-001
      outer loop
         vertex 2.524686e+002 4.786536e+002 3.399738e+002
         vertex 2.503197e+002 4.796104e+002 3.399738e+002
         vertex 2.497801e+002 4.770717e+002 3.417080e+002
      endloop
   endfacet
   facet normal 0.000000e+000 5.640656e-001 8.257300e-001
      outer loop
         vertex 2.479675e+002 4.796104e+002 3.399738e+002
         vertex 2.485071e+002 4.770717e+002 3.417080e+002
         vertex 2.503197e+002 4.796104e+002 3.399738e+002
      endloop
   endfacet
   facet normal -4.191793e-001 3.774370e-001 8.257300e-001
      outer loop
         vertex 2.442446e+002 4.769056e+002 3.399738e+002
         vertex 2.464923e+002 4.756079e+002 3.417080e+002
         vertex 2.458186e+002 4.786536e+002 3.399738e+002
      endloop
   endfacet
   facet normal -2.294294e-001 5.152996e-001 8.257291e-001
      outer loop
         vertex 2.458186e+002 4.786536e+002 3.399738e+002
         vertex 2.473441e+002 4.765539e+002 3.417080e+002
         vertex 2.479675e+002 4.796104e+002 3.399738e+002
      endloop
   endfacet
   facet normal 1.172752e-001 -5.517393e-001 8.257302e-001
      outer loop
         vertex 4.902872e+002 5.074733e+001 3.399738e+002
         vertex 4.925880e+002 5.123640e+001 3.399738e+002
         vertex 4.915324e+002 5.360740e+001 3.417080e+002
      endloop
   endfacet
   facet normal 3.315525e-001 -4.563355e-001 8.257305e-001
      outer loop
         vertex 4.925880e+002 5.123640e+001 3.399738e+002
         vertex 4.944910e+002 5.261902e+001 3.399738e+002
         vertex 4.925623e+002 5.435567e+001 3.417080e+002
      endloop
   endfacet
   facet normal 4.884929e-001 -2.820373e-001 8.257298e-001
      outer loop
         vertex 4.956672e+002 5.465612e+001 3.399738e+002
         vertex 4.931988e+002 5.545815e+001 3.417080e+002
         vertex 4.944910e+002 5.261902e+001 3.399738e+002
      endloop
   endfacet
   facet normal 4.811401e-001 2.777864e-001 8.314680e-001
      outer loop
         vertex 4.951862e+002 5.923262e+001 3.399738e+002
         vertex 2.540426e+002 4.769056e+002 3.399738e+002
         vertex 2.517949e+002 4.756079e+002 3.417080e+002
      endloop
   endfacet
   facet normal 5.364539e-001 1.742997e-001 8.257341e-001
      outer loop
         vertex 4.951862e+002 5.923262e+001 3.399738e+002
         vertex 4.929385e+002 5.793493e+001 3.417080e+002
         vertex 4.959131e+002 5.699549e+001 3.399738e+002
      endloop
   endfacet
   facet normal 5.609736e-001 -5.896137e-002 8.257313e-001
      outer loop
         vertex 4.959131e+002 5.699549e+001 3.399738e+002
         vertex 4.933319e+002 5.672420e+001 3.417080e+002
         vertex 4.956672e+002 5.465612e+001 3.399738e+002
      endloop
   endfacet
   facet normal -4.811397e-001 2.777861e-001 8.314683e-001
      outer loop
         vertex 2.442446e+002 4.769056e+002 3.399738e+002
         vertex 3.101021e+000 5.923262e+001 3.399738e+002
         vertex 5.348692e+000 5.793493e+001 3.417080e+002
      endloop
   endfacet
   facet normal -5.364575e-001 1.743053e-001 8.257306e-001
      outer loop
         vertex 3.101021e+000 5.923262e+001 3.399738e+002
         vertex 2.374135e+000 5.699549e+001 3.399738e+002
         vertex 4.955305e+000 5.672420e+001 3.417080e+002
      endloop
   endfacet
   facet normal -5.609747e-001 -5.896061e-002 8.257307e-001
      outer loop
         vertex 2.374135e+000 5.699549e+001 3.399738e+002
         vertex 2.620012e+000 5.465612e+001 3.399738e+002
         vertex 5.088372e+000 5.545815e+001 3.417080e+002
      endloop
   endfacet
   facet normal -4.884941e-001 -2.820329e-001 8.257306e-001
      outer loop
         vertex 3.796138e+000 5.261902e+001 3.399738e+002
         vertex 5.724886e+000 5.435567e+001 3.417080e+002
         vertex 2.620012e+000 5.465612e+001 3.399738e+002
      endloop
   endfacet
   facet normal -4.336900e-019 -5.555719e-001 8.314685e-001
      outer loop
         vertex 8.000000e+000 5.074733e+001 3.399738e+002
         vertex 4.902872e+002 5.074733e+001 3.399738e+002
         vertex 4.902872e+002 5.334272e+001 3.417080e+002
      endloop
   endfacet
   facet normal -1.172762e-001 -5.517381e-001 8.257308e-001
      outer loop
         vertex 8.000000e+000 5.074733e+001 3.399738e+002
         vertex 8.000000e+000 5.334272e+001 3.417080e+002
         vertex 5.699150e+000 5.123640e+001 3.399738e+002
      endloop
   endfacet
   facet normal -3.315495e-001 -4.563379e-001 8.257304e-001
      outer loop
         vertex 5.699150e+000 5.123640e+001 3.399738e+002
         vertex 6.754789e+000 5.360740e+001 3.417080e+002
         vertex 3.796138e+000 5.261902e+001 3.399738e+002
      endloop
   endfacet
   facet normal 6.220649e-001 5.601136e-001 5.470905e-001
      outer loop
         vertex 2.555444e+002 4.777726e+002 3.373785e+002
         vertex 2.524686e+002 4.786536e+002 3.399738e+002
         vertex 2.540426e+002 4.769056e+002 3.399738e+002
      endloop
   endfacet
   facet normal 3.404690e-001 7.647007e-001 5.470958e-001
      outer loop
         vertex 2.524686e+002 4.786536e+002 3.399738e+002
         vertex 2.534879e+002 4.800566e+002 3.373785e+002
         vertex 2.503197e+002 4.796104e+002 3.399738e+002
      endloop
   endfacet
   facet normal 0.000000e+000 8.370703e-001 5.470953e-001
      outer loop
         vertex 2.506803e+002 4.813067e+002 3.373785e+002
         vertex 2.479675e+002 4.796104e+002 3.399738e+002
         vertex 2.503197e+002 4.796104e+002 3.399738e+002
      endloop
   endfacet
   facet normal -6.220592e-001 5.601140e-001 5.470966e-001
      outer loop
         vertex 2.447993e+002 4.800566e+002 3.373785e+002
         vertex 2.442446e+002 4.769056e+002 3.399738e+002
         vertex 2.458186e+002 4.786536e+002 3.399738e+002
      endloop
   endfacet
   facet normal -3.404715e-001 7.647007e-001 5.470942e-001
      outer loop
         vertex 2.476069e+002 4.813067e+002 3.373785e+002
         vertex 2.458186e+002 4.786536e+002 3.399738e+002
         vertex 2.479675e+002 4.796104e+002 3.399738e+002
      endloop
   endfacet
   facet normal 1.740362e-001 -8.187797e-001 5.470935e-001
      outer loop
         vertex 4.902872e+002 4.901316e+001 3.373785e+002
         vertex 4.925880e+002 5.123640e+001 3.399738e+002
         vertex 4.902872e+002 5.074733e+001 3.399738e+002
      endloop
   endfacet
   facet normal 4.920237e-001 -6.772015e-001 5.470932e-001
      outer loop
         vertex 4.925880e+002 5.123640e+001 3.399738e+002
         vertex 4.932934e+002 4.965215e+001 3.373785e+002
         vertex 4.944910e+002 5.261902e+001 3.399738e+002
      endloop
   endfacet
   facet normal 7.249159e-001 -4.185390e-001 5.471033e-001
      outer loop
         vertex 4.957798e+002 5.145862e+001 3.373785e+002
         vertex 4.956672e+002 5.465612e+001 3.399738e+002
         vertex 4.944910e+002 5.261902e+001 3.399738e+002
      endloop
   endfacet
   facet normal 7.200739e-001 4.157349e-001 5.555700e-001
      outer loop
         vertex 4.966880e+002 6.009971e+001 3.373785e+002
         vertex 2.540426e+002 4.769056e+002 3.399738e+002
         vertex 4.951862e+002 5.923262e+001 3.399738e+002
      endloop
   endfacet
   facet normal 7.961006e-001 2.586618e-001 5.470995e-001
      outer loop
         vertex 4.976378e+002 5.717677e+001 3.373785e+002
         vertex 4.951862e+002 5.923262e+001 3.399738e+002
         vertex 4.959131e+002 5.699549e+001 3.399738e+002
      endloop
   endfacet
   facet normal 8.324870e-001 -8.749890e-002 5.470917e-001
      outer loop
         vertex 4.973165e+002 5.412024e+001 3.373785e+002
         vertex 4.959131e+002 5.699549e+001 3.399738e+002
         vertex 4.956672e+002 5.465612e+001 3.399738e+002
      endloop
   endfacet
   facet normal -7.200754e-001 4.157357e-001 5.555674e-001
      outer loop
         vertex 2.427428e+002 4.777726e+002 3.373785e+002
         vertex 3.101021e+000 5.923262e+001 3.399738e+002
         vertex 2.442446e+002 4.769056e+002 3.399738e+002
      endloop
   endfacet
   facet normal -7.961017e-001 2.586687e-001 5.470946e-001
      outer loop
         vertex 1.599174e+000 6.009971e+001 3.373785e+002
         vertex 2.374135e+000 5.699549e+001 3.399738e+002
         vertex 3.101021e+000 5.923262e+001 3.399738e+002
      endloop
   endfacet
   facet normal -8.324852e-001 -8.749744e-002 5.470947e-001
      outer loop
         vertex 2.374135e+000 5.699549e+001 3.399738e+002
         vertex 6.494522e-001 5.717677e+001 3.373785e+002
         vertex 2.620012e+000 5.465612e+001 3.399738e+002
      endloop
   endfacet
   facet normal -7.249244e-001 -4.185363e-001 5.470942e-001
      outer loop
         vertex 9.707063e-001 5.412024e+001 3.373785e+002
         vertex 3.796138e+000 5.261902e+001 3.399738e+002
         vertex 2.620012e+000 5.465612e+001 3.399738e+002
      endloop
   endfacet
   facet normal 0.000000e+000 -8.314685e-001 5.555719e-001
      outer loop
         vertex 8.000000e+000 4.901316e+001 3.373785e+002
         vertex 4.902872e+002 5.074733e+001 3.399738e+002
         vertex 8.000000e+000 5.074733e+001 3.399738e+002
      endloop
   endfacet
   facet normal -1.740378e-001 -8.187789e-001 5.470941e-001
      outer loop
         vertex 4.993794e+000 4.965215e+001 3.373785e+002
         vertex 8.000000e+000 5.074733e+001 3.399738e+002
         vertex 5.699150e+000 5.123640e+001 3.399738e+002
      endloop
   endfacet
   facet normal -4.920183e-001 -6.772039e-001 5.470949e-001
      outer loop
         vertex 2.507390e+000 5.145862e+001 3.373785e+002
         vertex 5.699150e+000 5.123640e+001 3.399738e+002
         vertex 3.796138e+000 5.261902e+001 3.399738e+002
      endloop
   endfacet
   facet normal 7.200738e-001 4.157348e-001 5.555704e-001
      outer loop
         vertex 4.966880e+002 6.009971e+001 3.373785e+002
         vertex 2.555444e+002 4.777726e+002 3.373785e+002
         vertex 2.540426e+002 4.769056e+002 3.399738e+002
      endloop
   endfacet
   facet normal 6.220670e-001 5.601063e-001 5.470955e-001
      outer loop
         vertex 2.555444e+002 4.777726e+002 3.373785e+002
         vertex 2.534879e+002 4.800566e+002 3.373785e+002
         vertex 2.524686e+002 4.786536e+002 3.399738e+002
      endloop
   endfacet
   facet normal 3.404679e-001 7.647021e-001 5.470946e-001
      outer loop
         vertex 2.506803e+002 4.813067e+002 3.373785e+002
         vertex 2.503197e+002 4.796104e+002 3.399738e+002
         vertex 2.534879e+002 4.800566e+002 3.373785e+002
      endloop
   endfacet
   facet normal 0.000000e+000 8.370703e-001 5.470953e-001
      outer loop
         vertex 2.476069e+002 4.813067e+002 3.373785e+002
         vertex 2.479675e+002 4.796104e+002 3.399738e+002
         vertex 2.506803e+002 4.813067e+002 3.373785e+002
      endloop
   endfacet
   facet normal -6.220704e-001 5.601094e-001 5.470886e-001
      outer loop
         vertex 2.427428e+002 4.777726e+002 3.373785e+002
         vertex 2.442446e+002 4.769056e+002 3.399738e+002
         vertex 2.447993e+002 4.800566e+002 3.373785e+002
      endloop
   endfacet
   facet normal -3.404691e-001 7.647006e-001 5.470958e-001
      outer loop
         vertex 2.447993e+002 4.800566e+002 3.373785e+002
         vertex 2.458186e+002 4.786536e+002 3.399738e+002
         vertex 2.476069e+002 4.813067e+002 3.373785e+002
      endloop
   endfacet
   facet normal 4.336900e-019 -8.314685e-001 5.555719e-001
      outer loop
         vertex 8.000000e+000 4.901316e+001 3.373785e+002
         vertex 4.902872e+002 4.901316e+001 3.373785e+002
         vertex 4.902872e+002 5.074733e+001 3.399738e+002
      endloop
   endfacet
   facet normal 1.740357e-001 -8.187796e-001 5.470937e-001
      outer loop
         vertex 4.902872e+002 4.901316e+001 3.373785e+002
         vertex 4.932934e+002 4.965215e+001 3.373785e+002
         vertex 4.925880e+002 5.123640e+001 3.399738e+002
      endloop
   endfacet
   facet normal 4.920135e-001 -6.772034e-001 5.470999e-001
      outer loop
         vertex 4.957798e+002 5.145862e+001 3.373785e+002
         vertex 4.944910e+002 5.261902e+001 3.399738e+002
         vertex 4.932934e+002 4.965215e+001 3.373785e+002
      endloop
   endfacet
   facet normal 7.249296e-001 -4.185297e-001 5.470924e-001
      outer loop
         vertex 4.973165e+002 5.412024e+001 3.373785e+002
         vertex 4.956672e+002 5.465612e+001 3.399738e+002
         vertex 4.957798e+002 5.145862e+001 3.373785e+002
      endloop
   endfacet
   facet normal 7.961022e-001 2.586736e-001 5.470917e-001
      outer loop
         vertex 4.966880e+002 6.009971e+001 3.373785e+002
         vertex 4.951862e+002 5.923262e+001 3.399738e+002
         vertex 4.976378e+002 5.717677e+001 3.373785e+002
      endloop
   endfacet
   facet normal 8.324821e-001 -8.750688e-002 5.470979e-001
      outer loop
         vertex 4.976378e+002 5.717677e+001 3.373785e+002
         vertex 4.959131e+002 5.699549e+001 3.399738e+002
         vertex 4.973165e+002 5.412024e+001 3.373785e+002
      endloop
   endfacet
   facet normal -7.200722e-001 4.157339e-001 5.555731e-001
      outer loop
         vertex 2.427428e+002 4.777726e+002 3.373785e+002
         vertex 1.599174e+000 6.009971e+001 3.373785e+002
         vertex 3.101021e+000 5.923262e+001 3.399738e+002
      endloop
   endfacet
   facet normal -7.961014e-001 2.586690e-001 5.470949e-001
      outer loop
         vertex 1.599174e+000 6.009971e+001 3.373785e+002
         vertex 6.494522e-001 5.717677e+001 3.373785e+002
         vertex 2.374135e+000 5.699549e+001 3.399738e+002
      endloop
   endfacet
   facet normal -8.324853e-001 -8.749769e-002 5.470945e-001
      outer loop
         vertex 9.707063e-001 5.412024e+001 3.373785e+002
         vertex 2.620012e+000 5.465612e+001 3.399738e+002
         vertex 6.494522e-001 5.717677e+001 3.373785e+002
      endloop
   endfacet
   facet normal -7.249244e-001 -4.185356e-001 5.470946e-001
      outer loop
         vertex 2.507390e+000 5.145862e+001 3.373785e+002
         vertex 3.796138e+000 5.261902e+001 3.399738e+002
         vertex 9.707063e-001 5.412024e+001 3.373785e+002
      endloop
   endfacet
   facet normal -1.740369e-001 -8.187795e-001 5.470934e-001
      outer loop
         vertex 8.000000e+000 4.901316e+001 3.373785e+002
         vertex 8.000000e+000 5.074733e+001 3.399738e+002
         vertex 4.993794e+000 4.965215e+001 3.373785e+002
      endloop
   endfacet
   facet normal -4.920177e-001 -6.772049e-001 5.470942e-001
      outer loop
         vertex 4.993794e+000 4.965215e+001 3.373785e+002
         vertex 5.699150e+000 5.123640e+001 3.399738e+002
         vertex 2.507390e+000 5.145862e+001 3.373785e+002
      endloop
   endfacet
   facet normal 8.493854e-001 4.903929e-001 1.950883e-001
      outer loop
         vertex 4.972154e+002 6.040419e+001 3.343170e+002
         vertex 2.555444e+002 4.777726e+002 3.373785e+002
         vertex 4.966880e+002 6.009971e+001 3.373785e+002
      endloop
   endfacet
   facet normal 7.294681e-001 6.568098e-001 1.909903e-001
      outer loop
         vertex 2.555444e+002 4.777726e+002 3.373785e+002
         vertex 2.560718e+002 4.780771e+002 3.343170e+002
         vertex 2.534879e+002 4.800566e+002 3.373785e+002
      endloop
   endfacet
   facet normal 3.992504e-001 8.967296e-001 1.909849e-001
      outer loop
         vertex 2.534879e+002 4.800566e+002 3.373785e+002
         vertex 2.538459e+002 4.805493e+002 3.343170e+002
         vertex 2.506803e+002 4.813067e+002 3.373785e+002
      endloop
   endfacet
   facet normal 0.000000e+000 9.815924e-001 1.909878e-001
      outer loop
         vertex 2.506803e+002 4.813067e+002 3.373785e+002
         vertex 2.508069e+002 4.819023e+002 3.343170e+002
         vertex 2.476069e+002 4.813067e+002 3.373785e+002
      endloop
   endfacet
   facet normal -7.294688e-001 6.568103e-001 1.909856e-001
      outer loop
         vertex 2.447993e+002 4.800566e+002 3.373785e+002
         vertex 2.444413e+002 4.805493e+002 3.343170e+002
         vertex 2.427428e+002 4.777726e+002 3.373785e+002
      endloop
   endfacet
   facet normal -3.992520e-001 8.967282e-001 1.909881e-001
      outer loop
         vertex 2.476069e+002 4.813067e+002 3.373785e+002
         vertex 2.474803e+002 4.819023e+002 3.343170e+002
         vertex 2.447993e+002 4.800566e+002 3.373785e+002
      endloop
   endfacet
   facet normal 0.000000e+000 -9.807854e-001 1.950897e-001
      outer loop
         vertex 8.000000e+000 4.840419e+001 3.343170e+002
         vertex 4.902872e+002 4.901316e+001 3.373785e+002
         vertex 8.000000e+000 4.901316e+001 3.373785e+002
      endloop
   endfacet
   facet normal 9.335526e-001 3.033240e-001 1.909818e-001
      outer loop
         vertex 4.966880e+002 6.009971e+001 3.373785e+002
         vertex 4.982433e+002 5.724042e+001 3.343170e+002
         vertex 4.972154e+002 6.040419e+001 3.343170e+002
      endloop
   endfacet
   facet normal 2.040833e-001 -9.601433e-001 1.909838e-001
      outer loop
         vertex 4.902872e+002 4.901316e+001 3.373785e+002
         vertex 4.902872e+002 4.840419e+001 3.343170e+002
         vertex 4.932934e+002 4.965215e+001 3.373785e+002
      endloop
   endfacet
   facet normal 5.769635e-001 -7.941279e-001 1.909817e-001
      outer loop
         vertex 4.932934e+002 4.965215e+001 3.373785e+002
         vertex 4.935411e+002 4.909583e+001 3.343170e+002
         vertex 4.957798e+002 5.145862e+001 3.373785e+002
      endloop
   endfacet
   facet normal 8.500894e-001 -4.907893e-001 1.909813e-001
      outer loop
         vertex 4.957798e+002 5.145862e+001 3.373785e+002
         vertex 4.962324e+002 5.105115e+001 3.343170e+002
         vertex 4.973165e+002 5.412024e+001 3.373785e+002
      endloop
   endfacet
   facet normal 9.335514e-001 3.033343e-001 1.909716e-001
      outer loop
         vertex 4.976378e+002 5.717677e+001 3.373785e+002
         vertex 4.982433e+002 5.724042e+001 3.343170e+002
         vertex 4.966880e+002 6.009971e+001 3.373785e+002
      endloop
   endfacet
   facet normal 9.762129e-001 -1.026152e-001 1.909937e-001
      outer loop
         vertex 4.973165e+002 5.412024e+001 3.373785e+002
         vertex 4.978957e+002 5.393206e+001 3.343170e+002
         vertex 4.976378e+002 5.717677e+001 3.373785e+002
      endloop
   endfacet
   facet normal -7.294652e-001 6.568131e-001 1.909900e-001
      outer loop
         vertex 2.427428e+002 4.777726e+002 3.373785e+002
         vertex 2.444413e+002 4.805493e+002 3.343170e+002
         vertex 2.422154e+002 4.780771e+002 3.343170e+002
      endloop
   endfacet
   facet normal -8.493841e-001 4.903922e-001 1.950953e-001
      outer loop
         vertex 2.422154e+002 4.780771e+002 3.343170e+002
         vertex 1.599174e+000 6.009971e+001 3.373785e+002
         vertex 2.427428e+002 4.777726e+002 3.373785e+002
      endloop
   endfacet
   facet normal -2.040855e-001 -9.601429e-001 1.909837e-001
      outer loop
         vertex 8.000000e+000 4.901316e+001 3.373785e+002
         vertex 4.746108e+000 4.909583e+001 3.343170e+002
         vertex 8.000000e+000 4.840419e+001 3.343170e+002
      endloop
   endfacet
   facet normal -9.335507e-001 3.033291e-001 1.909831e-001
      outer loop
         vertex 1.599174e+000 6.009971e+001 3.373785e+002
         vertex 1.071796e+000 6.040419e+001 3.343170e+002
         vertex 6.494522e-001 5.717677e+001 3.373785e+002
      endloop
   endfacet
   facet normal -9.762161e-001 -1.026044e-001 1.909829e-001
      outer loop
         vertex 6.494522e-001 5.717677e+001 3.373785e+002
         vertex 4.382432e-002 5.724042e+001 3.343170e+002
         vertex 9.707063e-001 5.412024e+001 3.373785e+002
      endloop
   endfacet
   facet normal -8.500847e-001 -4.907970e-001 1.909828e-001
      outer loop
         vertex 9.707063e-001 5.412024e+001 3.373785e+002
         vertex 3.915466e-001 5.393206e+001 3.343170e+002
         vertex 2.507390e+000 5.145862e+001 3.373785e+002
      endloop
   endfacet
   facet normal -2.040847e-001 -9.601433e-001 1.909828e-001
      outer loop
         vertex 4.993794e+000 4.965215e+001 3.373785e+002
         vertex 4.746108e+000 4.909583e+001 3.343170e+002
         vertex 8.000000e+000 4.901316e+001 3.373785e+002
      endloop
   endfacet
   facet normal -5.769659e-001 -7.941260e-001 1.909827e-001
      outer loop
         vertex 2.507390e+000 5.145862e+001 3.373785e+002
         vertex 2.054840e+000 5.105115e+001 3.343170e+002
         vertex 4.993794e+000 4.965215e+001 3.373785e+002
      endloop
   endfacet
   facet normal 8.493841e-001 4.903921e-001 1.950953e-001
      outer loop
         vertex 4.972154e+002 6.040419e+001 3.343170e+002
         vertex 2.560718e+002 4.780771e+002 3.343170e+002
         vertex 2.555444e+002 4.777726e+002 3.373785e+002
      endloop
   endfacet
   facet normal 7.294641e-001 6.568166e-001 1.909824e-001
      outer loop
         vertex 2.534879e+002 4.800566e+002 3.373785e+002
         vertex 2.560718e+002 4.780771e+002 3.343170e+002
         vertex 2.538459e+002 4.805493e+002 3.343170e+002
      endloop
   endfacet
   facet normal 3.992546e-001 8.967266e-001 1.909899e-001
      outer loop
         vertex 2.506803e+002 4.813067e+002 3.373785e+002
         vertex 2.538459e+002 4.805493e+002 3.343170e+002
         vertex 2.508069e+002 4.819023e+002 3.343170e+002
      endloop
   endfacet
   facet normal 0.000000e+000 9.815924e-001 1.909878e-001
      outer loop
         vertex 2.476069e+002 4.813067e+002 3.373785e+002
         vertex 2.508069e+002 4.819023e+002 3.343170e+002
         vertex 2.474803e+002 4.819023e+002 3.343170e+002
      endloop
   endfacet
   facet normal -3.992532e-001 8.967279e-001 1.909869e-001
      outer loop
         vertex 2.447993e+002 4.800566e+002 3.373785e+002
         vertex 2.474803e+002 4.819023e+002 3.343170e+002
         vertex 2.444413e+002 4.805493e+002 3.343170e+002
      endloop
   endfacet
   facet normal -2.168450e-019 -9.807854e-001 1.950897e-001
      outer loop
         vertex 8.000000e+000 4.840419e+001 3.343170e+002
         vertex 4.902872e+002 4.840419e+001 3.343170e+002
         vertex 4.902872e+002 4.901316e+001 3.373785e+002
      endloop
   endfacet
   facet normal 9.335541e-001 3.033245e-001 -1.909738e-001
      outer loop
         vertex 4.982433e+002 5.724042e+001 3.343170e+002
         vertex 4.976378e+002 5.717677e+001 3.312555e+002
         vertex 4.972154e+002 6.040419e+001 3.343170e+002
      endloop
   endfacet
   facet normal 2.040847e-001 -9.601433e-001 1.909824e-001
      outer loop
         vertex 4.932934e+002 4.965215e+001 3.373785e+002
         vertex 4.902872e+002 4.840419e+001 3.343170e+002
         vertex 4.935411e+002 4.909583e+001 3.343170e+002
      endloop
   endfacet
   facet normal 5.769635e-001 -7.941279e-001 1.909816e-001
      outer loop
         vertex 4.957798e+002 5.145862e+001 3.373785e+002
         vertex 4.935411e+002 4.909583e+001 3.343170e+002
         vertex 4.962324e+002 5.105115e+001 3.343170e+002
      endloop
   endfacet
   facet normal 8.500826e-001 -4.907972e-001 1.909917e-001
      outer loop
         vertex 4.973165e+002 5.412024e+001 3.373785e+002
         vertex 4.962324e+002 5.105115e+001 3.343170e+002
         vertex 4.978957e+002 5.393206e+001 3.343170e+002
      endloop
   endfacet
   facet normal 9.762194e-001 -1.025942e-001 1.909719e-001
      outer loop
         vertex 4.976378e+002 5.717677e+001 3.373785e+002
         vertex 4.978957e+002 5.393206e+001 3.343170e+002
         vertex 4.982433e+002 5.724042e+001 3.343170e+002
      endloop
   endfacet
   facet normal -7.294655e-001 6.568134e-001 -1.909876e-001
      outer loop
         vertex 2.444413e+002 4.805493e+002 3.343170e+002
         vertex 2.447993e+002 4.800566e+002 3.312555e+002
         vertex 2.422154e+002 4.780771e+002 3.343170e+002
      endloop
   endfacet
   facet normal -8.493851e-001 4.903928e-001 1.950893e-001
      outer loop
         vertex 2.422154e+002 4.780771e+002 3.343170e+002
         vertex 1.071796e+000 6.040419e+001 3.343170e+002
         vertex 1.599174e+000 6.009971e+001 3.373785e+002
      endloop
   endfacet
   facet normal -2.040855e-001 -9.601427e-001 -1.909847e-001
      outer loop
         vertex 4.746108e+000 4.909583e+001 3.343170e+002
         vertex 4.993794e+000 4.965215e+001 3.312555e+002
         vertex 8.000000e+000 4.840419e+001 3.343170e+002
      endloop
   endfacet
   facet normal -9.335510e-001 3.033286e-001 1.909826e-001
      outer loop
         vertex 6.494522e-001 5.717677e+001 3.373785e+002
         vertex 1.071796e+000 6.040419e+001 3.343170e+002
         vertex 4.382432e-002 5.724042e+001 3.343170e+002
      endloop
   endfacet
   facet normal -9.762161e-001 -1.026043e-001 1.909830e-001
      outer loop
         vertex 9.707063e-001 5.412024e+001 3.373785e+002
         vertex 4.382432e-002 5.724042e+001 3.343170e+002
         vertex 3.915466e-001 5.393206e+001 3.343170e+002
      endloop
   endfacet
   facet normal -8.500848e-001 -4.907967e-001 1.909830e-001
      outer loop
         vertex 2.507390e+000 5.145862e+001 3.373785e+002
         vertex 3.915466e-001 5.393206e+001 3.343170e+002
         vertex 2.054840e+000 5.105115e+001 3.343170e+002
      endloop
   endfacet
   facet normal -5.769658e-001 -7.941260e-001 1.909827e-001
      outer loop
         vertex 4.993794e+000 4.965215e+001 3.373785e+002
         vertex 2.054840e+000 5.105115e+001 3.343170e+002
         vertex 4.746108e+000 4.909583e+001 3.343170e+002
      endloop
   endfacet
   facet normal 9.335491e-001 3.033335e-001 -1.909840e-001
      outer loop
         vertex 4.972154e+002 6.040419e+001 3.343170e+002
         vertex 4.976378e+002 5.717677e+001 3.312555e+002
         vertex 4.966880e+002 6.009971e+001 3.312555e+002
      endloop
   endfacet
   facet normal 8.493850e-001 4.903927e-001 -1.950901e-001
      outer loop
         vertex 4.966880e+002 6.009971e+001 3.312555e+002
         vertex 2.560718e+002 4.780771e+002 3.343170e+002
         vertex 4.972154e+002 6.040419e+001 3.343170e+002
      endloop
   endfacet
   facet normal -3.992519e-001 8.967281e-001 -1.909887e-001
      outer loop
         vertex 2.444413e+002 4.805493e+002 3.343170e+002
         vertex 2.476069e+002 4.813067e+002 3.312555e+002
         vertex 2.447993e+002 4.800566e+002 3.312555e+002
      endloop
   endfacet
   facet normal 7.294627e-001 6.568154e-001 -1.909918e-001
      outer loop
         vertex 2.555444e+002 4.777726e+002 3.312555e+002
         vertex 2.538459e+002 4.805493e+002 3.343170e+002
         vertex 2.560718e+002 4.780771e+002 3.343170e+002
      endloop
   endfacet
   facet normal 3.992548e-001 8.967271e-001 -1.909869e-001
      outer loop
         vertex 2.534879e+002 4.800566e+002 3.312555e+002
         vertex 2.508069e+002 4.819023e+002 3.343170e+002
         vertex 2.538459e+002 4.805493e+002 3.343170e+002
      endloop
   endfacet
   facet normal 0.000000e+000 9.815921e-001 -1.909896e-001
      outer loop
         vertex 2.506803e+002 4.813067e+002 3.312555e+002
         vertex 2.474803e+002 4.819023e+002 3.343170e+002
         vertex 2.508069e+002 4.819023e+002 3.343170e+002
      endloop
   endfacet
   facet normal -3.992529e-001 8.967274e-001 -1.909899e-001
      outer loop
         vertex 2.474803e+002 4.819023e+002 3.343170e+002
         vertex 2.476069e+002 4.813067e+002 3.312555e+002
         vertex 2.444413e+002 4.805493e+002 3.343170e+002
      endloop
   endfacet
   facet normal -2.040846e-001 -9.601427e-001 -1.909856e-001
      outer loop
         vertex 8.000000e+000 4.840419e+001 3.343170e+002
         vertex 4.993794e+000 4.965215e+001 3.312555e+002
         vertex 8.000000e+000 4.901316e+001 3.312555e+002
      endloop
   endfacet
   facet normal 0.000000e+000 -9.807851e-001 -1.950916e-001
      outer loop
         vertex 8.000000e+000 4.901316e+001 3.312555e+002
         vertex 4.902872e+002 4.840419e+001 3.343170e+002
         vertex 8.000000e+000 4.840419e+001 3.343170e+002
      endloop
   endfacet
   facet normal 9.762169e-001 -1.026156e-001 -1.909729e-001
      outer loop
         vertex 4.982433e+002 5.724042e+001 3.343170e+002
         vertex 4.973165e+002 5.412024e+001 3.312555e+002
         vertex 4.976378e+002 5.717677e+001 3.312555e+002
      endloop
   endfacet
   facet normal 2.040846e-001 -9.601427e-001 -1.909856e-001
      outer loop
         vertex 4.902872e+002 4.901316e+001 3.312555e+002
         vertex 4.935411e+002 4.909583e+001 3.343170e+002
         vertex 4.902872e+002 4.840419e+001 3.343170e+002
      endloop
   endfacet
   facet normal 5.769634e-001 -7.941276e-001 -1.909835e-001
      outer loop
         vertex 4.932934e+002 4.965215e+001 3.312555e+002
         vertex 4.962324e+002 5.105115e+001 3.343170e+002
         vertex 4.935411e+002 4.909583e+001 3.343170e+002
      endloop
   endfacet
   facet normal 8.500839e-001 -4.907979e-001 -1.909836e-001
      outer loop
         vertex 4.957798e+002 5.145862e+001 3.312555e+002
         vertex 4.978957e+002 5.393206e+001 3.343170e+002
         vertex 4.962324e+002 5.105115e+001 3.343170e+002
      endloop
   endfacet
   facet normal 9.762149e-001 -1.025937e-001 -1.909947e-001
      outer loop
         vertex 4.978957e+002 5.393206e+001 3.343170e+002
         vertex 4.973165e+002 5.412024e+001 3.312555e+002
         vertex 4.982433e+002 5.724042e+001 3.343170e+002
      endloop
   endfacet
   facet normal -7.294679e-001 6.568096e-001 -1.909921e-001
      outer loop
         vertex 2.422154e+002 4.780771e+002 3.343170e+002
         vertex 2.447993e+002 4.800566e+002 3.312555e+002
         vertex 2.427428e+002 4.777726e+002 3.312555e+002
      endloop
   endfacet
   facet normal -8.493838e-001 4.903920e-001 -1.950972e-001
      outer loop
         vertex 2.427428e+002 4.777726e+002 3.312555e+002
         vertex 1.071796e+000 6.040419e+001 3.343170e+002
         vertex 2.422154e+002 4.780771e+002 3.343170e+002
      endloop
   endfacet
   facet normal -5.769656e-001 -7.941257e-001 -1.909845e-001
      outer loop
         vertex 4.746108e+000 4.909583e+001 3.343170e+002
         vertex 2.507390e+000 5.145862e+001 3.312555e+002
         vertex 4.993794e+000 4.965215e+001 3.312555e+002
      endloop
   endfacet
   facet normal -9.335506e-001 3.033285e-001 -1.909850e-001
      outer loop
         vertex 1.599174e+000 6.009971e+001 3.312555e+002
         vertex 4.382432e-002 5.724042e+001 3.343170e+002
         vertex 1.071796e+000 6.040419e+001 3.343170e+002
      endloop
   endfacet
   facet normal -9.762158e-001 -1.026043e-001 -1.909847e-001
      outer loop
         vertex 6.494522e-001 5.717677e+001 3.312555e+002
         vertex 3.915466e-001 5.393206e+001 3.343170e+002
         vertex 4.382432e-002 5.724042e+001 3.343170e+002
      endloop
   endfacet
   facet normal -8.500845e-001 -4.907966e-001 -1.909847e-001
      outer loop
         vertex 9.707063e-001 5.412024e+001 3.312555e+002
         vertex 2.054840e+000 5.105115e+001 3.343170e+002
         vertex 3.915466e-001 5.393206e+001 3.343170e+002
      endloop
   endfacet
   facet normal -5.769656e-001 -7.941257e-001 -1.909845e-001
      outer loop
         vertex 2.054840e+000 5.105115e+001 3.343170e+002
         vertex 2.507390e+000 5.145862e+001 3.312555e+002
         vertex 4.746108e+000 4.909583e+001 3.343170e+002
      endloop
   endfacet
   facet normal 7.961008e-001 2.586731e-001 -5.470940e-001
      outer loop
         vertex 4.966880e+002 6.009971e+001 3.312555e+002
         vertex 4.976378e+002 5.717677e+001 3.312555e+002
         vertex 4.959131e+002 5.699549e+001 3.286601e+002
      endloop
   endfacet
   facet normal 8.493838e-001 4.903920e-001 -1.950972e-001
      outer loop
         vertex 4.966880e+002 6.009971e+001 3.312555e+002
         vertex 2.555444e+002 4.777726e+002 3.312555e+002
         vertex 2.560718e+002 4.780771e+002 3.343170e+002
      endloop
   endfacet
   facet normal -3.404707e-001 7.647041e-001 -5.470899e-001
      outer loop
         vertex 2.447993e+002 4.800566e+002 3.312555e+002
         vertex 2.476069e+002 4.813067e+002 3.312555e+002
         vertex 2.479675e+002 4.796104e+002 3.286601e+002
      endloop
   endfacet
   facet normal 7.294690e-001 6.568106e-001 -1.909839e-001
      outer loop
         vertex 2.555444e+002 4.777726e+002 3.312555e+002
         vertex 2.534879e+002 4.800566e+002 3.312555e+002
         vertex 2.538459e+002 4.805493e+002 3.343170e+002
      endloop
   endfacet
   facet normal 3.992499e-001 8.967283e-001 -1.909919e-001
      outer loop
         vertex 2.534879e+002 4.800566e+002 3.312555e+002
         vertex 2.506803e+002 4.813067e+002 3.312555e+002
         vertex 2.508069e+002 4.819023e+002 3.343170e+002
      endloop
   endfacet
   facet normal 0.000000e+000 9.815921e-001 -1.909896e-001
      outer loop
         vertex 2.506803e+002 4.813067e+002 3.312555e+002
         vertex 2.476069e+002 4.813067e+002 3.312555e+002
         vertex 2.474803e+002 4.819023e+002 3.343170e+002
      endloop
   endfacet
   facet normal -1.740375e-001 -8.187821e-001 -5.470895e-001
      outer loop
         vertex 8.000000e+000 4.901316e+001 3.312555e+002
         vertex 4.993794e+000 4.965215e+001 3.312555e+002
         vertex 5.699150e+000 5.123640e+001 3.286601e+002
      endloop
   endfacet
   facet normal -2.168450e-019 -9.807851e-001 -1.950916e-001
      outer loop
         vertex 8.000000e+000 4.901316e+001 3.312555e+002
         vertex 4.902872e+002 4.901316e+001 3.312555e+002
         vertex 4.902872e+002 4.840419e+001 3.343170e+002
      endloop
   endfacet
   facet normal 8.324854e-001 -8.749872e-002 -5.470942e-001
      outer loop
         vertex 4.959131e+002 5.699549e+001 3.286601e+002
         vertex 4.976378e+002 5.717677e+001 3.312555e+002
         vertex 4.956672e+002 5.465612e+001 3.286601e+002
      endloop
   endfacet
   facet normal 8.324885e-001 -8.750755e-002 -5.470880e-001
      outer loop
         vertex 4.976378e+002 5.717677e+001 3.312555e+002
         vertex 4.973165e+002 5.412024e+001 3.312555e+002
         vertex 4.956672e+002 5.465612e+001 3.286601e+002
      endloop
   endfacet
   facet normal 2.040833e-001 -9.601433e-001 -1.909842e-001
      outer loop
         vertex 4.902872e+002 4.901316e+001 3.312555e+002
         vertex 4.932934e+002 4.965215e+001 3.312555e+002
         vertex 4.935411e+002 4.909583e+001 3.343170e+002
      endloop
   endfacet
   facet normal 5.769633e-001 -7.941276e-001 -1.909835e-001
      outer loop
         vertex 4.932934e+002 4.965215e+001 3.312555e+002
         vertex 4.957798e+002 5.145862e+001 3.312555e+002
         vertex 4.962324e+002 5.105115e+001 3.343170e+002
      endloop
   endfacet
   facet normal 8.500873e-001 -4.907881e-001 -1.909939e-001
      outer loop
         vertex 4.957798e+002 5.145862e+001 3.312555e+002
         vertex 4.973165e+002 5.412024e+001 3.312555e+002
         vertex 4.978957e+002 5.393206e+001 3.343170e+002
      endloop
   endfacet
   facet normal -3.404722e-001 7.647023e-001 -5.470915e-001
      outer loop
         vertex 2.458186e+002 4.786536e+002 3.286601e+002
         vertex 2.447993e+002 4.800566e+002 3.312555e+002
         vertex 2.479675e+002 4.796104e+002 3.286601e+002
      endloop
   endfacet
   facet normal -6.220692e-001 5.601084e-001 -5.470911e-001
      outer loop
         vertex 2.427428e+002 4.777726e+002 3.312555e+002
         vertex 2.447993e+002 4.800566e+002 3.312555e+002
         vertex 2.458186e+002 4.786536e+002 3.286601e+002
      endloop
   endfacet
   facet normal -8.493848e-001 4.903926e-001 -1.950912e-001
      outer loop
         vertex 2.427428e+002 4.777726e+002 3.312555e+002
         vertex 1.599174e+000 6.009971e+001 3.312555e+002
         vertex 1.071796e+000 6.040419e+001 3.343170e+002
      endloop
   endfacet
   facet normal -4.920204e-001 -6.772068e-001 -5.470896e-001
      outer loop
         vertex 5.699150e+000 5.123640e+001 3.286601e+002
         vertex 4.993794e+000 4.965215e+001 3.312555e+002
         vertex 3.796138e+000 5.261902e+001 3.286601e+002
      endloop
   endfacet
   facet normal -4.920192e-001 -6.772070e-001 -5.470903e-001
      outer loop
         vertex 4.993794e+000 4.965215e+001 3.312555e+002
         vertex 2.507390e+000 5.145862e+001 3.312555e+002
         vertex 3.796138e+000 5.261902e+001 3.286601e+002
      endloop
   endfacet
   facet normal -9.335505e-001 3.033289e-001 -1.909844e-001
      outer loop
         vertex 1.599174e+000 6.009971e+001 3.312555e+002
         vertex 6.494522e-001 5.717677e+001 3.312555e+002
         vertex 4.382432e-002 5.724042e+001 3.343170e+002
      endloop
   endfacet
   facet normal -9.762157e-001 -1.026044e-001 -1.909848e-001
      outer loop
         vertex 6.494522e-001 5.717677e+001 3.312555e+002
         vertex 9.707063e-001 5.412024e+001 3.312555e+002
         vertex 3.915466e-001 5.393206e+001 3.343170e+002
      endloop
   endfacet
   facet normal -8.500844e-001 -4.907967e-001 -1.909849e-001
      outer loop
         vertex 9.707063e-001 5.412024e+001 3.312555e+002
         vertex 2.507390e+000 5.145862e+001 3.312555e+002
         vertex 2.054840e+000 5.105115e+001 3.343170e+002
      endloop
   endfacet
   facet normal 7.961090e-001 2.586645e-001 -5.470861e-001
      outer loop
         vertex 4.959131e+002 5.699549e+001 3.286601e+002
         vertex 4.951862e+002 5.923262e+001 3.286601e+002
         vertex 4.966880e+002 6.009971e+001 3.312555e+002
      endloop
   endfacet
   facet normal 7.200766e-001 4.157364e-001 -5.555655e-001
      outer loop
         vertex 4.951862e+002 5.923262e+001 3.286601e+002
         vertex 2.555444e+002 4.777726e+002 3.312555e+002
         vertex 4.966880e+002 6.009971e+001 3.312555e+002
      endloop
   endfacet
   facet normal 0.000000e+000 8.370733e-001 -5.470908e-001
      outer loop
         vertex 2.503197e+002 4.796104e+002 3.286601e+002
         vertex 2.479675e+002 4.796104e+002 3.286601e+002
         vertex 2.476069e+002 4.813067e+002 3.312555e+002
      endloop
   endfacet
   facet normal 6.220713e-001 5.601102e-001 -5.470867e-001
      outer loop
         vertex 2.540426e+002 4.769056e+002 3.286601e+002
         vertex 2.534879e+002 4.800566e+002 3.312555e+002
         vertex 2.555444e+002 4.777726e+002 3.312555e+002
      endloop
   endfacet
   facet normal 3.404688e-001 7.647041e-001 -5.470911e-001
      outer loop
         vertex 2.524686e+002 4.786536e+002 3.286601e+002
         vertex 2.506803e+002 4.813067e+002 3.312555e+002
         vertex 2.534879e+002 4.800566e+002 3.312555e+002
      endloop
   endfacet
   facet normal 0.000000e+000 8.370733e-001 -5.470908e-001
      outer loop
         vertex 2.503197e+002 4.796104e+002 3.286601e+002
         vertex 2.476069e+002 4.813067e+002 3.312555e+002
         vertex 2.506803e+002 4.813067e+002 3.312555e+002
      endloop
   endfacet
   facet normal -1.740385e-001 -8.187823e-001 -5.470888e-001
      outer loop
         vertex 5.699150e+000 5.123640e+001 3.286601e+002
         vertex 8.000000e+000 5.074733e+001 3.286601e+002
         vertex 8.000000e+000 4.901316e+001 3.312555e+002
      endloop
   endfacet
   facet normal 0.000000e+000 -8.314715e-001 -5.555674e-001
      outer loop
         vertex 8.000000e+000 5.074733e+001 3.286601e+002
         vertex 4.902872e+002 4.901316e+001 3.312555e+002
         vertex 8.000000e+000 4.901316e+001 3.312555e+002
      endloop
   endfacet
   facet normal 5.609688e-001 -5.896085e-002 -8.257346e-001
      outer loop
         vertex 4.959131e+002 5.699549e+001 3.286601e+002
         vertex 4.956672e+002 5.465612e+001 3.286601e+002
         vertex 4.931988e+002 5.545815e+001 3.269260e+002
      endloop
   endfacet
   facet normal 7.249255e-001 -4.185445e-001 -5.470865e-001
      outer loop
         vertex 4.944910e+002 5.261902e+001 3.286601e+002
         vertex 4.956672e+002 5.465612e+001 3.286601e+002
         vertex 4.973165e+002 5.412024e+001 3.312555e+002
      endloop
   endfacet
   facet normal 1.740364e-001 -8.187826e-001 -5.470890e-001
      outer loop
         vertex 4.902872e+002 5.074733e+001 3.286601e+002
         vertex 4.932934e+002 4.965215e+001 3.312555e+002
         vertex 4.902872e+002 4.901316e+001 3.312555e+002
      endloop
   endfacet
   facet normal 4.920175e-001 -6.772089e-001 -5.470896e-001
      outer loop
         vertex 4.925880e+002 5.123640e+001 3.286601e+002
         vertex 4.957798e+002 5.145862e+001 3.312555e+002
         vertex 4.932934e+002 4.965215e+001 3.312555e+002
      endloop
   endfacet
   facet normal 7.249268e-001 -4.185281e-001 -5.470973e-001
      outer loop
         vertex 4.944910e+002 5.261902e+001 3.286601e+002
         vertex 4.973165e+002 5.412024e+001 3.312555e+002
         vertex 4.957798e+002 5.145862e+001 3.312555e+002
      endloop
   endfacet
   facet normal -2.294263e-001 5.152926e-001 -8.257344e-001
      outer loop
         vertex 2.458186e+002 4.786536e+002 3.286601e+002
         vertex 2.479675e+002 4.796104e+002 3.286601e+002
         vertex 2.485071e+002 4.770717e+002 3.269260e+002
      endloop
   endfacet
   facet normal -6.220658e-001 5.601199e-001 -5.470831e-001
      outer loop
         vertex 2.458186e+002 4.786536e+002 3.286601e+002
         vertex 2.442446e+002 4.769056e+002 3.286601e+002
         vertex 2.427428e+002 4.777726e+002 3.312555e+002
      endloop
   endfacet
   facet normal -7.200780e-001 4.157373e-001 -5.555630e-001
      outer loop
         vertex 2.442446e+002 4.769056e+002 3.286601e+002
         vertex 1.599174e+000 6.009971e+001 3.312555e+002
         vertex 2.427428e+002 4.777726e+002 3.312555e+002
      endloop
   endfacet
   facet normal -3.315454e-001 -4.563322e-001 -8.257352e-001
      outer loop
         vertex 5.699150e+000 5.123640e+001 3.286601e+002
         vertex 3.796138e+000 5.261902e+001 3.286601e+002
         vertex 5.724886e+000 5.435567e+001 3.269260e+002
      endloop
   endfacet
   facet normal -7.249267e-001 -4.185376e-001 -5.470902e-001
      outer loop
         vertex 2.620012e+000 5.465612e+001 3.286601e+002
         vertex 3.796138e+000 5.261902e+001 3.286601e+002
         vertex 2.507390e+000 5.145862e+001 3.312555e+002
      endloop
   endfacet
   facet normal -7.961044e-001 2.586700e-001 -5.470902e-001
      outer loop
         vertex 3.101021e+000 5.923262e+001 3.286601e+002
         vertex 6.494522e-001 5.717677e+001 3.312555e+002
         vertex 1.599174e+000 6.009971e+001 3.312555e+002
      endloop
   endfacet
   facet normal -8.324881e-001 -8.749799e-002 -5.470902e-001
      outer loop
         vertex 2.374135e+000 5.699549e+001 3.286601e+002
         vertex 9.707063e-001 5.412024e+001 3.312555e+002
         vertex 6.494522e-001 5.717677e+001 3.312555e+002
      endloop
   endfacet
   facet normal -7.249272e-001 -4.185372e-001 -5.470898e-001
      outer loop
         vertex 2.620012e+000 5.465612e+001 3.286601e+002
         vertex 2.507390e+000 5.145862e+001 3.312555e+002
         vertex 9.707063e-001 5.412024e+001 3.312555e+002
      endloop
   endfacet
   facet normal 5.609667e-001 -5.895518e-002 -8.257365e-001
      outer loop
         vertex 4.933319e+002 5.672420e+001 3.269260e+002
         vertex 4.959131e+002 5.699549e+001 3.286601e+002
         vertex 4.931988e+002 5.545815e+001 3.269260e+002
      endloop
   endfacet
   facet normal 5.364509e-001 1.742987e-001 -8.257363e-001
      outer loop
         vertex 4.951862e+002 5.923262e+001 3.286601e+002
         vertex 4.959131e+002 5.699549e+001 3.286601e+002
         vertex 4.933319e+002 5.672420e+001 3.269260e+002
      endloop
   endfacet
   facet normal 7.200763e-001 4.157363e-001 -5.555659e-001
      outer loop
         vertex 4.951862e+002 5.923262e+001 3.286601e+002
         vertex 2.540426e+002 4.769056e+002 3.286601e+002
         vertex 2.555444e+002 4.777726e+002 3.312555e+002
      endloop
   endfacet
   facet normal 0.000000e+000 5.640589e-001 -8.257346e-001
      outer loop
         vertex 2.485071e+002 4.770717e+002 3.269260e+002
         vertex 2.479675e+002 4.796104e+002 3.286601e+002
         vertex 2.497801e+002 4.770717e+002 3.269260e+002
      endloop
   endfacet
   facet normal 0.000000e+000 5.640589e-001 -8.257346e-001
      outer loop
         vertex 2.497801e+002 4.770717e+002 3.269260e+002
         vertex 2.479675e+002 4.796104e+002 3.286601e+002
         vertex 2.503197e+002 4.796104e+002 3.286601e+002
      endloop
   endfacet
   facet normal 6.220643e-001 5.601131e-001 -5.470917e-001
      outer loop
         vertex 2.540426e+002 4.769056e+002 3.286601e+002
         vertex 2.524686e+002 4.786536e+002 3.286601e+002
         vertex 2.534879e+002 4.800566e+002 3.312555e+002
      endloop
   endfacet
   facet normal 3.404706e-001 7.647042e-001 -5.470899e-001
      outer loop
         vertex 2.524686e+002 4.786536e+002 3.286601e+002
         vertex 2.503197e+002 4.796104e+002 3.286601e+002
         vertex 2.506803e+002 4.813067e+002 3.312555e+002
      endloop
   endfacet
   facet normal -3.315463e-001 -4.563321e-001 -8.257349e-001
      outer loop
         vertex 6.754789e+000 5.360740e+001 3.269260e+002
         vertex 5.699150e+000 5.123640e+001 3.286601e+002
         vertex 5.724886e+000 5.435567e+001 3.269260e+002
      endloop
   endfacet
   facet normal -1.172749e-001 -5.517321e-001 -8.257351e-001
      outer loop
         vertex 8.000000e+000 5.074733e+001 3.286601e+002
         vertex 5.699150e+000 5.123640e+001 3.286601e+002
         vertex 6.754789e+000 5.360740e+001 3.269260e+002
      endloop
   endfacet
   facet normal -4.336900e-019 -8.314715e-001 -5.555674e-001
      outer loop
         vertex 8.000000e+000 5.074733e+001 3.286601e+002
         vertex 4.902872e+002 5.074733e+001 3.286601e+002
         vertex 4.902872e+002 4.901316e+001 3.312555e+002
      endloop
   endfacet
   facet normal 4.884861e-001 -2.820363e-001 -8.257341e-001
      outer loop
         vertex 4.931988e+002 5.545815e+001 3.269260e+002
         vertex 4.956672e+002 5.465612e+001 3.286601e+002
         vertex 4.925623e+002 5.435567e+001 3.269260e+002
      endloop
   endfacet
   facet normal 4.884863e-001 -2.820334e-001 -8.257350e-001
      outer loop
         vertex 4.925623e+002 5.435567e+001 3.269260e+002
         vertex 4.956672e+002 5.465612e+001 3.286601e+002
         vertex 4.944910e+002 5.261902e+001 3.286601e+002
      endloop
   endfacet
   facet normal 1.740367e-001 -8.187824e-001 -5.470893e-001
      outer loop
         vertex 4.902872e+002 5.074733e+001 3.286601e+002
         vertex 4.925880e+002 5.123640e+001 3.286601e+002
         vertex 4.932934e+002 4.965215e+001 3.312555e+002
      endloop
   endfacet
   facet normal 4.920225e-001 -6.771997e-001 -5.470964e-001
      outer loop
         vertex 4.925880e+002 5.123640e+001 3.286601e+002
         vertex 4.944910e+002 5.261902e+001 3.286601e+002
         vertex 4.957798e+002 5.145862e+001 3.312555e+002
      endloop
   endfacet
   facet normal -2.294242e-001 5.152950e-001 -8.257334e-001
      outer loop
         vertex 2.473441e+002 4.765539e+002 3.269260e+002
         vertex 2.458186e+002 4.786536e+002 3.286601e+002
         vertex 2.485071e+002 4.770717e+002 3.269260e+002
      endloop
   endfacet
   facet normal -4.191755e-001 3.774336e-001 -8.257335e-001
      outer loop
         vertex 2.442446e+002 4.769056e+002 3.286601e+002
         vertex 2.458186e+002 4.786536e+002 3.286601e+002
         vertex 2.473441e+002 4.765539e+002 3.269260e+002
      endloop
   endfacet
   facet normal -7.200748e-001 4.157354e-001 -5.555685e-001
      outer loop
         vertex 2.442446e+002 4.769056e+002 3.286601e+002
         vertex 3.101021e+000 5.923262e+001 3.286601e+002
         vertex 1.599174e+000 6.009971e+001 3.312555e+002
      endloop
   endfacet
   facet normal -4.884890e-001 -2.820285e-001 -8.257351e-001
      outer loop
         vertex 5.724886e+000 5.435567e+001 3.269260e+002
         vertex 3.796138e+000 5.261902e+001 3.286601e+002
         vertex 5.088372e+000 5.545815e+001 3.269260e+002
      endloop
   endfacet
   facet normal -4.884878e-001 -2.820292e-001 -8.257355e-001
      outer loop
         vertex 5.088372e+000 5.545815e+001 3.269260e+002
         vertex 3.796138e+000 5.261902e+001 3.286601e+002
         vertex 2.620012e+000 5.465612e+001 3.286601e+002
      endloop
   endfacet
   facet normal -7.961043e-001 2.586695e-001 -5.470906e-001
      outer loop
         vertex 3.101021e+000 5.923262e+001 3.286601e+002
         vertex 2.374135e+000 5.699549e+001 3.286601e+002
         vertex 6.494522e-001 5.717677e+001 3.312555e+002
      endloop
   endfacet
   facet normal -8.324882e-001 -8.749775e-002 -5.470900e-001
      outer loop
         vertex 2.374135e+000 5.699549e+001 3.286601e+002
         vertex 2.620012e+000 5.465612e+001 3.286601e+002
         vertex 9.707063e-001 5.412024e+001 3.312555e+002
      endloop
   endfacet
   facet normal 1.981894e-001 -2.082886e-002 -9.799424e-001
      outer loop
         vertex 4.933319e+002 5.672420e+001 3.269260e+002
         vertex 4.931988e+002 5.545815e+001 3.269260e+002
         vertex 4.902872e+002 5.640419e+001 3.263170e+002
      endloop
   endfacet
   facet normal 5.364429e-001 1.743071e-001 -8.257397e-001
      outer loop
         vertex 4.933319e+002 5.672420e+001 3.269260e+002
         vertex 4.929385e+002 5.793493e+001 3.269260e+002
         vertex 4.951862e+002 5.923262e+001 3.286601e+002
      endloop
   endfacet
   facet normal 4.811294e-001 2.777802e-001 -8.314762e-001
      outer loop
         vertex 4.929385e+002 5.793493e+001 3.269260e+002
         vertex 2.540426e+002 4.769056e+002 3.286601e+002
         vertex 4.951862e+002 5.923262e+001 3.286601e+002
      endloop
   endfacet
   facet normal 0.000000e+000 1.992820e-001 -9.799422e-001
      outer loop
         vertex 2.485071e+002 4.770717e+002 3.269260e+002
         vertex 2.497801e+002 4.770717e+002 3.269260e+002
         vertex 2.491436e+002 4.740771e+002 3.263170e+002
      endloop
   endfacet
   facet normal 2.294291e-001 5.152927e-001 -8.257334e-001
      outer loop
         vertex 2.509431e+002 4.765539e+002 3.269260e+002
         vertex 2.497801e+002 4.770717e+002 3.269260e+002
         vertex 2.503197e+002 4.796104e+002 3.286601e+002
      endloop
   endfacet
   facet normal 4.191758e-001 3.774302e-001 -8.257349e-001
      outer loop
         vertex 2.517949e+002 4.756079e+002 3.269260e+002
         vertex 2.524686e+002 4.786536e+002 3.286601e+002
         vertex 2.540426e+002 4.769056e+002 3.286601e+002
      endloop
   endfacet
   facet normal 2.294246e-001 5.152925e-001 -8.257348e-001
      outer loop
         vertex 2.509431e+002 4.765539e+002 3.269260e+002
         vertex 2.503197e+002 4.796104e+002 3.286601e+002
         vertex 2.524686e+002 4.786536e+002 3.286601e+002
      endloop
   endfacet
   facet normal -1.171354e-001 -1.612222e-001 -9.799422e-001
      outer loop
         vertex 6.754789e+000 5.360740e+001 3.269260e+002
         vertex 5.724886e+000 5.435567e+001 3.269260e+002
         vertex 8.000000e+000 5.640419e+001 3.263170e+002
      endloop
   endfacet
   facet normal -1.172731e-001 -5.517316e-001 -8.257356e-001
      outer loop
         vertex 6.754789e+000 5.360740e+001 3.269260e+002
         vertex 8.000000e+000 5.334272e+001 3.269260e+002
         vertex 8.000000e+000 5.074733e+001 3.286601e+002
      endloop
   endfacet
   facet normal 0.000000e+000 -5.555651e-001 -8.314731e-001
      outer loop
         vertex 8.000000e+000 5.334272e+001 3.269260e+002
         vertex 4.902872e+002 5.074733e+001 3.286601e+002
         vertex 8.000000e+000 5.074733e+001 3.286601e+002
      endloop
   endfacet
   facet normal 1.725814e-001 -9.964298e-002 -9.799423e-001
      outer loop
         vertex 4.931988e+002 5.545815e+001 3.269260e+002
         vertex 4.925623e+002 5.435567e+001 3.269260e+002
         vertex 4.902872e+002 5.640419e+001 3.263170e+002
      endloop
   endfacet
   facet normal 3.315513e-001 -4.563273e-001 -8.257355e-001
      outer loop
         vertex 4.915324e+002 5.360740e+001 3.269260e+002
         vertex 4.925623e+002 5.435567e+001 3.269260e+002
         vertex 4.944910e+002 5.261902e+001 3.286601e+002
      endloop
   endfacet
   facet normal 1.172736e-001 -5.517315e-001 -8.257356e-001
      outer loop
         vertex 4.902872e+002 5.334272e+001 3.269260e+002
         vertex 4.925880e+002 5.123640e+001 3.286601e+002
         vertex 4.902872e+002 5.074733e+001 3.286601e+002
      endloop
   endfacet
   facet normal 3.315493e-001 -4.563310e-001 -8.257343e-001
      outer loop
         vertex 4.915324e+002 5.360740e+001 3.269260e+002
         vertex 4.944910e+002 5.261902e+001 3.286601e+002
         vertex 4.925880e+002 5.123640e+001 3.286601e+002
      endloop
   endfacet
   facet normal -8.105525e-002 1.820531e-001 -9.799422e-001
      outer loop
         vertex 2.473441e+002 4.765539e+002 3.269260e+002
         vertex 2.485071e+002 4.770717e+002 3.269260e+002
         vertex 2.491436e+002 4.740771e+002 3.263170e+002
      endloop
   endfacet
   facet normal -4.191770e-001 3.774283e-001 -8.257352e-001
      outer loop
         vertex 2.473441e+002 4.765539e+002 3.269260e+002
         vertex 2.464923e+002 4.756079e+002 3.269260e+002
         vertex 2.442446e+002 4.769056e+002 3.286601e+002
      endloop
   endfacet
   facet normal -4.811343e-001 2.777830e-001 -8.314725e-001
      outer loop
         vertex 2.464923e+002 4.756079e+002 3.269260e+002
         vertex 3.101021e+000 5.923262e+001 3.286601e+002
         vertex 2.442446e+002 4.769056e+002 3.286601e+002
      endloop
   endfacet
   facet normal -1.725835e-001 -9.964084e-002 -9.799421e-001
      outer loop
         vertex 5.724886e+000 5.435567e+001 3.269260e+002
         vertex 5.088372e+000 5.545815e+001 3.269260e+002
         vertex 8.000000e+000 5.640419e+001 3.263170e+002
      endloop
   endfacet
   facet normal -5.609678e-001 -5.896016e-002 -8.257353e-001
      outer loop
         vertex 4.955305e+000 5.672420e+001 3.269260e+002
         vertex 5.088372e+000 5.545815e+001 3.269260e+002
         vertex 2.620012e+000 5.465612e+001 3.286601e+002
      endloop
   endfacet
   facet normal -5.364512e-001 1.743032e-001 -8.257352e-001
      outer loop
         vertex 5.348692e+000 5.793493e+001 3.269260e+002
         vertex 2.374135e+000 5.699549e+001 3.286601e+002
         vertex 3.101021e+000 5.923262e+001 3.286601e+002
      endloop
   endfacet
   facet normal -5.609679e-001 -5.895991e-002 -8.257353e-001
      outer loop
         vertex 4.955305e+000 5.672420e+001 3.269260e+002
         vertex 2.620012e+000 5.465612e+001 3.286601e+002
         vertex 2.374135e+000 5.699549e+001 3.286601e+002
      endloop
   endfacet
   facet normal 1.895276e-001 6.158347e-002 -9.799422e-001
      outer loop
         vertex 4.902872e+002 5.640419e+001 3.263170e+002
         vertex 4.929385e+002 5.793493e+001 3.269260e+002
         vertex 4.933319e+002 5.672420e+001 3.269260e+002
      endloop
   endfacet
   facet normal 4.811343e-001 2.777829e-001 -8.314725e-001
      outer loop
         vertex 4.929385e+002 5.793493e+001 3.269260e+002
         vertex 2.517949e+002 4.756079e+002 3.269260e+002
         vertex 2.540426e+002 4.769056e+002 3.286601e+002
      endloop
   endfacet
   facet normal 8.105718e-002 1.820526e-001 -9.799421e-001
      outer loop
         vertex 2.491436e+002 4.740771e+002 3.263170e+002
         vertex 2.497801e+002 4.770717e+002 3.269260e+002
         vertex 2.509431e+002 4.765539e+002 3.269260e+002
      endloop
   endfacet
   facet normal 4.191729e-001 3.774313e-001 -8.257359e-001
      outer loop
         vertex 2.517949e+002 4.756079e+002 3.269260e+002
         vertex 2.509431e+002 4.765539e+002 3.269260e+002
         vertex 2.524686e+002 4.786536e+002 3.286601e+002
      endloop
   endfacet
   facet normal -4.143266e-002 -1.949271e-001 -9.799422e-001
      outer loop
         vertex 8.000000e+000 5.640419e+001 3.263170e+002
         vertex 8.000000e+000 5.334272e+001 3.269260e+002
         vertex 6.754789e+000 5.360740e+001 3.269260e+002
      endloop
   endfacet
   facet normal -4.336900e-019 -5.555651e-001 -8.314731e-001
      outer loop
         vertex 8.000000e+000 5.334272e+001 3.269260e+002
         vertex 4.902872e+002 5.334272e+001 3.269260e+002
         vertex 4.902872e+002 5.074733e+001 3.286601e+002
      endloop
   endfacet
   facet normal 1.171369e-001 -1.612203e-001 -9.799423e-001
      outer loop
         vertex 4.902872e+002 5.640419e+001 3.263170e+002
         vertex 4.925623e+002 5.435567e+001 3.269260e+002
         vertex 4.915324e+002 5.360740e+001 3.269260e+002
      endloop
   endfacet
   facet normal 1.172708e-001 -5.517338e-001 -8.257345e-001
      outer loop
         vertex 4.902872e+002 5.334272e+001 3.269260e+002
         vertex 4.915324e+002 5.360740e+001 3.269260e+002
         vertex 4.925880e+002 5.123640e+001 3.286601e+002
      endloop
   endfacet
   facet normal -1.480951e-001 1.333453e-001 -9.799423e-001
      outer loop
         vertex 2.491436e+002 4.740771e+002 3.263170e+002
         vertex 2.464923e+002 4.756079e+002 3.269260e+002
         vertex 2.473441e+002 4.765539e+002 3.269260e+002
      endloop
   endfacet
   facet normal -4.811339e-001 2.777828e-001 -8.314728e-001
      outer loop
         vertex 2.464923e+002 4.756079e+002 3.269260e+002
         vertex 5.348692e+000 5.793493e+001 3.269260e+002
         vertex 3.101021e+000 5.923262e+001 3.286601e+002
      endloop
   endfacet
   facet normal -1.981905e-001 -2.083068e-002 -9.799421e-001
      outer loop
         vertex 8.000000e+000 5.640419e+001 3.263170e+002
         vertex 5.088372e+000 5.545815e+001 3.269260e+002
         vertex 4.955305e+000 5.672420e+001 3.269260e+002
      endloop
   endfacet
   facet normal -5.364512e-001 1.743032e-001 -8.257352e-001
      outer loop
         vertex 5.348692e+000 5.793493e+001 3.269260e+002
         vertex 4.955305e+000 5.672420e+001 3.269260e+002
         vertex 2.374135e+000 5.699549e+001 3.286601e+002
      endloop
   endfacet
   facet normal 1.689572e-001 9.754749e-002 -9.807844e-001
      outer loop
         vertex 4.902872e+002 5.640419e+001 3.263170e+002
         vertex 2.517949e+002 4.756079e+002 3.269260e+002
         vertex 4.929385e+002 5.793493e+001 3.269260e+002
      endloop
   endfacet
   facet normal 1.480947e-001 1.333474e-001 -9.799421e-001
      outer loop
         vertex 2.491436e+002 4.740771e+002 3.263170e+002
         vertex 2.509431e+002 4.765539e+002 3.269260e+002
         vertex 2.517949e+002 4.756079e+002 3.269260e+002
      endloop
   endfacet
   facet normal 0.000000e+000 -1.950946e-001 -9.807844e-001
      outer loop
         vertex 8.000000e+000 5.640419e+001 3.263170e+002
         vertex 4.902872e+002 5.334272e+001 3.269260e+002
         vertex 8.000000e+000 5.334272e+001 3.269260e+002
      endloop
   endfacet
   facet normal 4.143169e-002 -1.949271e-001 -9.799423e-001
      outer loop
         vertex 4.902872e+002 5.640419e+001 3.263170e+002
         vertex 4.915324e+002 5.360740e+001 3.269260e+002
         vertex 4.902872e+002 5.334272e+001 3.269260e+002
      endloop
   endfacet
   facet normal -1.689565e-001 9.754708e-002 -9.807845e-001
      outer loop
         vertex 2.491436e+002 4.740771e+002 3.263170e+002
         vertex 5.348692e+000 5.793493e+001 3.269260e+002
         vertex 2.464923e+002 4.756079e+002 3.269260e+002
      endloop
   endfacet
   facet normal -1.895287e-001 6.158148e-002 -9.799421e-001
      outer loop
         vertex 8.000000e+000 5.640419e+001 3.263170e+002
         vertex 4.955305e+000 5.672420e+001 3.269260e+002
         vertex 5.348692e+000 5.793493e+001 3.269260e+002
      endloop
   endfacet
   facet normal 1.689572e-001 9.754749e-002 -9.807844e-001
      outer loop
         vertex 4.902872e+002 5.640419e+001 3.263170e+002
         vertex 2.491436e+002 4.740771e+002 3.263170e+002
         vertex 2.517949e+002 4.756079e+002 3.269260e+002
      endloop
   endfacet
   facet normal 0.000000e+000 -1.950946e-001 -9.807844e-001
      outer loop
         vertex 8.000000e+000 5.640419e+001 3.263170e+002
         vertex 4.902872e+002 5.640419e+001 3.263170e+002
         vertex 4.902872e+002 5.334272e+001 3.269260e+002
      endloop
   endfacet
   facet normal -1.689572e-001 9.754747e-002 -9.807844e-001
      outer loop
         vertex 2.491436e+002 4.740771e+002 3.263170e+002
         vertex 8.000000e+000 5.640419e+001 3.263170e+002
         vertex 5.348692e+000 5.793493e+001 3.269260e+002
      endloop
   endfacet
   facet normal 0.000000e+000 0.000000e+000 -1.000000e+000
      outer loop
         vertex 4.902872e+002 5.640419e+001 3.263170e+002
         vertex 8.000000e+000 5.640419e+001 3.263170e+002
         vertex 2.491436e+002 4.740771e+002 3.263170e+002
      endloop
   endfacet
endsolid